<svg width="120" height="120" viewBox="0 0 120 120" fill="none" xmlns="http://www.w3.org/2000/svg">
<path d="M71.4955 119.864C97.4403 119.864 118.473 98.8312 118.473 72.8863C118.473 46.9415 97.4403 25.9091 71.4955 25.9091C45.5506 25.9091 24.5182 46.9415 24.5182 72.8863C24.5182 98.8312 45.5506 119.864 71.4955 119.864Z" fill="#FFF5F2"/>
<path d="M1.36446 6.9133V48.1955C1.36446 48.2731 1.36328 48.3466 1.36375 48.4242C1.36913 49.3166 1.61258 55.2273 7.11725 55.2273H85.4091C89.8274 55.2273 93.4091 51.6456 93.4091 47.2273V7.46016C93.4091 7.09601 93.387 6.73235 93.2961 6.37975C92.9375 4.98968 91.5648 1.36383 87.0019 1.36383H7.21093C7.14847 1.36383 7.0891 1.363 7.02666 1.36459C6.34746 1.38191 2.05932 1.69843 1.36446 6.9133Z" fill="white"/>
<path d="M46.2933 55.2273H7.11649C3.93804 55.2273 1.36365 52.4326 1.36365 48.9822V7.60871C1.36365 4.15831 3.93804 1.36365 7.11649 1.36365H87.6563C90.8347 1.36365 93.4091 4.15831 93.4091 7.60871V45.1415" stroke="#333333" stroke-width="2" stroke-linecap="round"/>
<path d="M56.7238 54.9513V82.3396H68.0699V68.6454H76.3316V82.3396H88.1591V56.0888L72.0075 40.8561L56.7238 54.9513Z" fill="#FF704D"/>
<path d="M96.2312 61.689L85.8184 51.7064C85.8184 51.6846 85.8257 51.67 85.8257 51.6554V42.5989C85.8257 41.8259 85.1986 41.1988 84.4256 41.1988C83.6527 41.1988 83.0256 41.8259 83.0256 42.5989V49.023L73.0503 39.4634C72.4742 38.9092 71.5627 38.9092 70.9794 39.4634L47.7912 61.6817C47.1933 62.2505 47.1787 63.1984 47.7475 63.7964C48.3162 64.3943 49.2642 64.4162 49.8621 63.8401L72.0148 42.6062L94.1676 63.8401C94.4592 64.1172 94.8311 64.2558 95.203 64.2558C95.5968 64.2558 95.9905 64.1026 96.2822 63.7964C96.8437 63.2057 96.8218 62.2578 96.2312 61.689Z" fill="#333333"/>
<path d="M87.5101 83.8636H76.0254C75.2014 83.8636 74.5306 83.1928 74.5306 82.3688V70.5122H69.4846V82.3688C69.4846 83.1928 68.8137 83.8636 67.9897 83.8636H56.505C55.681 83.8636 55.0102 83.1928 55.0102 82.3688V63.8839C55.0102 63.0599 55.681 62.389 56.505 62.389C57.329 62.389 57.9999 63.0599 57.9999 63.8839V80.874H66.4949V69.0246C66.4949 68.2007 67.1658 67.5298 67.9897 67.5298H76.0181C76.8421 67.5298 77.5129 68.2007 77.5129 69.0246V80.8812H86.008V63.8912C86.008 63.0672 86.6788 62.3963 87.5028 62.3963C88.3268 62.3963 88.9976 63.0672 88.9976 63.8912V82.3761C88.9976 83.2001 88.3341 83.8636 87.5101 83.8636Z" fill="#333333"/>
<path d="M18.5386 41.2432C17.3932 41.2432 16.3227 41.1 15.3273 40.8C14.3318 40.5068 13.4727 40.1318 12.75 39.6682C12.0205 39.2045 11.4546 38.7068 11.0455 38.1545C10.6364 37.6023 10.4318 37.0636 10.4318 36.525C10.4318 36.2659 10.4932 35.9795 10.6091 35.6591C10.725 35.3386 10.875 35.0455 11.0659 34.7795C11.2568 34.5136 11.4818 34.2886 11.7341 34.1114C11.9864 33.9341 12.2659 33.8455 12.5796 33.8455C12.9341 33.8455 13.2886 33.9818 13.65 34.2477C14.0046 34.5136 14.4068 34.8136 14.8568 35.1477C15.3 35.4818 15.8182 35.7955 16.4046 36.1023C16.9909 36.4091 17.7068 36.6136 18.5455 36.7159V29.1068C17.6796 28.7795 16.8068 28.4182 15.9273 28.0364C15.0477 27.6545 14.25 27.1773 13.5409 26.6045C12.825 26.0318 12.2455 25.3295 11.8023 24.5045C11.3523 23.6795 11.1341 22.65 11.1341 21.4295C11.1341 20.2091 11.3386 19.1523 11.7409 18.2795C12.15 17.4 12.6955 16.6636 13.3841 16.0636C14.0727 15.4636 14.8636 15 15.7568 14.6659C16.6432 14.3318 17.5773 14.1068 18.5455 13.9773V12.9068C18.5455 12.6545 18.6682 12.4295 18.9273 12.2386C19.1796 12.0477 19.4932 11.9523 19.8477 11.9523C20.1818 11.9523 20.4818 12.0477 20.7477 12.2386C21 12.4227 21.1364 12.6545 21.1364 12.9068V13.9091C21.75 13.9091 22.4386 13.9636 23.2023 14.0659C23.9659 14.1682 24.6818 14.3386 25.3432 14.5841C26.0045 14.8295 26.5568 15.1364 27.0068 15.5045C27.4568 15.8727 27.675 16.3432 27.675 16.9023C27.675 17.1341 27.6409 17.3932 27.5659 17.6864C27.4909 17.9795 27.3682 18.2659 27.2046 18.5523C27.0341 18.8318 26.8296 19.0705 26.5705 19.2614C26.3182 19.4523 26.0114 19.5477 25.65 19.5477C25.3705 19.5477 25.1046 19.4864 24.8455 19.3568C24.5932 19.2341 24.2932 19.0841 23.9455 18.9205C23.6046 18.7568 23.2091 18.5932 22.7591 18.4432C22.3159 18.2864 21.7705 18.1909 21.1364 18.1364V24.8659C21.975 25.1727 22.8341 25.5273 23.6932 25.9364C24.5591 26.3455 25.3364 26.8568 26.025 27.4841C26.7136 28.1045 27.2727 28.8682 27.7091 29.7614C28.1386 30.6545 28.3568 31.7523 28.3568 33.0477C28.3568 35.3932 27.6886 37.2477 26.3455 38.6114C25.0091 39.975 23.2705 40.8205 21.1296 41.1545V42.3409C21.1296 42.5932 20.9932 42.8182 20.7273 43.0091C20.4614 43.2 20.1614 43.2955 19.8273 43.2955C19.4727 43.2955 19.1659 43.2 18.9068 43.0091C18.6546 42.8182 18.525 42.5932 18.525 42.3341V41.2432H18.5386ZM15.7841 20.925C15.7841 21.7636 16.0705 22.4045 16.6432 22.8341C17.2159 23.2705 17.9523 23.6591 18.8455 24.0205V18.2455C17.8773 18.3955 17.1273 18.6955 16.5886 19.1455C16.05 19.5955 15.7841 20.1886 15.7841 20.925ZM23.6932 33.5386C23.6932 32.5977 23.4205 31.8614 22.875 31.3432C22.3296 30.8182 21.6477 30.3818 20.8296 30.0273V36.675C21.6682 36.4977 22.3568 36.1568 22.8886 35.6455C23.4273 35.1341 23.6932 34.4318 23.6932 33.5386Z" fill="#333333"/>
<path d="M36.6887 18.2659H75.0682" stroke="#333333" stroke-width="3" stroke-linecap="round"/>
<path d="M36.6887 24.4022H75.0682" stroke="#333333" stroke-width="3" stroke-linecap="round"/>
<path d="M36.6887 30.5387L64.0909 30.6784" stroke="#333333" stroke-width="3" stroke-linecap="round"/>
<path d="M36.6887 36.675L57.9546 36.8138" stroke="#333333" stroke-width="3" stroke-linecap="round"/>
</svg>
