<svg width="1920" height="561" viewBox="0 0 1920 561" fill="none" xmlns="http://www.w3.org/2000/svg">
<g clip-path="url(#clip0_134_4103)">
<path opacity="0.5653" d="M259.23 196.586L246.011 188.893V173.498L246.155 173.423L259.225 165.805L272.444 173.498V188.893L272.31 188.968L259.23 196.586ZM246.567 188.565L259.225 195.94L271.897 188.565V173.826L259.225 166.451L246.567 173.826V188.565Z" fill="#FF704D"/>
<path opacity="0.901" d="M155.703 392.51L129.548 377.274V346.821L129.687 346.737L155.703 331.585L181.858 346.826V377.279L181.724 377.364L155.703 392.51ZM130.1 376.961L155.703 391.874L181.311 376.961V347.14L155.703 332.226L130.1 347.14V376.961Z" fill="#FF704D"/>
<path opacity="0.8562" d="M155.703 422.65L103.666 392.356V331.744L103.805 331.67L155.708 301.451L207.75 331.744V392.356L207.616 392.431L155.703 422.65ZM104.213 392.028L155.698 422.009L207.193 392.028V332.072L155.698 302.092L104.213 332.072V392.028Z" fill="#FF704D"/>
<path opacity="0.9207" d="M362.762 241.802L362.628 241.718L310.725 211.494V150.897L310.859 150.812L362.762 120.588L362.896 120.673L414.794 150.897V211.499L414.659 211.583L362.762 241.802ZM311.277 211.181L362.767 241.161L414.252 211.181V151.21L362.767 121.229L311.277 151.21V211.181Z" fill="#FF704D"/>
<path opacity="0.7779" d="M259.23 271.942L233.075 256.716V226.248L233.219 226.164L259.23 211.012L285.385 226.248V256.716L285.251 256.79L259.23 271.942ZM233.632 256.388L259.23 271.301L284.838 256.388V226.566L259.23 211.653L233.632 226.566V256.388Z" fill="#FF704D"/>
<path opacity="0.6118" d="M155.703 196.586L142.494 188.893V173.498L142.628 173.423L155.703 165.805L168.922 173.498V188.893L168.783 188.968L155.703 196.586ZM143.036 188.565L155.698 195.94L168.361 188.565V173.826L155.698 166.451L143.036 173.826V188.565Z" fill="#FF704D"/>
<path opacity="0.6984" d="M362.762 211.653L336.607 196.427V165.964L336.741 165.89L362.767 150.738L388.922 165.964V196.427L388.788 196.511L362.762 211.653ZM337.153 196.099L362.767 211.012L388.375 196.099V166.277L362.767 151.379L337.153 166.277V196.099Z" fill="#FF704D"/>
<path opacity="0.8157" d="M362.762 362.376L362.628 362.291L310.725 332.072V271.47L310.859 271.386L362.762 241.161L362.896 241.246L414.794 271.47V332.072L414.659 332.147L362.762 362.376ZM311.277 331.739L362.767 361.73L414.252 331.739V271.783L362.767 241.803L311.277 271.783V331.739Z" fill="#FF704D"/>
<path opacity="0.5715" d="M190.514 442.279L155.982 422.178V301.918L259.23 241.803L362.483 301.918V422.178L327.951 442.279H329.055L362.896 422.575L363.04 422.491V301.605L259.374 241.246L259.23 241.161L155.569 301.52L155.43 301.605V422.491L189.41 442.279H190.514Z" fill="#FF704D"/>
<path opacity="0.5475" d="M155.982 442.279V422.491L259.23 362.376L362.483 422.491V442.279H363.04V422.178L259.374 361.804L259.23 361.735L155.569 422.093L155.43 422.178V442.279H155.982Z" fill="#FF704D"/>
<path opacity="0.8834" d="M259.23 422.65L207.198 392.356V331.744L207.332 331.67L259.235 301.451L311.282 331.744V392.356L311.137 392.431L259.23 422.65ZM207.74 392.028L259.225 422.009L310.715 392.028V332.072L259.225 302.092L207.74 332.072V392.028Z" fill="#FF704D"/>
<path opacity="0.5245" d="M345.804 442.279L337.153 437.245V407.424L362.762 392.51L388.37 407.424V437.245L379.72 442.279H380.823L388.917 437.558V407.096L362.762 391.869L336.607 407.096V437.558L344.7 442.279H345.804Z" fill="#FF704D"/>
<path opacity="0.8384" d="M466.294 91.0946L440.138 75.8584V45.4007L440.273 45.3212L466.294 30.1694L492.449 45.4007V75.8584L492.305 75.9428L466.294 91.0946ZM440.685 75.5353L466.294 90.4536L491.892 75.5353V45.7188L466.294 30.8105L440.685 45.7188V75.5353Z" fill="#FF704D"/>
<path opacity="0.6654" d="M362.762 271.942L336.607 256.716V226.248L336.741 226.164L362.767 211.012L388.922 226.248V256.716L388.788 256.79L362.762 271.942ZM337.153 256.388L362.767 271.301L388.375 256.388V226.566L362.767 211.653L337.153 226.566V256.388Z" fill="#FF704D"/>
<path opacity="0.6262" d="M259.23 196.586L246.011 188.893V173.498L246.155 173.423L259.225 165.805L272.444 173.498V188.893L272.31 188.968L259.23 196.586ZM246.567 188.565L259.225 195.94L271.897 188.565V173.826L259.225 166.451L246.567 173.826V188.565Z" fill="#FF704D"/>
<path opacity="0.5193" d="M259.23 317.159L246.011 309.456V294.071L246.155 293.986L259.225 286.378L272.444 294.071V309.456L272.31 309.541L259.23 317.159ZM246.567 309.138L259.225 316.518L271.897 309.138V294.384L259.225 287.009L246.567 294.384V309.138Z" fill="#FF704D"/>
<path opacity="0.9905" d="M466.294 362.376L466.149 362.291L414.247 332.072V271.47L414.381 271.386L466.294 241.161L466.428 241.246L518.331 271.47V332.072L518.196 332.147L466.294 362.376ZM414.794 331.739L466.294 361.73L517.779 331.739V271.783L466.294 241.803L414.794 271.783V331.739Z" fill="#FF704D"/>
<path opacity="0.517" d="M466.294 437.727L453.074 430.025V414.639L466.294 406.937L479.498 414.639V430.025L466.294 437.727ZM453.621 429.712L466.294 437.086L478.951 429.712V414.957L466.294 407.583L453.621 414.957V429.712Z" fill="#FF704D"/>
<path opacity="0.6479" d="M414.794 442.279V392.356L466.294 362.376L517.784 392.356V442.279H518.331V392.028L466.428 361.804L466.294 361.735L414.381 391.954L414.247 392.028V442.279H414.794Z" fill="#FF704D"/>
<path opacity="0.9857" d="M569.816 91.0946L543.66 75.8584V45.4007L543.805 45.3212L569.816 30.1694L595.971 45.4007V75.8584L595.837 75.9428L569.816 91.0946ZM544.207 75.5353L569.816 90.4536L595.429 75.5353V45.7188L569.816 30.8105L544.207 45.7188V75.5353Z" fill="#FF704D"/>
<path opacity="0.7696" d="M569.815 362.376L569.681 362.291L517.779 332.072V271.47L517.913 271.386L569.81 241.161L569.955 241.246L621.852 271.47V332.072L621.708 332.147L569.815 362.376ZM518.331 331.739L569.815 361.73L621.305 331.739V271.783L569.815 241.803L518.331 271.783V331.739Z" fill="#FF704D"/>
<path opacity="0.8062" d="M397.572 442.279L363.04 422.178V301.918L466.294 241.803L569.547 301.918V422.178L535.015 442.279H536.109L569.96 422.575L570.094 422.491V301.605L466.428 241.246L466.294 241.161L362.628 301.52L362.483 301.605V422.491L396.469 442.279H397.572Z" fill="#FF704D"/>
<path opacity="0.9977" d="M569.815 437.727L556.601 430.025V414.639L569.815 406.937L583.035 414.639V430.025L569.815 437.727ZM557.158 429.712L569.815 437.086L582.488 429.712V414.957L569.815 407.583L557.158 414.957V429.712Z" fill="#FF704D"/>
<path opacity="0.6323" d="M311.277 442.279V392.356L362.762 362.376L414.247 392.356V442.279H414.794V392.028L362.896 361.804L362.762 361.735L310.864 391.954L310.73 392.028V442.279H311.277Z" fill="#FF704D"/>
<path opacity="0.5774" d="M362.762 437.727L349.542 430.025V414.639L362.762 406.937L375.976 414.639V430.025L362.762 437.727ZM350.089 429.712L362.762 437.086L375.434 429.712V414.957L362.762 407.583L350.089 414.957V429.712Z" fill="#FF704D"/>
<path opacity="0.6004" d="M311.277 442.279V392.356L362.762 362.376L414.247 392.356V442.279H414.794V392.028L362.896 361.804L362.762 361.735L310.864 391.954L310.73 392.028V442.279H311.277Z" fill="#FF704D"/>
<path opacity="0.6198" d="M466.294 76.0174L453.074 68.3198V52.9295L453.209 52.8499L466.294 45.2318L479.498 52.9295V68.3198L479.364 68.4043L466.294 76.0174ZM453.621 68.0017L466.294 75.3764L478.951 68.0017V53.2524L466.294 45.8778L453.621 53.2524V68.0017Z" fill="#FF704D"/>
<path opacity="0.9164" d="M466.294 196.586L453.074 188.893V173.498L453.209 173.423L466.294 165.805L479.498 173.498V188.893L479.364 188.968L466.294 196.586ZM453.621 188.565L466.294 195.94L478.951 188.565V173.826L466.294 166.451L453.621 173.826V188.565Z" fill="#FF704D"/>
<path opacity="0.5577" d="M466.294 362.376L466.149 362.291L414.247 332.072V271.47L414.381 271.386L466.294 241.161L466.428 241.246L518.331 271.47V332.072L518.196 332.147L466.294 362.376ZM414.794 331.739L466.294 361.73L517.779 331.739V271.783L466.294 241.803L414.794 271.783V331.739Z" fill="#FF704D"/>
<path opacity="0.6643" d="M673.347 332.226L647.192 317V286.537L647.327 286.453L673.347 271.301L699.503 286.542V317.005L699.368 317.079L673.347 332.226ZM647.739 316.672L673.347 331.585L698.956 316.672V286.85L673.347 271.937L647.739 286.85V316.672Z" fill="#FF704D"/>
<path opacity="0.9482" d="M569.815 422.65L517.784 392.356V331.744L517.918 331.67L569.815 301.451L621.862 331.744V392.356L621.718 392.431L569.815 422.65ZM518.331 392.028L569.815 422.009L621.306 392.028V332.072L569.815 302.092L518.331 332.072V392.028Z" fill="#FF704D"/>
<path opacity="0.8287" d="M673.347 362.376L673.213 362.291L569.547 301.923V181.031L569.681 180.957L673.347 120.583L673.482 120.668L777.148 181.026V301.913L777.013 301.997L673.347 362.376ZM570.094 301.605L673.347 361.73L776.601 301.605V181.359L673.347 121.234L570.094 181.359V301.605Z" fill="#FF704D"/>
<path opacity="0.9627" d="M569.815 196.586L556.601 188.893V173.498L556.745 173.423L569.815 165.805L583.035 173.498V188.893L582.901 188.968L569.815 196.586ZM557.158 188.565L569.815 195.94L582.488 188.565V173.826L569.815 166.451L557.158 173.826V188.565Z" fill="#FF704D"/>
<path opacity="0.6877" d="M776.879 241.802L776.735 241.718L724.832 211.494V150.897L724.967 150.812L776.879 120.588L777.013 120.673L828.916 150.897V211.499L828.782 211.583L776.879 241.802ZM725.379 211.181L776.879 241.161L828.364 211.181V151.21L776.879 121.229L725.379 151.21V211.181Z" fill="#FF704D"/>
<path opacity="0.5544" d="M673.347 392.51L647.192 377.274V346.821L647.327 346.737L673.347 331.585L699.503 346.826V377.279L699.368 377.364L673.347 392.51ZM647.739 376.961L673.347 391.874L698.956 376.961V347.14L673.347 332.226L647.739 347.14V376.961Z" fill="#FF704D"/>
<path opacity="0.8016" d="M673.347 302.092L673.213 302.007L621.301 271.788V211.186L621.445 211.101L673.347 180.877L673.482 180.962L725.379 211.181V271.783L725.245 271.868L673.347 302.092ZM621.862 271.47L673.347 301.451L724.832 271.47V211.499L673.347 181.518L621.862 211.499V271.47Z" fill="#FF704D"/>
<path opacity="0.7569" d="M518.331 442.279V392.356L569.815 362.376L621.306 392.356V442.279H621.862V392.028L569.96 361.804L569.815 361.735L517.918 391.954L517.784 392.028V442.279H518.331Z" fill="#FF704D"/>
<path opacity="0.9339" d="M673.347 422.65L621.301 392.356V331.744L621.445 331.67L673.347 301.451L725.379 331.744V392.356L725.245 392.431L673.347 422.65ZM621.862 392.028L673.347 422.009L724.832 392.028V332.072L673.347 302.092L621.862 332.072V392.028Z" fill="#FF704D"/>
<path opacity="0.6722" d="M759.911 442.279L751.271 437.245V407.424L776.879 392.51L802.478 407.424V437.245L793.837 442.279H794.931L803.039 437.558V407.096L776.879 391.869L750.714 407.096V437.558L758.823 442.279H759.911Z" fill="#FF704D"/>
<path opacity="0.7115" d="M673.347 76.0174L660.128 68.3198V52.9295L660.262 52.8499L673.347 45.2318L686.567 52.9295V68.3198L686.422 68.4043L673.347 76.0174ZM660.68 68.0017L673.352 75.3764L686.015 68.0017V53.2524L673.352 45.8778L660.68 53.2524V68.0017Z" fill="#FF704D"/>
<path opacity="0.6307" d="M673.347 121.234L673.213 121.15L621.301 90.9257V30.3235L621.445 30.244L673.347 0.0198975L673.482 0.0994253L725.379 30.3235V90.9257L725.245 91.0102L673.347 121.234ZM621.862 90.6126L673.347 120.588L724.832 90.6126V30.6465L673.347 0.665947L621.862 30.6465V90.6126Z" fill="#FF704D"/>
<path opacity="0.9278" d="M880.401 121.234L880.267 121.15L828.364 90.9257V30.3235L828.498 30.244L880.401 0.0198975L932.448 30.3185V90.9207L932.304 91.0052L880.401 121.234ZM828.916 90.6126L880.401 120.588L931.886 90.6126V30.6465L880.401 0.665947L828.916 30.6465V90.6126Z" fill="#FF704D"/>
<path opacity="0.6392" d="M880.401 241.802L828.369 211.494V150.897L828.503 150.812L880.406 120.588L932.453 150.897V211.499L932.309 211.583L880.401 241.802ZM828.916 211.181L880.401 241.161L931.886 211.181V151.21L880.401 121.229L828.916 151.21V211.181Z" fill="#FF704D"/>
<path opacity="0.8937" d="M776.879 362.376L776.735 362.291L673.069 301.923V181.031L673.213 180.957L776.879 120.583L777.013 120.668L880.679 181.026V301.913L880.545 301.997L776.879 362.376ZM673.631 301.605L776.884 361.73L880.138 301.605V181.359L776.884 121.234L673.631 181.359V301.605Z" fill="#FF704D"/>
<path opacity="0.6526" d="M673.347 196.586L660.128 188.893V173.498L660.262 173.423L673.347 165.805L686.567 173.498V188.893L686.422 188.968L673.347 196.586ZM660.68 188.565L673.352 195.94L686.015 188.565V173.826L673.352 166.451L660.68 173.826V188.565Z" fill="#FF704D"/>
<path opacity="0.6213" d="M673.347 317.159L660.128 309.456V294.071L660.262 293.986L673.347 286.378L686.567 294.071V309.456L686.422 309.541L673.347 317.159ZM660.68 309.138L673.352 316.518L686.015 309.138V294.384L673.352 287.009L660.68 294.384V309.138Z" fill="#FF704D"/>
<path opacity="0.9916" d="M880.401 437.727L867.182 430.025V414.639L880.401 406.937L893.62 414.639V430.025L880.401 437.727ZM867.744 429.712L880.406 437.086L893.078 429.712V414.957L880.406 407.583L867.744 414.957V429.712Z" fill="#FF704D"/>
<path opacity="0.5206" d="M776.879 196.586L763.66 188.893V173.498L763.794 173.423L776.879 165.805L790.084 173.498V188.893L789.949 188.968L776.879 196.586ZM764.212 188.565L776.884 195.94L789.547 188.565V173.826L776.884 166.451L764.212 173.826V188.565Z" fill="#FF704D"/>
<path opacity="0.5092" d="M776.879 241.802L776.735 241.718L724.832 211.494V150.897L724.967 150.812L776.879 120.588L777.013 120.673L828.916 150.897V211.499L828.782 211.583L776.879 241.802ZM725.379 211.181L776.879 241.161L828.364 211.181V151.21L776.879 121.229L725.379 151.21V211.181Z" fill="#FF704D"/>
<path opacity="0.6455" d="M960 347.791L932.448 331.739V271.783L960 255.732V255.101L932.035 271.381L931.891 271.47V332.067L960 348.437V347.791Z" fill="#FF704D"/>
<path opacity="0.5075" d="M880.401 422.65L828.369 392.356V331.744L828.503 331.67L880.406 301.451L932.453 331.744V392.356L932.309 392.431L880.401 422.65ZM828.916 392.028L880.401 422.009L931.886 392.028V332.072L880.401 302.092L828.916 332.072V392.028Z" fill="#FF704D"/>
<path opacity="0.6536" d="M960 317.641L958.325 316.672V286.85L960 285.881V285.235L957.912 286.453L957.778 286.537V317L960 318.287V317.641Z" fill="#FF704D"/>
<path opacity="0.6878" d="M725.379 442.279V392.356L776.879 362.376L828.369 392.356V442.279H828.916V392.028L777.013 361.804L776.879 361.735L724.982 391.954L724.837 392.028V442.279H725.379Z" fill="#FF704D"/>
<path opacity="0.8538" d="M880.401 422.65L828.369 392.356V331.744L828.503 331.67L880.406 301.451L932.453 331.744V392.356L932.309 392.431L880.401 422.65ZM828.916 392.028L880.401 422.009L931.886 392.028V332.072L880.401 302.092L828.916 332.072V392.028Z" fill="#FF704D"/>
<path opacity="0.811" d="M960 347.79L880.68 301.605V181.359L960 135.173V134.527L880.267 180.962L880.133 181.031V301.918L960 348.437V347.79Z" fill="#FF704D"/>
<path opacity="0.6353" d="M915.212 442.279L880.68 422.178V301.918L960 255.732V255.101L880.267 301.52L880.133 301.605V422.491L914.108 442.279H915.212Z" fill="#FF704D"/>
<path opacity="0.9972" d="M960 287.506L932.448 271.47V211.494L960 195.458V194.817L932.035 211.096L931.891 211.181V271.783L960 288.147V287.506Z" fill="#FF704D"/>
<path opacity="0.8543" d="M960 106.664L932.448 90.6126V30.6465L960 14.6002V13.9641L932.035 30.244L931.891 30.3235V90.9257L960 107.29V106.664Z" fill="#FF704D"/>
<path opacity="0.6795" d="M932.448 442.279V392.356L960 376.305V375.659L932.035 391.954L931.891 392.028V442.279H932.448Z" fill="#FF704D"/>
<path opacity="0.8144" d="M249.59 188.734C249.59 190.568 248.109 192.059 246.289 192.059C244.47 192.059 242.988 190.568 242.988 188.734C242.988 186.89 244.47 185.4 246.289 185.4C248.114 185.4 249.59 186.895 249.59 188.734Z" fill="#FF704D"/>
<path opacity="0.728" d="M262.531 196.273C262.531 198.106 261.064 199.597 259.23 199.597C257.41 199.597 255.929 198.106 255.929 196.273C255.929 194.429 257.41 192.938 259.23 192.938C261.059 192.933 262.531 194.424 262.531 196.273Z" fill="#FF704D"/>
<path opacity="0.7587" d="M275.482 188.734C275.482 190.568 274 192.059 272.166 192.059C270.346 192.059 268.865 190.568 268.865 188.734C268.865 186.89 270.346 185.4 272.166 185.4C274 185.4 275.482 186.895 275.482 188.734Z" fill="#FF704D"/>
<path opacity="0.6915" d="M184.886 377.115C184.886 378.959 183.414 380.45 181.585 380.45C179.765 380.45 178.284 378.959 178.284 377.115C178.284 375.281 179.765 373.791 181.585 373.791C183.414 373.791 184.886 375.286 184.886 377.115Z" fill="#FF704D"/>
<path opacity="0.5175" d="M107.246 392.182C107.246 394.026 105.764 395.517 103.945 395.517C102.12 395.517 100.639 394.026 100.639 392.182C100.639 390.349 102.12 388.858 103.945 388.858C105.764 388.863 107.246 390.354 107.246 392.182Z" fill="#FF704D"/>
<path opacity="0.7801" d="M210.773 331.913C210.773 333.747 209.291 335.238 207.471 335.238C205.647 335.238 204.17 333.747 204.17 331.913C204.17 330.069 205.647 328.579 207.471 328.579C209.291 328.574 210.773 330.065 210.773 331.913Z" fill="#FF704D"/>
<path opacity="0.8122" d="M107.246 331.913C107.246 333.747 105.764 335.238 103.945 335.238C102.12 335.238 100.639 333.747 100.639 331.913C100.639 330.069 102.12 328.579 103.945 328.579C105.764 328.574 107.246 330.065 107.246 331.913Z" fill="#FF704D"/>
<path opacity="0.7332" d="M159.009 181.19C159.009 183.034 157.528 184.525 155.703 184.525C153.883 184.525 152.402 183.034 152.402 181.19C152.402 179.357 153.883 177.866 155.703 177.866C157.528 177.866 159.009 179.357 159.009 181.19Z" fill="#FF704D"/>
<path opacity="0.9423" d="M262.531 271.624C262.531 273.453 261.064 274.949 259.23 274.949C257.41 274.949 255.929 273.453 255.929 271.624C255.929 269.78 257.41 268.285 259.23 268.285C261.059 268.29 262.531 269.78 262.531 271.624Z" fill="#FF704D"/>
<path opacity="0.8348" d="M288.418 226.407C288.418 228.251 286.936 229.742 285.117 229.742C283.282 229.742 281.801 228.251 281.801 226.407C281.801 224.578 283.282 223.073 285.117 223.073C286.941 223.073 288.418 224.578 288.418 226.407Z" fill="#FF704D"/>
<path opacity="0.6404" d="M236.654 226.407C236.654 228.251 235.173 229.742 233.353 229.742C231.534 229.742 230.052 228.251 230.052 226.407C230.052 224.578 231.534 223.073 233.353 223.073C235.173 223.073 236.654 224.578 236.654 226.407Z" fill="#FF704D"/>
<path opacity="0.8945" d="M340.186 196.273C340.186 198.106 338.705 199.597 336.885 199.597C335.051 199.597 333.569 198.106 333.569 196.273C333.569 194.429 335.051 192.938 336.885 192.938C338.705 192.933 340.186 194.424 340.186 196.273Z" fill="#FF704D"/>
<path opacity="0.8456" d="M366.063 211.34C366.063 213.184 364.581 214.664 362.762 214.664C360.942 214.664 359.461 213.184 359.461 211.34C359.461 209.496 360.942 208.005 362.762 208.005C364.581 208 366.063 209.496 366.063 211.34Z" fill="#FF704D"/>
<path opacity="0.9902" d="M314.299 331.913C314.299 333.747 312.818 335.238 310.998 335.238C309.179 335.238 307.697 333.747 307.697 331.913C307.697 330.069 309.179 328.579 310.998 328.579C312.818 328.579 314.299 330.065 314.299 331.913Z" fill="#FF704D"/>
<path opacity="0.7274" d="M366.063 422.332C366.063 424.166 364.581 425.656 362.762 425.656C360.942 425.656 359.461 424.166 359.461 422.332C359.461 420.488 360.942 418.997 362.762 418.997C364.581 418.997 366.063 420.488 366.063 422.332Z" fill="#FF704D"/>
<path opacity="0.9855" d="M262.531 362.048C262.531 363.891 261.064 365.382 259.23 365.382C257.41 365.382 255.929 363.891 255.929 362.048C255.929 360.204 257.41 358.708 259.23 358.708C261.059 358.708 262.531 360.204 262.531 362.048Z" fill="#FF704D"/>
<path opacity="0.5344" d="M391.955 256.542C391.955 258.385 390.473 259.876 388.638 259.876C386.819 259.876 385.337 258.38 385.337 256.542C385.337 254.708 386.819 253.217 388.638 253.217C390.473 253.222 391.955 254.713 391.955 256.542Z" fill="#FF704D"/>
<path opacity="0.9922" d="M340.186 226.407C340.186 228.251 338.705 229.742 336.885 229.742C335.051 229.742 333.569 228.251 333.569 226.407C333.569 224.578 335.051 223.073 336.885 223.073C338.705 223.073 340.186 224.578 340.186 226.407Z" fill="#FF704D"/>
<path opacity="0.6301" d="M249.59 188.734C249.59 190.568 248.109 192.059 246.289 192.059C244.47 192.059 242.988 190.568 242.988 188.734C242.988 186.89 244.47 185.4 246.289 185.4C248.114 185.4 249.59 186.895 249.59 188.734Z" fill="#FF704D"/>
<path opacity="0.8077" d="M275.482 294.225C275.482 296.069 274 297.564 272.166 297.564C270.346 297.564 268.865 296.069 268.865 294.225C268.865 292.381 270.346 290.891 272.166 290.891C274 290.891 275.482 292.381 275.482 294.225Z" fill="#FF704D"/>
<path opacity="0.7663" d="M417.831 331.913C417.831 333.747 416.35 335.238 414.53 335.238C412.696 335.238 411.229 333.747 411.229 331.913C411.229 330.069 412.696 328.579 414.53 328.579C416.35 328.574 417.831 330.065 417.831 331.913Z" fill="#FF704D"/>
<path opacity="0.5432" d="M469.595 362.048C469.595 363.891 468.113 365.382 466.294 365.382C464.459 365.382 462.978 363.891 462.978 362.048C462.978 360.204 464.459 358.708 466.294 358.708C468.113 358.708 469.595 360.204 469.595 362.048Z" fill="#FF704D"/>
<path opacity="0.8535" d="M521.363 331.913C521.363 333.747 519.882 335.238 518.047 335.238C516.228 335.238 514.746 333.747 514.746 331.913C514.746 330.069 516.228 328.579 518.047 328.579C519.882 328.574 521.363 330.065 521.363 331.913Z" fill="#FF704D"/>
<path opacity="0.5589" d="M521.363 271.624C521.363 273.453 519.882 274.949 518.047 274.949C516.228 274.949 514.746 273.453 514.746 271.624C514.746 269.78 516.228 268.285 518.047 268.285C519.882 268.29 521.363 269.78 521.363 271.624Z" fill="#FF704D"/>
<path opacity="0.8499" d="M469.595 241.474C469.595 243.318 468.113 244.809 466.294 244.809C464.459 244.809 462.978 243.318 462.978 241.474C462.978 239.646 464.459 238.15 466.294 238.15C468.113 238.15 469.595 239.646 469.595 241.474Z" fill="#FF704D"/>
<path opacity="0.6091" d="M456.659 414.798C456.659 416.627 455.177 418.123 453.343 418.123C451.523 418.123 450.042 416.627 450.042 414.798C450.042 412.955 451.523 411.464 453.343 411.464C455.177 411.464 456.659 412.955 456.659 414.798Z" fill="#FF704D"/>
<path opacity="0.5784" d="M573.117 30.4875C573.117 32.3261 571.65 33.817 569.815 33.817C567.996 33.817 566.514 32.3261 566.514 30.4875C566.514 28.6488 567.996 27.158 569.815 27.158C571.65 27.158 573.117 28.6488 573.117 30.4875Z" fill="#FF704D"/>
<path opacity="0.7656" d="M573.117 362.048C573.117 363.891 571.65 365.382 569.815 365.382C567.996 365.382 566.514 363.891 566.514 362.048C566.514 360.204 567.996 358.708 569.815 358.708C571.65 358.708 573.117 360.204 573.117 362.048Z" fill="#FF704D"/>
<path opacity="0.5656" d="M366.063 422.332C366.063 424.166 364.581 425.656 362.762 425.656C360.942 425.656 359.461 424.166 359.461 422.332C359.461 420.488 360.942 418.997 362.762 418.997C364.581 418.997 366.063 420.488 366.063 422.332Z" fill="#FF704D"/>
<path opacity="0.9016" d="M456.659 68.1657C456.659 70.0044 455.177 71.4952 453.343 71.4952C451.523 71.4952 450.042 70.0044 450.042 68.1657C450.042 66.327 451.523 64.8362 453.343 64.8362C455.177 64.8362 456.659 66.327 456.659 68.1657Z" fill="#FF704D"/>
<path opacity="0.6844" d="M469.595 166.123C469.595 167.967 468.113 169.458 466.294 169.458C464.459 169.458 462.978 167.967 462.978 166.123C462.978 164.289 464.459 162.799 466.294 162.799C468.113 162.799 469.595 164.289 469.595 166.123Z" fill="#FF704D"/>
<path opacity="0.9473" d="M676.649 331.913C676.649 333.747 675.167 335.238 673.347 335.238C671.528 335.238 670.046 333.747 670.046 331.913C670.046 330.069 671.528 328.579 673.347 328.579C675.167 328.574 676.649 330.065 676.649 331.913Z" fill="#FF704D"/>
<path opacity="0.9003" d="M624.885 331.913C624.885 333.747 623.404 335.238 621.584 335.238C619.764 335.238 618.283 333.747 618.283 331.913C618.283 330.069 619.764 328.579 621.584 328.579C623.404 328.574 624.885 330.065 624.885 331.913Z" fill="#FF704D"/>
<path opacity="0.935" d="M573.117 301.764C573.117 303.607 571.65 305.098 569.815 305.098C567.996 305.098 566.514 303.607 566.514 301.764C566.514 299.93 567.996 298.424 569.815 298.424C571.65 298.424 573.117 299.93 573.117 301.764Z" fill="#FF704D"/>
<path opacity="0.5725" d="M573.117 181.19C573.117 183.034 571.65 184.525 569.815 184.525C567.996 184.525 566.514 183.034 566.514 181.19C566.514 179.357 567.996 177.866 569.815 177.866C571.65 177.866 573.117 179.357 573.117 181.19Z" fill="#FF704D"/>
<path opacity="0.7228" d="M586.067 188.734C586.067 190.568 584.586 192.059 582.751 192.059C580.932 192.059 579.45 190.568 579.45 188.734C579.45 186.89 580.932 185.4 582.751 185.4C584.586 185.4 586.067 186.895 586.067 188.734Z" fill="#FF704D"/>
<path opacity="0.7894" d="M780.18 120.916C780.18 122.75 778.699 124.241 776.879 124.241C775.045 124.241 773.568 122.75 773.568 120.916C773.568 119.073 775.05 117.582 776.879 117.582C778.704 117.582 780.18 119.073 780.18 120.916Z" fill="#FF704D"/>
<path opacity="0.8898" d="M728.417 151.056C728.417 152.899 726.935 154.39 725.116 154.39C723.281 154.39 721.815 152.899 721.815 151.056C721.815 149.212 723.281 147.716 725.116 147.716C726.935 147.716 728.417 149.212 728.417 151.056Z" fill="#FF704D"/>
<path opacity="0.5427" d="M650.772 346.98C650.772 348.814 649.29 350.305 647.471 350.305C645.636 350.305 644.155 348.814 644.155 346.98C644.155 345.137 645.636 343.641 647.471 343.641C649.29 343.641 650.772 345.137 650.772 346.98Z" fill="#FF704D"/>
<path opacity="0.8321" d="M728.417 271.624C728.417 273.453 726.935 274.949 725.116 274.949C723.281 274.949 721.815 273.453 721.815 271.624C721.815 269.78 723.281 268.285 725.116 268.285C726.935 268.29 728.417 269.78 728.417 271.624Z" fill="#FF704D"/>
<path opacity="0.5515" d="M676.649 422.332C676.649 424.166 675.167 425.656 673.347 425.656C671.528 425.656 670.046 424.166 670.046 422.332C670.046 420.488 671.528 418.997 673.347 418.997C675.167 418.997 676.649 420.488 676.649 422.332Z" fill="#FF704D"/>
<path opacity="0.7361" d="M573.117 362.048C573.117 363.891 571.65 365.382 569.815 365.382C567.996 365.382 566.514 363.891 566.514 362.048C566.514 360.204 567.996 358.708 569.815 358.708C571.65 358.708 573.117 360.204 573.117 362.048Z" fill="#FF704D"/>
<path opacity="0.5694" d="M728.417 392.182C728.417 394.026 726.935 395.517 725.116 395.517C723.281 395.517 721.805 394.026 721.805 392.182C721.805 390.349 723.286 388.858 725.116 388.858C726.935 388.863 728.417 390.354 728.417 392.182Z" fill="#FF704D"/>
<path opacity="0.7041" d="M624.885 331.913C624.885 333.747 623.404 335.238 621.584 335.238C619.764 335.238 618.283 333.747 618.283 331.913C618.283 330.069 619.764 328.579 621.584 328.579C623.404 328.574 624.885 330.065 624.885 331.913Z" fill="#FF704D"/>
<path opacity="0.988" d="M780.18 392.182C780.18 394.026 778.699 395.517 776.879 395.517C775.045 395.517 773.568 394.026 773.568 392.182C773.568 390.349 775.05 388.858 776.879 388.858C778.704 388.863 780.18 390.354 780.18 392.182Z" fill="#FF704D"/>
<path opacity="0.5764" d="M673.347 48.8843C675.171 48.8843 676.649 47.3936 676.649 45.5548C676.649 43.716 675.171 42.2253 673.347 42.2253C671.524 42.2253 670.046 43.716 670.046 45.5548C670.046 47.3936 671.524 48.8843 673.347 48.8843Z" fill="#FF704D"/>
<path opacity="0.6501" d="M624.885 90.7667C624.885 92.6103 623.404 94.1012 621.584 94.1012C619.764 94.1012 618.283 92.6103 618.283 90.7667C618.283 88.933 619.764 87.4421 621.584 87.4421C623.404 87.4421 624.885 88.9379 624.885 90.7667Z" fill="#FF704D"/>
<path opacity="0.6553" d="M831.949 90.7667C831.949 92.6103 830.467 94.1012 828.633 94.1012C826.813 94.1012 825.332 92.6103 825.332 90.7667C825.332 88.933 826.813 87.4421 828.633 87.4421C830.467 87.4421 831.949 88.9379 831.949 90.7667Z" fill="#FF704D"/>
<path opacity="0.6531" d="M883.702 241.474C883.702 243.318 882.236 244.809 880.401 244.809C878.581 244.809 877.1 243.318 877.1 241.474C877.1 239.646 878.581 238.15 880.401 238.15C882.236 238.15 883.702 239.646 883.702 241.474Z" fill="#FF704D"/>
<path opacity="0.7985" d="M935.471 211.34C935.471 213.184 933.989 214.664 932.17 214.664C930.35 214.664 928.868 213.184 928.868 211.34C928.868 209.496 930.35 208.005 932.17 208.005C933.989 208 935.471 209.496 935.471 211.34Z" fill="#FF704D"/>
<path opacity="0.8668" d="M663.713 188.734C663.713 190.568 662.231 192.059 660.411 192.059C658.577 192.059 657.11 190.568 657.11 188.734C657.11 186.89 658.577 185.4 660.411 185.4C662.231 185.4 663.713 186.895 663.713 188.734Z" fill="#FF704D"/>
<path opacity="0.8785" d="M676.649 166.123C676.649 167.967 675.167 169.458 673.347 169.458C671.528 169.458 670.046 167.967 670.046 166.123C670.046 164.289 671.528 162.799 673.347 162.799C675.167 162.799 676.649 164.289 676.649 166.123Z" fill="#FF704D"/>
<path opacity="0.74" d="M663.713 309.297C663.713 311.141 662.231 312.637 660.411 312.637C658.577 312.637 657.11 311.141 657.11 309.297C657.11 307.464 658.577 305.973 660.411 305.973C662.231 305.973 663.713 307.464 663.713 309.297Z" fill="#FF704D"/>
<path opacity="0.9974" d="M676.649 316.831C676.649 318.675 675.167 320.165 673.347 320.165C671.528 320.165 670.046 318.675 670.046 316.831C670.046 315.002 671.528 313.506 673.347 313.506C675.167 313.506 676.649 314.997 676.649 316.831Z" fill="#FF704D"/>
<path opacity="0.9965" d="M689.589 294.225C689.589 296.069 688.108 297.564 686.288 297.564C684.469 297.564 682.987 296.069 682.987 294.225C682.987 292.381 684.469 290.891 686.288 290.891C688.108 290.891 689.589 292.381 689.589 294.225Z" fill="#FF704D"/>
<path opacity="0.5958" d="M663.713 294.225C663.713 296.069 662.231 297.564 660.411 297.564C658.577 297.564 657.11 296.069 657.11 294.225C657.11 292.381 658.577 290.891 660.411 290.891C662.231 290.891 663.713 292.381 663.713 294.225Z" fill="#FF704D"/>
<path opacity="0.8656" d="M883.702 407.265C883.702 409.098 882.236 410.589 880.401 410.589C878.581 410.589 877.1 409.098 877.1 407.265C877.1 405.421 878.581 403.93 880.401 403.93C882.236 403.93 883.702 405.421 883.702 407.265Z" fill="#FF704D"/>
<path opacity="0.6714" d="M793.121 188.734C793.121 190.568 791.64 192.059 789.82 192.059C787.986 192.059 786.519 190.568 786.519 188.734C786.519 186.89 787.986 185.4 789.82 185.4C791.64 185.4 793.121 186.895 793.121 188.734Z" fill="#FF704D"/>
<path opacity="0.9386" d="M767.244 173.657C767.244 175.5 765.763 176.991 763.928 176.991C762.109 176.991 760.627 175.5 760.627 173.657C760.627 171.828 762.109 170.332 763.928 170.332C765.763 170.332 767.244 171.823 767.244 173.657Z" fill="#FF704D"/>
<path opacity="0.8257" d="M831.949 151.056C831.949 152.899 830.467 154.39 828.633 154.39C826.813 154.39 825.332 152.899 825.332 151.056C825.332 149.212 826.813 147.716 828.633 147.716C830.467 147.716 831.949 149.212 831.949 151.056Z" fill="#FF704D"/>
<path opacity="0.8822" d="M780.18 120.916C780.18 122.75 778.699 124.241 776.879 124.241C775.045 124.241 773.568 122.75 773.568 120.916C773.568 119.073 775.05 117.582 776.879 117.582C778.704 117.582 780.18 119.073 780.18 120.916Z" fill="#FF704D"/>
<path opacity="0.7249" d="M728.417 151.056C728.417 152.899 726.935 154.39 725.116 154.39C723.281 154.39 721.815 152.899 721.815 151.056C721.815 149.212 723.281 147.716 725.116 147.716C726.935 147.716 728.417 149.212 728.417 151.056Z" fill="#FF704D"/>
<path opacity="0.85" d="M935.471 331.913C935.471 333.747 933.989 335.238 932.17 335.238C930.35 335.238 928.868 333.747 928.868 331.913C928.868 330.069 930.35 328.579 932.17 328.579C933.989 328.574 935.471 330.065 935.471 331.913Z" fill="#FF704D"/>
<path opacity="0.7173" d="M935.471 271.624C935.471 273.453 933.989 274.949 932.17 274.949C930.35 274.949 928.868 273.453 928.868 271.624C928.868 269.78 930.35 268.285 932.17 268.285C933.989 268.29 935.471 269.78 935.471 271.624Z" fill="#FF704D"/>
<path opacity="0.7483" d="M960 284.013C959.453 283.615 958.787 283.357 958.046 283.357C956.227 283.357 954.745 284.848 954.745 286.696C954.745 288.54 956.227 290.031 958.046 290.031C958.787 290.031 959.453 289.777 960 289.375V284.013Z" fill="#FF704D"/>
<path opacity="0.9308" d="M728.417 392.182C728.417 394.026 726.935 395.517 725.116 395.517C723.281 395.517 721.815 394.026 721.815 392.182C721.815 390.349 723.281 388.858 725.116 388.858C726.935 388.863 728.417 390.354 728.417 392.182Z" fill="#FF704D"/>
<path opacity="0.9474" d="M935.471 392.182C935.471 394.026 933.989 395.517 932.17 395.517C930.35 395.517 928.868 394.026 928.868 392.182C928.868 390.349 930.35 388.858 932.17 388.858C933.989 388.863 935.471 390.354 935.471 392.182Z" fill="#FF704D"/>
<path opacity="0.5499" d="M883.702 181.19C883.702 183.034 882.236 184.525 880.401 184.525C878.581 184.525 877.1 183.034 877.1 181.19C877.1 179.357 878.581 177.866 880.401 177.866C882.236 177.866 883.702 179.357 883.702 181.19Z" fill="#FF704D"/>
<path opacity="0.5903" d="M883.702 301.764C883.702 303.607 882.236 305.098 880.401 305.098C878.581 305.098 877.1 303.607 877.1 301.764C877.1 299.93 878.581 298.424 880.401 298.424C882.236 298.424 883.702 299.93 883.702 301.764Z" fill="#FF704D"/>
</g>
<g clip-path="url(#clip1_134_4103)">
<path opacity="0.901" d="M155.703 451.489L129.548 466.726V497.178L129.687 497.263L155.703 512.415L181.858 497.173V466.721L181.724 466.636L155.703 451.489ZM130.1 467.039L155.703 452.126L181.311 467.039V496.86L155.703 511.774L130.1 496.86V467.039Z" fill="#FF704D"/>
<path opacity="0.8562" d="M155.703 421.35L103.666 451.644V512.256L103.805 512.33L155.708 542.549L207.75 512.256V451.644L207.616 451.569L155.703 421.35ZM104.213 451.972L155.698 421.991L207.193 451.972V511.928L155.698 541.908L104.213 511.928V451.972Z" fill="#FF704D"/>
<path opacity="0.5475" d="M155.982 401.721V421.509L259.23 481.624L362.483 421.509V401.721H363.04V421.822L259.374 482.196L259.23 482.265L155.569 421.906L155.43 421.822V401.721H155.982Z" fill="#FF704D"/>
<path opacity="0.8834" d="M259.23 421.35L207.198 451.644V512.256L207.332 512.33L259.235 542.549L311.282 512.256V451.644L311.137 451.569L259.23 421.35ZM207.74 451.972L259.225 421.991L310.715 451.972V511.928L259.225 541.908L207.74 511.928V451.972Z" fill="#FF704D"/>
<path opacity="0.5245" d="M345.804 401.721L337.153 406.755V436.576L362.762 451.49L388.37 436.576V406.755L379.72 401.721H380.823L388.917 406.442V436.904L362.762 452.131L336.607 436.904V406.442L344.7 401.721H345.804Z" fill="#FF704D"/>
<path opacity="0.5193" d="M259.23 526.841L246.011 534.544V549.929L246.155 550.013L259.225 557.622L272.444 549.929V534.544L272.31 534.459L259.23 526.841ZM246.567 534.862L259.225 527.482L271.897 534.862V549.616L259.225 556.99L246.567 549.616V534.862Z" fill="#FF704D"/>
<path opacity="0.517" d="M466.294 406.273L453.074 413.975V429.361L466.294 437.063L479.498 429.361V413.975L466.294 406.273ZM453.621 414.288L466.294 406.914L478.951 414.288V429.043L466.294 436.417L453.621 429.043V414.288Z" fill="#FF704D"/>
<path opacity="0.6479" d="M414.794 401.721V451.644L466.294 481.624L517.784 451.644V401.721H518.331V451.972L466.428 482.196L466.294 482.265L414.381 452.046L414.247 451.972V401.721H414.794Z" fill="#FF704D"/>
<path opacity="0.9977" d="M569.815 406.273L556.601 413.975V429.361L569.815 437.063L583.035 429.361V413.975L569.815 406.273ZM557.158 414.288L569.815 406.914L582.488 414.288V429.043L569.815 436.417L557.158 429.043V414.288Z" fill="#FF704D"/>
<path opacity="0.6323" d="M311.277 401.721V451.644L362.762 481.624L414.247 451.644V401.721H414.794V451.972L362.896 482.196L362.762 482.265L310.864 452.046L310.73 451.972V401.721H311.277Z" fill="#FF704D"/>
<path opacity="0.5774" d="M362.762 406.273L349.542 413.975V429.361L362.762 437.063L375.976 429.361V413.975L362.762 406.273ZM350.089 414.288L362.762 406.914L375.434 414.288V429.043L362.762 436.417L350.089 429.043V414.288Z" fill="#FF704D"/>
<path opacity="0.6004" d="M311.277 401.721V451.644L362.762 481.624L414.247 451.644V401.721H414.794V451.972L362.896 482.196L362.762 482.265L310.864 452.046L310.73 451.972V401.721H311.277Z" fill="#FF704D"/>
<path opacity="0.9482" d="M569.815 421.35L517.784 451.644V512.256L517.918 512.33L569.815 542.549L621.862 512.256V451.644L621.718 451.569L569.815 421.35ZM518.331 451.972L569.815 421.991L621.306 451.972V511.928L569.815 541.908L518.331 511.928V451.972Z" fill="#FF704D"/>
<path opacity="0.5544" d="M673.347 451.489L647.192 466.726V497.178L647.327 497.263L673.347 512.415L699.503 497.173V466.721L699.368 466.636L673.347 451.489ZM647.739 467.039L673.347 452.126L698.956 467.039V496.86L673.347 511.774L647.739 496.86V467.039Z" fill="#FF704D"/>
<path opacity="0.7569" d="M518.331 401.721V451.644L569.815 481.624L621.306 451.644V401.721H621.862V451.972L569.96 482.196L569.815 482.265L517.918 452.046L517.784 451.972V401.721H518.331Z" fill="#FF704D"/>
<path opacity="0.9339" d="M673.347 421.35L621.301 451.644V512.256L621.445 512.33L673.347 542.549L725.379 512.256V451.644L725.245 451.569L673.347 421.35ZM621.862 451.972L673.347 421.991L724.832 451.972V511.928L673.347 541.908L621.862 511.928V451.972Z" fill="#FF704D"/>
<path opacity="0.6722" d="M759.911 401.721L751.271 406.755V436.576L776.879 451.49L802.478 436.576V406.755L793.837 401.721H794.931L803.039 406.442V436.904L776.879 452.131L750.714 436.904V406.442L758.823 401.721H759.911Z" fill="#FF704D"/>
<path opacity="0.6213" d="M673.347 526.841L660.128 534.544V549.929L660.262 550.013L673.347 557.622L686.567 549.929V534.544L686.422 534.459L673.347 526.841ZM660.68 534.862L673.352 527.482L686.015 534.862V549.616L673.352 556.99L660.68 549.616V534.862Z" fill="#FF704D"/>
<path opacity="0.9916" d="M880.401 406.273L867.182 413.975V429.361L880.401 437.063L893.62 429.361V413.975L880.401 406.273ZM867.744 414.288L880.406 406.914L893.078 414.288V429.043L880.406 436.417L867.744 429.043V414.288Z" fill="#FF704D"/>
<path opacity="0.5075" d="M880.401 421.35L828.369 451.644V512.256L828.503 512.33L880.406 542.549L932.453 512.256V451.644L932.309 451.569L880.401 421.35ZM828.916 451.972L880.401 421.991L931.886 451.972V511.928L880.401 541.908L828.916 511.928V451.972Z" fill="#FF704D"/>
<path opacity="0.6878" d="M725.379 401.721V451.644L776.879 481.624L828.369 451.644V401.721H828.916V451.972L777.013 482.196L776.879 482.265L724.982 452.046L724.837 451.972V401.721H725.379Z" fill="#FF704D"/>
<path opacity="0.8538" d="M880.401 421.35L828.369 451.644V512.256L828.503 512.33L880.406 542.549L932.453 512.256V451.644L932.309 451.569L880.401 421.35ZM828.916 451.972L880.401 421.991L931.886 451.972V511.928L880.401 541.908L828.916 511.928V451.972Z" fill="#FF704D"/>
<path opacity="0.6795" d="M932.448 401.721V451.643L960 467.695V468.341L932.035 452.046L931.891 451.971V401.721H932.448Z" fill="#FF704D"/>
<path opacity="0.6915" d="M184.886 466.885C184.886 465.041 183.414 463.55 181.585 463.55C179.765 463.55 178.284 465.041 178.284 466.885C178.284 468.718 179.765 470.209 181.585 470.209C183.414 470.209 184.886 468.713 184.886 466.885Z" fill="#FF704D"/>
<path opacity="0.5175" d="M107.246 451.818C107.246 449.974 105.764 448.483 103.945 448.483C102.12 448.483 100.639 449.974 100.639 451.818C100.639 453.651 102.12 455.142 103.945 455.142C105.764 455.137 107.246 453.646 107.246 451.818Z" fill="#FF704D"/>
<path opacity="0.7801" d="M210.773 512.087C210.773 510.253 209.291 508.762 207.471 508.762C205.647 508.762 204.17 510.253 204.17 512.087C204.17 513.93 205.647 515.421 207.471 515.421C209.291 515.426 210.773 513.935 210.773 512.087Z" fill="#FF704D"/>
<path opacity="0.8122" d="M107.246 512.087C107.246 510.253 105.764 508.762 103.945 508.762C102.12 508.762 100.639 510.253 100.639 512.087C100.639 513.93 102.12 515.421 103.945 515.421C105.764 515.426 107.246 513.935 107.246 512.087Z" fill="#FF704D"/>
<path opacity="0.9902" d="M314.299 512.087C314.299 510.253 312.818 508.762 310.998 508.762C309.179 508.762 307.697 510.253 307.697 512.087C307.697 513.93 309.179 515.421 310.998 515.421C312.818 515.421 314.299 513.935 314.299 512.087Z" fill="#FF704D"/>
<path opacity="0.7274" d="M366.063 421.668C366.063 419.834 364.581 418.343 362.762 418.343C360.942 418.343 359.461 419.834 359.461 421.668C359.461 423.512 360.942 425.002 362.762 425.002C364.581 425.002 366.063 423.512 366.063 421.668Z" fill="#FF704D"/>
<path opacity="0.9855" d="M262.531 481.952C262.531 480.108 261.064 478.618 259.23 478.618C257.41 478.618 255.929 480.108 255.929 481.952C255.929 483.796 257.41 485.292 259.23 485.292C261.059 485.292 262.531 483.796 262.531 481.952Z" fill="#FF704D"/>
<path opacity="0.8077" d="M275.482 549.775C275.482 547.931 274 546.435 272.166 546.435C270.346 546.435 268.865 547.931 268.865 549.775C268.865 551.619 270.346 553.109 272.166 553.109C274 553.109 275.482 551.619 275.482 549.775Z" fill="#FF704D"/>
<path opacity="0.5432" d="M469.595 481.952C469.595 480.108 468.113 478.618 466.294 478.618C464.459 478.618 462.978 480.108 462.978 481.952C462.978 483.796 464.459 485.292 466.294 485.292C468.113 485.292 469.595 483.796 469.595 481.952Z" fill="#FF704D"/>
<path opacity="0.8535" d="M521.363 512.087C521.363 510.253 519.882 508.762 518.047 508.762C516.228 508.762 514.746 510.253 514.746 512.087C514.746 513.93 516.228 515.421 518.047 515.421C519.882 515.426 521.363 513.935 521.363 512.087Z" fill="#FF704D"/>
<path opacity="0.6091" d="M456.659 429.202C456.659 427.373 455.177 425.877 453.343 425.877C451.523 425.877 450.042 427.373 450.042 429.202C450.042 431.045 451.523 432.536 453.343 432.536C455.177 432.536 456.659 431.045 456.659 429.202Z" fill="#FF704D"/>
<path opacity="0.7656" d="M573.117 481.952C573.117 480.108 571.65 478.618 569.815 478.618C567.996 478.618 566.514 480.108 566.514 481.952C566.514 483.796 567.996 485.292 569.815 485.292C571.65 485.292 573.117 483.796 573.117 481.952Z" fill="#FF704D"/>
<path opacity="0.5656" d="M366.063 421.668C366.063 419.834 364.581 418.343 362.762 418.343C360.942 418.343 359.461 419.834 359.461 421.668C359.461 423.512 360.942 425.002 362.762 425.002C364.581 425.002 366.063 423.512 366.063 421.668Z" fill="#FF704D"/>
<path opacity="0.9473" d="M676.649 512.087C676.649 510.253 675.167 508.762 673.347 508.762C671.528 508.762 670.046 510.253 670.046 512.087C670.046 513.93 671.528 515.421 673.347 515.421C675.167 515.426 676.649 513.935 676.649 512.087Z" fill="#FF704D"/>
<path opacity="0.9003" d="M624.885 512.087C624.885 510.253 623.404 508.762 621.584 508.762C619.764 508.762 618.283 510.253 618.283 512.087C618.283 513.93 619.764 515.421 621.584 515.421C623.404 515.426 624.885 513.935 624.885 512.087Z" fill="#FF704D"/>
<path opacity="0.935" d="M573.117 542.236C573.117 540.393 571.65 538.902 569.815 538.902C567.996 538.902 566.514 540.393 566.514 542.236C566.514 544.07 567.996 545.576 569.815 545.576C571.65 545.576 573.117 544.07 573.117 542.236Z" fill="#FF704D"/>
<path opacity="0.5427" d="M650.772 497.019C650.772 495.186 649.29 493.695 647.471 493.695C645.636 493.695 644.155 495.186 644.155 497.019C644.155 498.863 645.636 500.359 647.471 500.359C649.29 500.359 650.772 498.863 650.772 497.019Z" fill="#FF704D"/>
<path opacity="0.5515" d="M676.649 421.668C676.649 419.834 675.167 418.343 673.347 418.343C671.528 418.343 670.046 419.834 670.046 421.668C670.046 423.512 671.528 425.002 673.347 425.002C675.167 425.002 676.649 423.512 676.649 421.668Z" fill="#FF704D"/>
<path opacity="0.7361" d="M573.117 481.952C573.117 480.108 571.65 478.618 569.815 478.618C567.996 478.618 566.514 480.108 566.514 481.952C566.514 483.796 567.996 485.292 569.815 485.292C571.65 485.292 573.117 483.796 573.117 481.952Z" fill="#FF704D"/>
<path opacity="0.5694" d="M728.417 451.818C728.417 449.974 726.935 448.483 725.116 448.483C723.281 448.483 721.805 449.974 721.805 451.818C721.805 453.651 723.286 455.142 725.116 455.142C726.935 455.137 728.417 453.646 728.417 451.818Z" fill="#FF704D"/>
<path opacity="0.7041" d="M624.885 512.087C624.885 510.253 623.404 508.762 621.584 508.762C619.764 508.762 618.283 510.253 618.283 512.087C618.283 513.93 619.764 515.421 621.584 515.421C623.404 515.426 624.885 513.935 624.885 512.087Z" fill="#FF704D"/>
<path opacity="0.988" d="M780.18 451.818C780.18 449.974 778.699 448.483 776.879 448.483C775.045 448.483 773.568 449.974 773.568 451.818C773.568 453.651 775.05 455.142 776.879 455.142C778.704 455.137 780.18 453.646 780.18 451.818Z" fill="#FF704D"/>
<path opacity="0.74" d="M663.713 534.703C663.713 532.859 662.231 531.363 660.411 531.363C658.577 531.363 657.11 532.859 657.11 534.703C657.11 536.536 658.577 538.027 660.411 538.027C662.231 538.027 663.713 536.536 663.713 534.703Z" fill="#FF704D"/>
<path opacity="0.9974" d="M676.649 527.169C676.649 525.325 675.167 523.834 673.347 523.834C671.528 523.834 670.046 525.325 670.046 527.169C670.046 528.998 671.528 530.493 673.347 530.493C675.167 530.493 676.649 529.003 676.649 527.169Z" fill="#FF704D"/>
<path opacity="0.9965" d="M689.589 549.775C689.589 547.931 688.108 546.435 686.288 546.435C684.469 546.435 682.987 547.931 682.987 549.775C682.987 551.619 684.469 553.109 686.288 553.109C688.108 553.109 689.589 551.619 689.589 549.775Z" fill="#FF704D"/>
<path opacity="0.8656" d="M883.702 436.735C883.702 434.902 882.236 433.411 880.401 433.411C878.581 433.411 877.1 434.902 877.1 436.735C877.1 438.579 878.581 440.07 880.401 440.07C882.236 440.07 883.702 438.579 883.702 436.735Z" fill="#FF704D"/>
<path opacity="0.85" d="M935.471 512.087C935.471 510.253 933.989 508.762 932.17 508.762C930.35 508.762 928.868 510.253 928.868 512.087C928.868 513.93 930.35 515.421 932.17 515.421C933.989 515.426 935.471 513.935 935.471 512.087Z" fill="#FF704D"/>
<path opacity="0.9308" d="M728.417 451.818C728.417 449.974 726.935 448.483 725.116 448.483C723.281 448.483 721.815 449.974 721.815 451.818C721.815 453.651 723.281 455.142 725.116 455.142C726.935 455.137 728.417 453.646 728.417 451.818Z" fill="#FF704D"/>
<path opacity="0.9474" d="M935.471 451.818C935.471 449.974 933.989 448.483 932.17 448.483C930.35 448.483 928.868 449.974 928.868 451.818C928.868 453.651 930.35 455.142 932.17 455.142C933.989 455.137 935.471 453.646 935.471 451.818Z" fill="#FF704D"/>
<path opacity="0.5903" d="M883.702 542.236C883.702 540.393 882.236 538.902 880.401 538.902C878.581 538.902 877.1 540.393 877.1 542.236C877.1 544.07 878.581 545.576 880.401 545.576C882.236 545.576 883.702 544.07 883.702 542.236Z" fill="#FF704D"/>
</g>
<g clip-path="url(#clip2_134_4103)">
<path opacity="0.5653" d="M1660.77 196.586L1673.99 188.893V173.498L1673.85 173.423L1660.78 165.805L1647.56 173.498V188.893L1647.69 188.968L1660.77 196.586ZM1673.43 188.565L1660.78 195.94L1648.1 188.565V173.826L1660.78 166.451L1673.43 173.826V188.565Z" fill="#FF704D"/>
<path opacity="0.901" d="M1764.3 392.51L1790.45 377.274V346.821L1790.31 346.737L1764.3 331.585L1738.14 346.826V377.279L1738.28 377.364L1764.3 392.51ZM1789.9 376.961L1764.3 391.874L1738.69 376.961V347.14L1764.3 332.226L1789.9 347.14V376.961Z" fill="#FF704D"/>
<path opacity="0.8562" d="M1764.3 422.65L1816.33 392.356V331.744L1816.19 331.67L1764.29 301.451L1712.25 331.744V392.356L1712.38 392.431L1764.3 422.65ZM1815.79 392.028L1764.3 422.009L1712.81 392.028V332.072L1764.3 302.092L1815.79 332.072V392.028Z" fill="#FF704D"/>
<path opacity="0.9207" d="M1557.24 241.802L1557.37 241.718L1609.28 211.494V150.897L1609.14 150.812L1557.24 120.588L1557.1 120.673L1505.21 150.897V211.499L1505.34 211.583L1557.24 241.802ZM1608.72 211.181L1557.23 241.161L1505.75 211.181V151.21L1557.23 121.229L1608.72 151.21V211.181Z" fill="#FF704D"/>
<path opacity="0.7779" d="M1660.77 271.942L1686.93 256.716V226.248L1686.78 226.164L1660.77 211.012L1634.61 226.248V256.716L1634.75 256.79L1660.77 271.942ZM1686.37 256.388L1660.77 271.301L1635.16 256.388V226.566L1660.77 211.653L1686.37 226.566V256.388Z" fill="#FF704D"/>
<path opacity="0.6118" d="M1764.3 196.586L1777.51 188.893V173.498L1777.37 173.423L1764.3 165.805L1751.08 173.498V188.893L1751.22 188.968L1764.3 196.586ZM1776.96 188.565L1764.3 195.94L1751.64 188.565V173.826L1764.3 166.451L1776.96 173.826V188.565Z" fill="#FF704D"/>
<path opacity="0.6984" d="M1557.24 211.653L1583.39 196.427V165.964L1583.26 165.89L1557.23 150.738L1531.08 165.964V196.427L1531.21 196.511L1557.24 211.653ZM1582.85 196.099L1557.23 211.012L1531.63 196.099V166.277L1557.23 151.379L1582.85 166.277V196.099Z" fill="#FF704D"/>
<path opacity="0.8157" d="M1557.24 362.376L1557.37 362.291L1609.28 332.072V271.47L1609.14 271.386L1557.24 241.161L1557.1 241.246L1505.21 271.47V332.072L1505.34 332.147L1557.24 362.376ZM1608.72 331.739L1557.23 361.73L1505.75 331.739V271.783L1557.23 241.803L1608.72 271.783V331.739Z" fill="#FF704D"/>
<path opacity="0.5715" d="M1729.49 442.279L1764.02 422.178V301.918L1660.77 241.803L1557.52 301.918V422.178L1592.05 442.279H1590.95L1557.1 422.575L1556.96 422.491V301.605L1660.63 241.246L1660.77 241.161L1764.43 301.52L1764.57 301.605V422.491L1730.59 442.279H1729.49Z" fill="#FF704D"/>
<path opacity="0.5475" d="M1764.02 442.279V422.491L1660.77 362.376L1557.52 422.491V442.279H1556.96V422.178L1660.63 361.804L1660.77 361.735L1764.43 422.093L1764.57 422.178V442.279H1764.02Z" fill="#FF704D"/>
<path opacity="0.8834" d="M1660.77 422.65L1712.8 392.356V331.744L1712.67 331.67L1660.77 301.451L1608.72 331.744V392.356L1608.86 392.431L1660.77 422.65ZM1712.26 392.028L1660.78 422.009L1609.29 392.028V332.072L1660.78 302.092L1712.26 332.072V392.028Z" fill="#FF704D"/>
<path opacity="0.5245" d="M1574.2 442.279L1582.85 437.245V407.424L1557.24 392.51L1531.63 407.424V437.245L1540.28 442.279H1539.18L1531.08 437.558V407.096L1557.24 391.869L1583.39 407.096V437.558L1575.3 442.279H1574.2Z" fill="#FF704D"/>
<path opacity="0.8384" d="M1453.71 91.0946L1479.86 75.8584V45.4007L1479.73 45.3212L1453.71 30.1694L1427.55 45.4007V75.8584L1427.7 75.9428L1453.71 91.0946ZM1479.31 75.5353L1453.71 90.4536L1428.11 75.5353V45.7188L1453.71 30.8105L1479.31 45.7188V75.5353Z" fill="#FF704D"/>
<path opacity="0.6654" d="M1557.24 271.942L1583.39 256.716V226.248L1583.26 226.164L1557.23 211.012L1531.08 226.248V256.716L1531.21 256.79L1557.24 271.942ZM1582.85 256.388L1557.23 271.301L1531.63 256.388V226.566L1557.23 211.653L1582.85 226.566V256.388Z" fill="#FF704D"/>
<path opacity="0.6262" d="M1660.77 196.586L1673.99 188.893V173.498L1673.85 173.423L1660.78 165.805L1647.56 173.498V188.893L1647.69 188.968L1660.77 196.586ZM1673.43 188.565L1660.78 195.94L1648.1 188.565V173.826L1660.78 166.451L1673.43 173.826V188.565Z" fill="#FF704D"/>
<path opacity="0.5193" d="M1660.77 317.159L1673.99 309.456V294.071L1673.85 293.986L1660.78 286.378L1647.56 294.071V309.456L1647.69 309.541L1660.77 317.159ZM1673.43 309.138L1660.78 316.518L1648.1 309.138V294.384L1660.78 287.009L1673.43 294.384V309.138Z" fill="#FF704D"/>
<path opacity="0.9905" d="M1453.71 362.376L1453.85 362.291L1505.75 332.072V271.47L1505.62 271.386L1453.71 241.161L1453.57 241.246L1401.67 271.47V332.072L1401.8 332.147L1453.71 362.376ZM1505.21 331.739L1453.71 361.73L1402.22 331.739V271.783L1453.71 241.803L1505.21 271.783V331.739Z" fill="#FF704D"/>
<path opacity="0.517" d="M1453.71 437.727L1466.93 430.025V414.639L1453.71 406.937L1440.5 414.639V430.025L1453.71 437.727ZM1466.38 429.712L1453.71 437.086L1441.05 429.712V414.957L1453.71 407.583L1466.38 414.957V429.712Z" fill="#FF704D"/>
<path opacity="0.6479" d="M1505.21 442.279V392.356L1453.71 362.376L1402.22 392.356V442.279H1401.67V392.028L1453.57 361.804L1453.71 361.735L1505.62 391.954L1505.75 392.028V442.279H1505.21Z" fill="#FF704D"/>
<path opacity="0.9857" d="M1350.18 91.0946L1376.34 75.8584V45.4007L1376.2 45.3212L1350.18 30.1694L1324.03 45.4007V75.8584L1324.16 75.9428L1350.18 91.0946ZM1375.79 75.5353L1350.18 90.4536L1324.57 75.5353V45.7188L1350.18 30.8105L1375.79 45.7188V75.5353Z" fill="#FF704D"/>
<path opacity="0.7696" d="M1350.18 362.376L1350.32 362.291L1402.22 332.072V271.47L1402.09 271.386L1350.19 241.161L1350.05 241.246L1298.15 271.47V332.072L1298.29 332.147L1350.18 362.376ZM1401.67 331.739L1350.18 361.73L1298.69 331.739V271.783L1350.18 241.803L1401.67 271.783V331.739Z" fill="#FF704D"/>
<path opacity="0.8062" d="M1522.43 442.279L1556.96 422.178V301.918L1453.71 241.803L1350.45 301.918V422.178L1384.99 442.279H1383.89L1350.04 422.575L1349.91 422.491V301.605L1453.57 241.246L1453.71 241.161L1557.37 301.52L1557.52 301.605V422.491L1523.53 442.279H1522.43Z" fill="#FF704D"/>
<path opacity="0.9977" d="M1350.18 437.727L1363.4 430.025V414.639L1350.18 406.937L1336.97 414.639V430.025L1350.18 437.727ZM1362.84 429.712L1350.18 437.086L1337.51 429.712V414.957L1350.18 407.583L1362.84 414.957V429.712Z" fill="#FF704D"/>
<path opacity="0.6323" d="M1608.72 442.279V392.356L1557.24 362.376L1505.75 392.356V442.279H1505.21V392.028L1557.1 361.804L1557.24 361.735L1609.14 391.954L1609.27 392.028V442.279H1608.72Z" fill="#FF704D"/>
<path opacity="0.5774" d="M1557.24 437.727L1570.46 430.025V414.639L1557.24 406.937L1544.02 414.639V430.025L1557.24 437.727ZM1569.91 429.712L1557.24 437.086L1544.57 429.712V414.957L1557.24 407.583L1569.91 414.957V429.712Z" fill="#FF704D"/>
<path opacity="0.6004" d="M1608.72 442.279V392.356L1557.24 362.376L1505.75 392.356V442.279H1505.21V392.028L1557.1 361.804L1557.24 361.735L1609.14 391.954L1609.27 392.028V442.279H1608.72Z" fill="#FF704D"/>
<path opacity="0.6198" d="M1453.71 76.0174L1466.93 68.3198V52.9295L1466.79 52.8499L1453.71 45.2318L1440.5 52.9295V68.3198L1440.64 68.4043L1453.71 76.0174ZM1466.38 68.0017L1453.71 75.3764L1441.05 68.0017V53.2524L1453.71 45.8778L1466.38 53.2524V68.0017Z" fill="#FF704D"/>
<path opacity="0.9164" d="M1453.71 196.586L1466.93 188.893V173.498L1466.79 173.423L1453.71 165.805L1440.5 173.498V188.893L1440.64 188.968L1453.71 196.586ZM1466.38 188.565L1453.71 195.94L1441.05 188.565V173.826L1453.71 166.451L1466.38 173.826V188.565Z" fill="#FF704D"/>
<path opacity="0.5577" d="M1453.71 362.376L1453.85 362.291L1505.75 332.072V271.47L1505.62 271.386L1453.71 241.161L1453.57 241.246L1401.67 271.47V332.072L1401.8 332.147L1453.71 362.376ZM1505.21 331.739L1453.71 361.73L1402.22 331.739V271.783L1453.71 241.803L1505.21 271.783V331.739Z" fill="#FF704D"/>
<path opacity="0.6643" d="M1246.65 332.226L1272.81 317V286.537L1272.67 286.453L1246.65 271.301L1220.5 286.542V317.005L1220.63 317.079L1246.65 332.226ZM1272.26 316.672L1246.65 331.585L1221.04 316.672V286.85L1246.65 271.937L1272.26 286.85V316.672Z" fill="#FF704D"/>
<path opacity="0.9482" d="M1350.18 422.65L1402.22 392.356V331.744L1402.08 331.67L1350.18 301.451L1298.14 331.744V392.356L1298.28 392.431L1350.18 422.65ZM1401.67 392.028L1350.18 422.009L1298.69 392.028V332.072L1350.18 302.092L1401.67 332.072V392.028Z" fill="#FF704D"/>
<path opacity="0.8287" d="M1246.65 362.376L1246.79 362.291L1350.45 301.923V181.031L1350.32 180.957L1246.65 120.583L1246.52 120.668L1142.85 181.026V301.913L1142.99 301.997L1246.65 362.376ZM1349.91 301.605L1246.65 361.73L1143.4 301.605V181.359L1246.65 121.234L1349.91 181.359V301.605Z" fill="#FF704D"/>
<path opacity="0.9627" d="M1350.18 196.586L1363.4 188.893V173.498L1363.25 173.423L1350.18 165.805L1336.97 173.498V188.893L1337.1 188.968L1350.18 196.586ZM1362.84 188.565L1350.18 195.94L1337.51 188.565V173.826L1350.18 166.451L1362.84 173.826V188.565Z" fill="#FF704D"/>
<path opacity="0.6877" d="M1143.12 241.802L1143.26 241.718L1195.17 211.494V150.897L1195.03 150.812L1143.12 120.588L1142.99 120.673L1091.08 150.897V211.499L1091.22 211.583L1143.12 241.802ZM1194.62 211.181L1143.12 241.161L1091.64 211.181V151.21L1143.12 121.229L1194.62 151.21V211.181Z" fill="#FF704D"/>
<path opacity="0.5544" d="M1246.65 392.51L1272.81 377.274V346.821L1272.67 346.737L1246.65 331.585L1220.5 346.826V377.279L1220.63 377.364L1246.65 392.51ZM1272.26 376.961L1246.65 391.874L1221.04 376.961V347.14L1246.65 332.226L1272.26 347.14V376.961Z" fill="#FF704D"/>
<path opacity="0.8016" d="M1246.65 302.092L1246.79 302.007L1298.7 271.788V211.186L1298.56 211.101L1246.65 180.877L1246.52 180.962L1194.62 211.181V271.783L1194.75 271.868L1246.65 302.092ZM1298.14 271.47L1246.65 301.451L1195.17 271.47V211.499L1246.65 181.518L1298.14 211.499V271.47Z" fill="#FF704D"/>
<path opacity="0.7569" d="M1401.67 442.279V392.356L1350.18 362.376L1298.69 392.356V442.279H1298.14V392.028L1350.04 361.804L1350.18 361.735L1402.08 391.954L1402.22 392.028V442.279H1401.67Z" fill="#FF704D"/>
<path opacity="0.9339" d="M1246.65 422.65L1298.7 392.356V331.744L1298.56 331.67L1246.65 301.451L1194.62 331.744V392.356L1194.75 392.431L1246.65 422.65ZM1298.14 392.028L1246.65 422.009L1195.17 392.028V332.072L1246.65 302.092L1298.14 332.072V392.028Z" fill="#FF704D"/>
<path opacity="0.6722" d="M1160.09 442.279L1168.73 437.245V407.424L1143.12 392.51L1117.52 407.424V437.245L1126.16 442.279H1125.07L1116.96 437.558V407.096L1143.12 391.869L1169.29 407.096V437.558L1161.18 442.279H1160.09Z" fill="#FF704D"/>
<path opacity="0.7115" d="M1246.65 76.0174L1259.87 68.3198V52.9295L1259.74 52.8499L1246.65 45.2318L1233.43 52.9295V68.3198L1233.58 68.4043L1246.65 76.0174ZM1259.32 68.0017L1246.65 75.3764L1233.99 68.0017V53.2524L1246.65 45.8778L1259.32 53.2524V68.0017Z" fill="#FF704D"/>
<path opacity="0.6307" d="M1246.65 121.234L1246.79 121.15L1298.7 90.9257V30.3235L1298.56 30.244L1246.65 0.0198975L1246.52 0.0994253L1194.62 30.3235V90.9257L1194.75 91.0102L1246.65 121.234ZM1298.14 90.6126L1246.65 120.588L1195.17 90.6126V30.6465L1246.65 0.665947L1298.14 30.6465V90.6126Z" fill="#FF704D"/>
<path opacity="0.9278" d="M1039.6 121.234L1039.73 121.15L1091.64 90.9257V30.3235L1091.5 30.244L1039.6 0.0198975L987.552 30.3185V90.9207L987.696 91.0052L1039.6 121.234ZM1091.08 90.6126L1039.6 120.588L988.114 90.6126V30.6465L1039.6 0.665947L1091.08 30.6465V90.6126Z" fill="#FF704D"/>
<path opacity="0.6392" d="M1039.6 241.802L1091.63 211.494V150.897L1091.5 150.812L1039.59 120.588L987.547 150.897V211.499L987.691 211.583L1039.6 241.802ZM1091.08 211.181L1039.6 241.161L988.114 211.181V151.21L1039.6 121.229L1091.08 151.21V211.181Z" fill="#FF704D"/>
<path opacity="0.8937" d="M1143.12 362.376L1143.26 362.291L1246.93 301.923V181.031L1246.79 180.957L1143.12 120.583L1142.99 120.668L1039.32 181.026V301.913L1039.45 301.997L1143.12 362.376ZM1246.37 301.605L1143.12 361.73L1039.86 301.605V181.359L1143.12 121.234L1246.37 181.359V301.605Z" fill="#FF704D"/>
<path opacity="0.6526" d="M1246.65 196.586L1259.87 188.893V173.498L1259.74 173.423L1246.65 165.805L1233.43 173.498V188.893L1233.58 188.968L1246.65 196.586ZM1259.32 188.565L1246.65 195.94L1233.99 188.565V173.826L1246.65 166.451L1259.32 173.826V188.565Z" fill="#FF704D"/>
<path opacity="0.6213" d="M1246.65 317.159L1259.87 309.456V294.071L1259.74 293.986L1246.65 286.378L1233.43 294.071V309.456L1233.58 309.541L1246.65 317.159ZM1259.32 309.138L1246.65 316.518L1233.99 309.138V294.384L1246.65 287.009L1259.32 294.384V309.138Z" fill="#FF704D"/>
<path opacity="0.9916" d="M1039.6 437.727L1052.82 430.025V414.639L1039.6 406.937L1026.38 414.639V430.025L1039.6 437.727ZM1052.26 429.712L1039.59 437.086L1026.92 429.712V414.957L1039.59 407.583L1052.26 414.957V429.712Z" fill="#FF704D"/>
<path opacity="0.5206" d="M1143.12 196.586L1156.34 188.893V173.498L1156.21 173.423L1143.12 165.805L1129.92 173.498V188.893L1130.05 188.968L1143.12 196.586ZM1155.79 188.565L1143.12 195.94L1130.45 188.565V173.826L1143.12 166.451L1155.79 173.826V188.565Z" fill="#FF704D"/>
<path opacity="0.5092" d="M1143.12 241.802L1143.26 241.718L1195.17 211.494V150.897L1195.03 150.812L1143.12 120.588L1142.99 120.673L1091.08 150.897V211.499L1091.22 211.583L1143.12 241.802ZM1194.62 211.181L1143.12 241.161L1091.64 211.181V151.21L1143.12 121.229L1194.62 151.21V211.181Z" fill="#FF704D"/>
<path opacity="0.6455" d="M960 347.791L987.552 331.739V271.783L960 255.732V255.101L987.965 271.381L988.109 271.47V332.067L960 348.437V347.791Z" fill="#FF704D"/>
<path opacity="0.5075" d="M1039.6 422.65L1091.63 392.356V331.744L1091.5 331.67L1039.59 301.451L987.547 331.744V392.356L987.691 392.431L1039.6 422.65ZM1091.08 392.028L1039.6 422.009L988.114 392.028V332.072L1039.6 302.092L1091.08 332.072V392.028Z" fill="#FF704D"/>
<path opacity="0.6536" d="M960 317.641L961.675 316.672V286.85L960 285.881V285.235L962.088 286.453L962.222 286.537V317L960 318.287V317.641Z" fill="#FF704D"/>
<path opacity="0.6878" d="M1194.62 442.279V392.356L1143.12 362.376L1091.63 392.356V442.279H1091.08V392.028L1142.99 361.804L1143.12 361.735L1195.02 391.954L1195.16 392.028V442.279H1194.62Z" fill="#FF704D"/>
<path opacity="0.8538" d="M1039.6 422.65L1091.63 392.356V331.744L1091.5 331.67L1039.59 301.451L987.547 331.744V392.356L987.691 392.431L1039.6 422.65ZM1091.08 392.028L1039.6 422.009L988.114 392.028V332.072L1039.6 302.092L1091.08 332.072V392.028Z" fill="#FF704D"/>
<path opacity="0.811" d="M960 347.79L1039.32 301.605V181.359L960 135.173V134.527L1039.73 180.962L1039.87 181.031V301.918L960 348.437V347.79Z" fill="#FF704D"/>
<path opacity="0.6353" d="M1004.79 442.279L1039.32 422.178V301.918L960 255.732V255.101L1039.73 301.52L1039.87 301.605V422.491L1005.89 442.279H1004.79Z" fill="#FF704D"/>
<path opacity="0.9972" d="M960 287.506L987.552 271.47V211.494L960 195.458V194.817L987.965 211.096L988.109 211.181V271.783L960 288.147V287.506Z" fill="#FF704D"/>
<path opacity="0.8543" d="M960 106.664L987.552 90.6126V30.6465L960 14.6002V13.9641L987.965 30.244L988.109 30.3235V90.9257L960 107.29V106.664Z" fill="#FF704D"/>
<path opacity="0.6795" d="M987.552 442.279V392.356L960 376.305V375.659L987.965 391.954L988.109 392.028V442.279H987.552Z" fill="#FF704D"/>
<path opacity="0.8144" d="M1670.41 188.734C1670.41 190.568 1671.89 192.059 1673.71 192.059C1675.53 192.059 1677.01 190.568 1677.01 188.734C1677.01 186.89 1675.53 185.4 1673.71 185.4C1671.89 185.4 1670.41 186.895 1670.41 188.734Z" fill="#FF704D"/>
<path opacity="0.728" d="M1657.47 196.273C1657.47 198.106 1658.94 199.597 1660.77 199.597C1662.59 199.597 1664.07 198.106 1664.07 196.273C1664.07 194.429 1662.59 192.938 1660.77 192.938C1658.94 192.933 1657.47 194.424 1657.47 196.273Z" fill="#FF704D"/>
<path opacity="0.7587" d="M1644.52 188.734C1644.52 190.568 1646 192.059 1647.83 192.059C1649.65 192.059 1651.14 190.568 1651.14 188.734C1651.14 186.89 1649.65 185.4 1647.83 185.4C1646 185.4 1644.52 186.895 1644.52 188.734Z" fill="#FF704D"/>
<path opacity="0.6915" d="M1735.11 377.115C1735.11 378.959 1736.59 380.45 1738.42 380.45C1740.23 380.45 1741.72 378.959 1741.72 377.115C1741.72 375.281 1740.23 373.791 1738.42 373.791C1736.59 373.791 1735.11 375.286 1735.11 377.115Z" fill="#FF704D"/>
<path opacity="0.5175" d="M1812.75 392.182C1812.75 394.026 1814.24 395.517 1816.06 395.517C1817.88 395.517 1819.36 394.026 1819.36 392.182C1819.36 390.349 1817.88 388.858 1816.06 388.858C1814.24 388.863 1812.75 390.354 1812.75 392.182Z" fill="#FF704D"/>
<path opacity="0.7801" d="M1709.23 331.913C1709.23 333.747 1710.71 335.238 1712.53 335.238C1714.35 335.238 1715.83 333.747 1715.83 331.913C1715.83 330.069 1714.35 328.579 1712.53 328.579C1710.71 328.574 1709.23 330.065 1709.23 331.913Z" fill="#FF704D"/>
<path opacity="0.8122" d="M1812.75 331.913C1812.75 333.747 1814.24 335.238 1816.06 335.238C1817.88 335.238 1819.36 333.747 1819.36 331.913C1819.36 330.069 1817.88 328.579 1816.06 328.579C1814.24 328.574 1812.75 330.065 1812.75 331.913Z" fill="#FF704D"/>
<path opacity="0.7332" d="M1760.99 181.19C1760.99 183.034 1762.47 184.525 1764.3 184.525C1766.12 184.525 1767.6 183.034 1767.6 181.19C1767.6 179.357 1766.12 177.866 1764.3 177.866C1762.47 177.866 1760.99 179.357 1760.99 181.19Z" fill="#FF704D"/>
<path opacity="0.9423" d="M1657.47 271.624C1657.47 273.453 1658.94 274.949 1660.77 274.949C1662.59 274.949 1664.07 273.453 1664.07 271.624C1664.07 269.78 1662.59 268.285 1660.77 268.285C1658.94 268.29 1657.47 269.78 1657.47 271.624Z" fill="#FF704D"/>
<path opacity="0.8348" d="M1631.58 226.407C1631.58 228.251 1633.06 229.742 1634.88 229.742C1636.72 229.742 1638.2 228.251 1638.2 226.407C1638.2 224.578 1636.72 223.073 1634.88 223.073C1633.06 223.073 1631.58 224.578 1631.58 226.407Z" fill="#FF704D"/>
<path opacity="0.6404" d="M1683.35 226.407C1683.35 228.251 1684.83 229.742 1686.65 229.742C1688.47 229.742 1689.95 228.251 1689.95 226.407C1689.95 224.578 1688.47 223.073 1686.65 223.073C1684.83 223.073 1683.35 224.578 1683.35 226.407Z" fill="#FF704D"/>
<path opacity="0.8945" d="M1579.81 196.273C1579.81 198.106 1581.3 199.597 1583.12 199.597C1584.95 199.597 1586.43 198.106 1586.43 196.273C1586.43 194.429 1584.95 192.938 1583.12 192.938C1581.3 192.933 1579.81 194.424 1579.81 196.273Z" fill="#FF704D"/>
<path opacity="0.8456" d="M1553.94 211.34C1553.94 213.184 1555.42 214.664 1557.24 214.664C1559.06 214.664 1560.54 213.184 1560.54 211.34C1560.54 209.496 1559.06 208.005 1557.24 208.005C1555.42 208 1553.94 209.496 1553.94 211.34Z" fill="#FF704D"/>
<path opacity="0.9902" d="M1605.7 331.913C1605.7 333.747 1607.18 335.238 1609 335.238C1610.82 335.238 1612.3 333.747 1612.3 331.913C1612.3 330.069 1610.82 328.579 1609 328.579C1607.18 328.579 1605.7 330.065 1605.7 331.913Z" fill="#FF704D"/>
<path opacity="0.7274" d="M1553.94 422.332C1553.94 424.166 1555.42 425.656 1557.24 425.656C1559.06 425.656 1560.54 424.166 1560.54 422.332C1560.54 420.488 1559.06 418.997 1557.24 418.997C1555.42 418.997 1553.94 420.488 1553.94 422.332Z" fill="#FF704D"/>
<path opacity="0.9855" d="M1657.47 362.048C1657.47 363.891 1658.94 365.382 1660.77 365.382C1662.59 365.382 1664.07 363.891 1664.07 362.048C1664.07 360.204 1662.59 358.708 1660.77 358.708C1658.94 358.708 1657.47 360.204 1657.47 362.048Z" fill="#FF704D"/>
<path opacity="0.5344" d="M1528.05 256.542C1528.05 258.385 1529.53 259.876 1531.36 259.876C1533.18 259.876 1534.66 258.38 1534.66 256.542C1534.66 254.708 1533.18 253.217 1531.36 253.217C1529.53 253.222 1528.05 254.713 1528.05 256.542Z" fill="#FF704D"/>
<path opacity="0.9922" d="M1579.81 226.407C1579.81 228.251 1581.3 229.742 1583.12 229.742C1584.95 229.742 1586.43 228.251 1586.43 226.407C1586.43 224.578 1584.95 223.073 1583.12 223.073C1581.3 223.073 1579.81 224.578 1579.81 226.407Z" fill="#FF704D"/>
<path opacity="0.6301" d="M1670.41 188.734C1670.41 190.568 1671.89 192.059 1673.71 192.059C1675.53 192.059 1677.01 190.568 1677.01 188.734C1677.01 186.89 1675.53 185.4 1673.71 185.4C1671.89 185.4 1670.41 186.895 1670.41 188.734Z" fill="#FF704D"/>
<path opacity="0.8077" d="M1644.52 294.225C1644.52 296.069 1646 297.564 1647.83 297.564C1649.65 297.564 1651.14 296.069 1651.14 294.225C1651.14 292.381 1649.65 290.891 1647.83 290.891C1646 290.891 1644.52 292.381 1644.52 294.225Z" fill="#FF704D"/>
<path opacity="0.7663" d="M1502.17 331.913C1502.17 333.747 1503.65 335.238 1505.47 335.238C1507.3 335.238 1508.77 333.747 1508.77 331.913C1508.77 330.069 1507.3 328.579 1505.47 328.579C1503.65 328.574 1502.17 330.065 1502.17 331.913Z" fill="#FF704D"/>
<path opacity="0.5432" d="M1450.41 362.048C1450.41 363.891 1451.89 365.382 1453.71 365.382C1455.54 365.382 1457.02 363.891 1457.02 362.048C1457.02 360.204 1455.54 358.708 1453.71 358.708C1451.89 358.708 1450.41 360.204 1450.41 362.048Z" fill="#FF704D"/>
<path opacity="0.8535" d="M1398.64 331.913C1398.64 333.747 1400.12 335.238 1401.95 335.238C1403.77 335.238 1405.25 333.747 1405.25 331.913C1405.25 330.069 1403.77 328.579 1401.95 328.579C1400.12 328.574 1398.64 330.065 1398.64 331.913Z" fill="#FF704D"/>
<path opacity="0.5589" d="M1398.64 271.624C1398.64 273.453 1400.12 274.949 1401.95 274.949C1403.77 274.949 1405.25 273.453 1405.25 271.624C1405.25 269.78 1403.77 268.285 1401.95 268.285C1400.12 268.29 1398.64 269.78 1398.64 271.624Z" fill="#FF704D"/>
<path opacity="0.8499" d="M1450.41 241.474C1450.41 243.318 1451.89 244.809 1453.71 244.809C1455.54 244.809 1457.02 243.318 1457.02 241.474C1457.02 239.646 1455.54 238.15 1453.71 238.15C1451.89 238.15 1450.41 239.646 1450.41 241.474Z" fill="#FF704D"/>
<path opacity="0.6091" d="M1463.34 414.798C1463.34 416.627 1464.82 418.123 1466.66 418.123C1468.48 418.123 1469.96 416.627 1469.96 414.798C1469.96 412.955 1468.48 411.464 1466.66 411.464C1464.82 411.464 1463.34 412.955 1463.34 414.798Z" fill="#FF704D"/>
<path opacity="0.5784" d="M1346.88 30.4875C1346.88 32.3261 1348.35 33.817 1350.18 33.817C1352 33.817 1353.49 32.3261 1353.49 30.4875C1353.49 28.6488 1352 27.158 1350.18 27.158C1348.35 27.158 1346.88 28.6488 1346.88 30.4875Z" fill="#FF704D"/>
<path opacity="0.7656" d="M1346.88 362.048C1346.88 363.891 1348.35 365.382 1350.18 365.382C1352 365.382 1353.49 363.891 1353.49 362.048C1353.49 360.204 1352 358.708 1350.18 358.708C1348.35 358.708 1346.88 360.204 1346.88 362.048Z" fill="#FF704D"/>
<path opacity="0.5656" d="M1553.94 422.332C1553.94 424.166 1555.42 425.656 1557.24 425.656C1559.06 425.656 1560.54 424.166 1560.54 422.332C1560.54 420.488 1559.06 418.997 1557.24 418.997C1555.42 418.997 1553.94 420.488 1553.94 422.332Z" fill="#FF704D"/>
<path opacity="0.9016" d="M1463.34 68.1657C1463.34 70.0044 1464.82 71.4952 1466.66 71.4952C1468.48 71.4952 1469.96 70.0044 1469.96 68.1657C1469.96 66.327 1468.48 64.8362 1466.66 64.8362C1464.82 64.8362 1463.34 66.327 1463.34 68.1657Z" fill="#FF704D"/>
<path opacity="0.6844" d="M1450.41 166.123C1450.41 167.967 1451.89 169.458 1453.71 169.458C1455.54 169.458 1457.02 167.967 1457.02 166.123C1457.02 164.289 1455.54 162.799 1453.71 162.799C1451.89 162.799 1450.41 164.289 1450.41 166.123Z" fill="#FF704D"/>
<path opacity="0.9473" d="M1243.35 331.913C1243.35 333.747 1244.83 335.238 1246.65 335.238C1248.47 335.238 1249.95 333.747 1249.95 331.913C1249.95 330.069 1248.47 328.579 1246.65 328.579C1244.83 328.574 1243.35 330.065 1243.35 331.913Z" fill="#FF704D"/>
<path opacity="0.9003" d="M1295.12 331.913C1295.12 333.747 1296.6 335.238 1298.42 335.238C1300.24 335.238 1301.72 333.747 1301.72 331.913C1301.72 330.069 1300.24 328.579 1298.42 328.579C1296.6 328.574 1295.12 330.065 1295.12 331.913Z" fill="#FF704D"/>
<path opacity="0.935" d="M1346.88 301.764C1346.88 303.607 1348.35 305.098 1350.18 305.098C1352 305.098 1353.49 303.607 1353.49 301.764C1353.49 299.93 1352 298.424 1350.18 298.424C1348.35 298.424 1346.88 299.93 1346.88 301.764Z" fill="#FF704D"/>
<path opacity="0.5725" d="M1346.88 181.19C1346.88 183.034 1348.35 184.525 1350.18 184.525C1352 184.525 1353.49 183.034 1353.49 181.19C1353.49 179.357 1352 177.866 1350.18 177.866C1348.35 177.866 1346.88 179.357 1346.88 181.19Z" fill="#FF704D"/>
<path opacity="0.7228" d="M1333.93 188.734C1333.93 190.568 1335.41 192.059 1337.25 192.059C1339.07 192.059 1340.55 190.568 1340.55 188.734C1340.55 186.89 1339.07 185.4 1337.25 185.4C1335.41 185.4 1333.93 186.895 1333.93 188.734Z" fill="#FF704D"/>
<path opacity="0.7894" d="M1139.82 120.916C1139.82 122.75 1141.3 124.241 1143.12 124.241C1144.96 124.241 1146.43 122.75 1146.43 120.916C1146.43 119.073 1144.95 117.582 1143.12 117.582C1141.3 117.582 1139.82 119.073 1139.82 120.916Z" fill="#FF704D"/>
<path opacity="0.8898" d="M1191.58 151.056C1191.58 152.899 1193.06 154.39 1194.88 154.39C1196.72 154.39 1198.19 152.899 1198.19 151.056C1198.19 149.212 1196.72 147.716 1194.88 147.716C1193.06 147.716 1191.58 149.212 1191.58 151.056Z" fill="#FF704D"/>
<path opacity="0.5427" d="M1269.23 346.98C1269.23 348.814 1270.71 350.305 1272.53 350.305C1274.36 350.305 1275.85 348.814 1275.85 346.98C1275.85 345.137 1274.36 343.641 1272.53 343.641C1270.71 343.641 1269.23 345.137 1269.23 346.98Z" fill="#FF704D"/>
<path opacity="0.8321" d="M1191.58 271.624C1191.58 273.453 1193.06 274.949 1194.88 274.949C1196.72 274.949 1198.19 273.453 1198.19 271.624C1198.19 269.78 1196.72 268.285 1194.88 268.285C1193.06 268.29 1191.58 269.78 1191.58 271.624Z" fill="#FF704D"/>
<path opacity="0.5515" d="M1243.35 422.332C1243.35 424.166 1244.83 425.656 1246.65 425.656C1248.47 425.656 1249.95 424.166 1249.95 422.332C1249.95 420.488 1248.47 418.997 1246.65 418.997C1244.83 418.997 1243.35 420.488 1243.35 422.332Z" fill="#FF704D"/>
<path opacity="0.7361" d="M1346.88 362.048C1346.88 363.891 1348.35 365.382 1350.18 365.382C1352 365.382 1353.49 363.891 1353.49 362.048C1353.49 360.204 1352 358.708 1350.18 358.708C1348.35 358.708 1346.88 360.204 1346.88 362.048Z" fill="#FF704D"/>
<path opacity="0.5694" d="M1191.58 392.182C1191.58 394.026 1193.06 395.517 1194.88 395.517C1196.72 395.517 1198.2 394.026 1198.2 392.182C1198.2 390.349 1196.71 388.858 1194.88 388.858C1193.06 388.863 1191.58 390.354 1191.58 392.182Z" fill="#FF704D"/>
<path opacity="0.7041" d="M1295.12 331.913C1295.12 333.747 1296.6 335.238 1298.42 335.238C1300.24 335.238 1301.72 333.747 1301.72 331.913C1301.72 330.069 1300.24 328.579 1298.42 328.579C1296.6 328.574 1295.12 330.065 1295.12 331.913Z" fill="#FF704D"/>
<path opacity="0.988" d="M1139.82 392.182C1139.82 394.026 1141.3 395.517 1143.12 395.517C1144.96 395.517 1146.43 394.026 1146.43 392.182C1146.43 390.349 1144.95 388.858 1143.12 388.858C1141.3 388.863 1139.82 390.354 1139.82 392.182Z" fill="#FF704D"/>
<path opacity="0.5764" d="M1246.65 48.8843C1244.83 48.8843 1243.35 47.3936 1243.35 45.5548C1243.35 43.716 1244.83 42.2253 1246.65 42.2253C1248.48 42.2253 1249.95 43.716 1249.95 45.5548C1249.95 47.3936 1248.48 48.8843 1246.65 48.8843Z" fill="#FF704D"/>
<path opacity="0.6501" d="M1295.12 90.7667C1295.12 92.6103 1296.6 94.1012 1298.42 94.1012C1300.24 94.1012 1301.72 92.6103 1301.72 90.7667C1301.72 88.933 1300.24 87.4421 1298.42 87.4421C1296.6 87.4421 1295.12 88.9379 1295.12 90.7667Z" fill="#FF704D"/>
<path opacity="0.6553" d="M1088.05 90.7667C1088.05 92.6103 1089.53 94.1012 1091.37 94.1012C1093.19 94.1012 1094.67 92.6103 1094.67 90.7667C1094.67 88.933 1093.19 87.4421 1091.37 87.4421C1089.53 87.4421 1088.05 88.9379 1088.05 90.7667Z" fill="#FF704D"/>
<path opacity="0.6531" d="M1036.3 241.474C1036.3 243.318 1037.76 244.809 1039.6 244.809C1041.42 244.809 1042.9 243.318 1042.9 241.474C1042.9 239.646 1041.42 238.15 1039.6 238.15C1037.76 238.15 1036.3 239.646 1036.3 241.474Z" fill="#FF704D"/>
<path opacity="0.7985" d="M984.529 211.34C984.529 213.184 986.011 214.664 987.83 214.664C989.65 214.664 991.132 213.184 991.132 211.34C991.132 209.496 989.65 208.005 987.83 208.005C986.011 208 984.529 209.496 984.529 211.34Z" fill="#FF704D"/>
<path opacity="0.8668" d="M1256.29 188.734C1256.29 190.568 1257.77 192.059 1259.59 192.059C1261.42 192.059 1262.89 190.568 1262.89 188.734C1262.89 186.89 1261.42 185.4 1259.59 185.4C1257.77 185.4 1256.29 186.895 1256.29 188.734Z" fill="#FF704D"/>
<path opacity="0.8785" d="M1243.35 166.123C1243.35 167.967 1244.83 169.458 1246.65 169.458C1248.47 169.458 1249.95 167.967 1249.95 166.123C1249.95 164.289 1248.47 162.799 1246.65 162.799C1244.83 162.799 1243.35 164.289 1243.35 166.123Z" fill="#FF704D"/>
<path opacity="0.74" d="M1256.29 309.297C1256.29 311.141 1257.77 312.637 1259.59 312.637C1261.42 312.637 1262.89 311.141 1262.89 309.297C1262.89 307.464 1261.42 305.973 1259.59 305.973C1257.77 305.973 1256.29 307.464 1256.29 309.297Z" fill="#FF704D"/>
<path opacity="0.9974" d="M1243.35 316.831C1243.35 318.675 1244.83 320.165 1246.65 320.165C1248.47 320.165 1249.95 318.675 1249.95 316.831C1249.95 315.002 1248.47 313.506 1246.65 313.506C1244.83 313.506 1243.35 314.997 1243.35 316.831Z" fill="#FF704D"/>
<path opacity="0.9965" d="M1230.41 294.225C1230.41 296.069 1231.89 297.564 1233.71 297.564C1235.53 297.564 1237.01 296.069 1237.01 294.225C1237.01 292.381 1235.53 290.891 1233.71 290.891C1231.89 290.891 1230.41 292.381 1230.41 294.225Z" fill="#FF704D"/>
<path opacity="0.5958" d="M1256.29 294.225C1256.29 296.069 1257.77 297.564 1259.59 297.564C1261.42 297.564 1262.89 296.069 1262.89 294.225C1262.89 292.381 1261.42 290.891 1259.59 290.891C1257.77 290.891 1256.29 292.381 1256.29 294.225Z" fill="#FF704D"/>
<path opacity="0.8656" d="M1036.3 407.265C1036.3 409.098 1037.76 410.589 1039.6 410.589C1041.42 410.589 1042.9 409.098 1042.9 407.265C1042.9 405.421 1041.42 403.93 1039.6 403.93C1037.76 403.93 1036.3 405.421 1036.3 407.265Z" fill="#FF704D"/>
<path opacity="0.6714" d="M1126.88 188.734C1126.88 190.568 1128.36 192.059 1130.18 192.059C1132.01 192.059 1133.48 190.568 1133.48 188.734C1133.48 186.89 1132.01 185.4 1130.18 185.4C1128.36 185.4 1126.88 186.895 1126.88 188.734Z" fill="#FF704D"/>
<path opacity="0.9386" d="M1152.76 173.657C1152.76 175.5 1154.24 176.991 1156.07 176.991C1157.89 176.991 1159.37 175.5 1159.37 173.657C1159.37 171.828 1157.89 170.332 1156.07 170.332C1154.24 170.332 1152.76 171.823 1152.76 173.657Z" fill="#FF704D"/>
<path opacity="0.8257" d="M1088.05 151.056C1088.05 152.899 1089.53 154.39 1091.37 154.39C1093.19 154.39 1094.67 152.899 1094.67 151.056C1094.67 149.212 1093.19 147.716 1091.37 147.716C1089.53 147.716 1088.05 149.212 1088.05 151.056Z" fill="#FF704D"/>
<path opacity="0.8822" d="M1139.82 120.916C1139.82 122.75 1141.3 124.241 1143.12 124.241C1144.96 124.241 1146.43 122.75 1146.43 120.916C1146.43 119.073 1144.95 117.582 1143.12 117.582C1141.3 117.582 1139.82 119.073 1139.82 120.916Z" fill="#FF704D"/>
<path opacity="0.7249" d="M1191.58 151.056C1191.58 152.899 1193.06 154.39 1194.88 154.39C1196.72 154.39 1198.19 152.899 1198.19 151.056C1198.19 149.212 1196.72 147.716 1194.88 147.716C1193.06 147.716 1191.58 149.212 1191.58 151.056Z" fill="#FF704D"/>
<path opacity="0.85" d="M984.529 331.913C984.529 333.747 986.011 335.238 987.83 335.238C989.65 335.238 991.132 333.747 991.132 331.913C991.132 330.069 989.65 328.579 987.83 328.579C986.011 328.574 984.529 330.065 984.529 331.913Z" fill="#FF704D"/>
<path opacity="0.7173" d="M984.529 271.624C984.529 273.453 986.011 274.949 987.83 274.949C989.65 274.949 991.132 273.453 991.132 271.624C991.132 269.78 989.65 268.285 987.83 268.285C986.011 268.29 984.529 269.78 984.529 271.624Z" fill="#FF704D"/>
<path opacity="0.7483" d="M960 284.013C960.547 283.615 961.213 283.357 961.954 283.357C963.773 283.357 965.255 284.848 965.255 286.696C965.255 288.54 963.773 290.031 961.954 290.031C961.213 290.031 960.547 289.777 960 289.375V284.013Z" fill="#FF704D"/>
<path opacity="0.9308" d="M1191.58 392.182C1191.58 394.026 1193.06 395.517 1194.88 395.517C1196.72 395.517 1198.19 394.026 1198.19 392.182C1198.19 390.349 1196.72 388.858 1194.88 388.858C1193.06 388.863 1191.58 390.354 1191.58 392.182Z" fill="#FF704D"/>
<path opacity="0.9474" d="M984.529 392.182C984.529 394.026 986.011 395.517 987.83 395.517C989.65 395.517 991.132 394.026 991.132 392.182C991.132 390.349 989.65 388.858 987.83 388.858C986.011 388.863 984.529 390.354 984.529 392.182Z" fill="#FF704D"/>
<path opacity="0.5499" d="M1036.3 181.19C1036.3 183.034 1037.76 184.525 1039.6 184.525C1041.42 184.525 1042.9 183.034 1042.9 181.19C1042.9 179.357 1041.42 177.866 1039.6 177.866C1037.76 177.866 1036.3 179.357 1036.3 181.19Z" fill="#FF704D"/>
<path opacity="0.5903" d="M1036.3 301.764C1036.3 303.607 1037.76 305.098 1039.6 305.098C1041.42 305.098 1042.9 303.607 1042.9 301.764C1042.9 299.93 1041.42 298.424 1039.6 298.424C1037.76 298.424 1036.3 299.93 1036.3 301.764Z" fill="#FF704D"/>
</g>
<g clip-path="url(#clip3_134_4103)">
<path opacity="0.901" d="M1764.3 451.489L1790.45 466.726V497.178L1790.31 497.263L1764.3 512.415L1738.14 497.173V466.721L1738.28 466.636L1764.3 451.489ZM1789.9 467.039L1764.3 452.126L1738.69 467.039V496.86L1764.3 511.774L1789.9 496.86V467.039Z" fill="#FF704D"/>
<path opacity="0.8562" d="M1764.3 421.35L1816.33 451.644V512.256L1816.19 512.33L1764.29 542.549L1712.25 512.256V451.644L1712.38 451.569L1764.3 421.35ZM1815.79 451.972L1764.3 421.991L1712.81 451.972V511.928L1764.3 541.908L1815.79 511.928V451.972Z" fill="#FF704D"/>
<path opacity="0.5475" d="M1764.02 401.721V421.509L1660.77 481.624L1557.52 421.509V401.721H1556.96V421.822L1660.63 482.196L1660.77 482.265L1764.43 421.906L1764.57 421.822V401.721H1764.02Z" fill="#FF704D"/>
<path opacity="0.8834" d="M1660.77 421.35L1712.8 451.644V512.256L1712.67 512.33L1660.77 542.549L1608.72 512.256V451.644L1608.86 451.569L1660.77 421.35ZM1712.26 451.972L1660.78 421.991L1609.29 451.972V511.928L1660.78 541.908L1712.26 511.928V451.972Z" fill="#FF704D"/>
<path opacity="0.5245" d="M1574.2 401.721L1582.85 406.755V436.576L1557.24 451.49L1531.63 436.576V406.755L1540.28 401.721H1539.18L1531.08 406.442V436.904L1557.24 452.131L1583.39 436.904V406.442L1575.3 401.721H1574.2Z" fill="#FF704D"/>
<path opacity="0.5193" d="M1660.77 526.841L1673.99 534.544V549.929L1673.85 550.013L1660.78 557.622L1647.56 549.929V534.544L1647.69 534.459L1660.77 526.841ZM1673.43 534.862L1660.78 527.482L1648.1 534.862V549.616L1660.78 556.99L1673.43 549.616V534.862Z" fill="#FF704D"/>
<path opacity="0.517" d="M1453.71 406.273L1466.93 413.975V429.361L1453.71 437.063L1440.5 429.361V413.975L1453.71 406.273ZM1466.38 414.288L1453.71 406.914L1441.05 414.288V429.043L1453.71 436.417L1466.38 429.043V414.288Z" fill="#FF704D"/>
<path opacity="0.6479" d="M1505.21 401.721V451.644L1453.71 481.624L1402.22 451.644V401.721H1401.67V451.972L1453.57 482.196L1453.71 482.265L1505.62 452.046L1505.75 451.972V401.721H1505.21Z" fill="#FF704D"/>
<path opacity="0.9977" d="M1350.18 406.273L1363.4 413.975V429.361L1350.18 437.063L1336.97 429.361V413.975L1350.18 406.273ZM1362.84 414.288L1350.18 406.914L1337.51 414.288V429.043L1350.18 436.417L1362.84 429.043V414.288Z" fill="#FF704D"/>
<path opacity="0.6323" d="M1608.72 401.721V451.644L1557.24 481.624L1505.75 451.644V401.721H1505.21V451.972L1557.1 482.196L1557.24 482.265L1609.14 452.046L1609.27 451.972V401.721H1608.72Z" fill="#FF704D"/>
<path opacity="0.5774" d="M1557.24 406.273L1570.46 413.975V429.361L1557.24 437.063L1544.02 429.361V413.975L1557.24 406.273ZM1569.91 414.288L1557.24 406.914L1544.57 414.288V429.043L1557.24 436.417L1569.91 429.043V414.288Z" fill="#FF704D"/>
<path opacity="0.6004" d="M1608.72 401.721V451.644L1557.24 481.624L1505.75 451.644V401.721H1505.21V451.972L1557.1 482.196L1557.24 482.265L1609.14 452.046L1609.27 451.972V401.721H1608.72Z" fill="#FF704D"/>
<path opacity="0.9482" d="M1350.18 421.35L1402.22 451.644V512.256L1402.08 512.33L1350.18 542.549L1298.14 512.256V451.644L1298.28 451.569L1350.18 421.35ZM1401.67 451.972L1350.18 421.991L1298.69 451.972V511.928L1350.18 541.908L1401.67 511.928V451.972Z" fill="#FF704D"/>
<path opacity="0.5544" d="M1246.65 451.489L1272.81 466.726V497.178L1272.67 497.263L1246.65 512.415L1220.5 497.173V466.721L1220.63 466.636L1246.65 451.489ZM1272.26 467.039L1246.65 452.126L1221.04 467.039V496.86L1246.65 511.774L1272.26 496.86V467.039Z" fill="#FF704D"/>
<path opacity="0.7569" d="M1401.67 401.721V451.644L1350.18 481.624L1298.69 451.644V401.721H1298.14V451.972L1350.04 482.196L1350.18 482.265L1402.08 452.046L1402.22 451.972V401.721H1401.67Z" fill="#FF704D"/>
<path opacity="0.9339" d="M1246.65 421.35L1298.7 451.644V512.256L1298.56 512.33L1246.65 542.549L1194.62 512.256V451.644L1194.75 451.569L1246.65 421.35ZM1298.14 451.972L1246.65 421.991L1195.17 451.972V511.928L1246.65 541.908L1298.14 511.928V451.972Z" fill="#FF704D"/>
<path opacity="0.6722" d="M1160.09 401.721L1168.73 406.755V436.576L1143.12 451.49L1117.52 436.576V406.755L1126.16 401.721H1125.07L1116.96 406.442V436.904L1143.12 452.131L1169.29 436.904V406.442L1161.18 401.721H1160.09Z" fill="#FF704D"/>
<path opacity="0.6213" d="M1246.65 526.841L1259.87 534.544V549.929L1259.74 550.013L1246.65 557.622L1233.43 549.929V534.544L1233.58 534.459L1246.65 526.841ZM1259.32 534.862L1246.65 527.482L1233.99 534.862V549.616L1246.65 556.99L1259.32 549.616V534.862Z" fill="#FF704D"/>
<path opacity="0.9916" d="M1039.6 406.273L1052.82 413.975V429.361L1039.6 437.063L1026.38 429.361V413.975L1039.6 406.273ZM1052.26 414.288L1039.59 406.914L1026.92 414.288V429.043L1039.59 436.417L1052.26 429.043V414.288Z" fill="#FF704D"/>
<path opacity="0.5075" d="M1039.6 421.35L1091.63 451.644V512.256L1091.5 512.33L1039.59 542.549L987.547 512.256V451.644L987.691 451.569L1039.6 421.35ZM1091.08 451.972L1039.6 421.991L988.114 451.972V511.928L1039.6 541.908L1091.08 511.928V451.972Z" fill="#FF704D"/>
<path opacity="0.6878" d="M1194.62 401.721V451.644L1143.12 481.624L1091.63 451.644V401.721H1091.08V451.972L1142.99 482.196L1143.12 482.265L1195.02 452.046L1195.16 451.972V401.721H1194.62Z" fill="#FF704D"/>
<path opacity="0.8538" d="M1039.6 421.35L1091.63 451.644V512.256L1091.5 512.33L1039.59 542.549L987.547 512.256V451.644L987.691 451.569L1039.6 421.35ZM1091.08 451.972L1039.6 421.991L988.114 451.972V511.928L1039.6 541.908L1091.08 511.928V451.972Z" fill="#FF704D"/>
<path opacity="0.6795" d="M987.552 401.721V451.643L960 467.695V468.341L987.965 452.046L988.109 451.971V401.721H987.552Z" fill="#FF704D"/>
<path opacity="0.6915" d="M1735.11 466.885C1735.11 465.041 1736.59 463.55 1738.42 463.55C1740.23 463.55 1741.72 465.041 1741.72 466.885C1741.72 468.718 1740.23 470.209 1738.42 470.209C1736.59 470.209 1735.11 468.713 1735.11 466.885Z" fill="#FF704D"/>
<path opacity="0.5175" d="M1812.75 451.818C1812.75 449.974 1814.24 448.483 1816.06 448.483C1817.88 448.483 1819.36 449.974 1819.36 451.818C1819.36 453.651 1817.88 455.142 1816.06 455.142C1814.24 455.137 1812.75 453.646 1812.75 451.818Z" fill="#FF704D"/>
<path opacity="0.7801" d="M1709.23 512.087C1709.23 510.253 1710.71 508.762 1712.53 508.762C1714.35 508.762 1715.83 510.253 1715.83 512.087C1715.83 513.93 1714.35 515.421 1712.53 515.421C1710.71 515.426 1709.23 513.935 1709.23 512.087Z" fill="#FF704D"/>
<path opacity="0.8122" d="M1812.75 512.087C1812.75 510.253 1814.24 508.762 1816.06 508.762C1817.88 508.762 1819.36 510.253 1819.36 512.087C1819.36 513.93 1817.88 515.421 1816.06 515.421C1814.24 515.426 1812.75 513.935 1812.75 512.087Z" fill="#FF704D"/>
<path opacity="0.9902" d="M1605.7 512.087C1605.7 510.253 1607.18 508.762 1609 508.762C1610.82 508.762 1612.3 510.253 1612.3 512.087C1612.3 513.93 1610.82 515.421 1609 515.421C1607.18 515.421 1605.7 513.935 1605.7 512.087Z" fill="#FF704D"/>
<path opacity="0.7274" d="M1553.94 421.668C1553.94 419.834 1555.42 418.343 1557.24 418.343C1559.06 418.343 1560.54 419.834 1560.54 421.668C1560.54 423.512 1559.06 425.002 1557.24 425.002C1555.42 425.002 1553.94 423.512 1553.94 421.668Z" fill="#FF704D"/>
<path opacity="0.9855" d="M1657.47 481.952C1657.47 480.108 1658.94 478.618 1660.77 478.618C1662.59 478.618 1664.07 480.108 1664.07 481.952C1664.07 483.796 1662.59 485.292 1660.77 485.292C1658.94 485.292 1657.47 483.796 1657.47 481.952Z" fill="#FF704D"/>
<path opacity="0.8077" d="M1644.52 549.775C1644.52 547.931 1646 546.435 1647.83 546.435C1649.65 546.435 1651.14 547.931 1651.14 549.775C1651.14 551.619 1649.65 553.109 1647.83 553.109C1646 553.109 1644.52 551.619 1644.52 549.775Z" fill="#FF704D"/>
<path opacity="0.5432" d="M1450.41 481.952C1450.41 480.108 1451.89 478.618 1453.71 478.618C1455.54 478.618 1457.02 480.108 1457.02 481.952C1457.02 483.796 1455.54 485.292 1453.71 485.292C1451.89 485.292 1450.41 483.796 1450.41 481.952Z" fill="#FF704D"/>
<path opacity="0.8535" d="M1398.64 512.087C1398.64 510.253 1400.12 508.762 1401.95 508.762C1403.77 508.762 1405.25 510.253 1405.25 512.087C1405.25 513.93 1403.77 515.421 1401.95 515.421C1400.12 515.426 1398.64 513.935 1398.64 512.087Z" fill="#FF704D"/>
<path opacity="0.6091" d="M1463.34 429.202C1463.34 427.373 1464.82 425.877 1466.66 425.877C1468.48 425.877 1469.96 427.373 1469.96 429.202C1469.96 431.045 1468.48 432.536 1466.66 432.536C1464.82 432.536 1463.34 431.045 1463.34 429.202Z" fill="#FF704D"/>
<path opacity="0.7656" d="M1346.88 481.952C1346.88 480.108 1348.35 478.618 1350.18 478.618C1352 478.618 1353.49 480.108 1353.49 481.952C1353.49 483.796 1352 485.292 1350.18 485.292C1348.35 485.292 1346.88 483.796 1346.88 481.952Z" fill="#FF704D"/>
<path opacity="0.5656" d="M1553.94 421.668C1553.94 419.834 1555.42 418.343 1557.24 418.343C1559.06 418.343 1560.54 419.834 1560.54 421.668C1560.54 423.512 1559.06 425.002 1557.24 425.002C1555.42 425.002 1553.94 423.512 1553.94 421.668Z" fill="#FF704D"/>
<path opacity="0.9473" d="M1243.35 512.087C1243.35 510.253 1244.83 508.762 1246.65 508.762C1248.47 508.762 1249.95 510.253 1249.95 512.087C1249.95 513.93 1248.47 515.421 1246.65 515.421C1244.83 515.426 1243.35 513.935 1243.35 512.087Z" fill="#FF704D"/>
<path opacity="0.9003" d="M1295.12 512.087C1295.12 510.253 1296.6 508.762 1298.42 508.762C1300.24 508.762 1301.72 510.253 1301.72 512.087C1301.72 513.93 1300.24 515.421 1298.42 515.421C1296.6 515.426 1295.12 513.935 1295.12 512.087Z" fill="#FF704D"/>
<path opacity="0.935" d="M1346.88 542.236C1346.88 540.393 1348.35 538.902 1350.18 538.902C1352 538.902 1353.49 540.393 1353.49 542.236C1353.49 544.07 1352 545.576 1350.18 545.576C1348.35 545.576 1346.88 544.07 1346.88 542.236Z" fill="#FF704D"/>
<path opacity="0.5427" d="M1269.23 497.019C1269.23 495.186 1270.71 493.695 1272.53 493.695C1274.36 493.695 1275.85 495.186 1275.85 497.019C1275.85 498.863 1274.36 500.359 1272.53 500.359C1270.71 500.359 1269.23 498.863 1269.23 497.019Z" fill="#FF704D"/>
<path opacity="0.5515" d="M1243.35 421.668C1243.35 419.834 1244.83 418.343 1246.65 418.343C1248.47 418.343 1249.95 419.834 1249.95 421.668C1249.95 423.512 1248.47 425.002 1246.65 425.002C1244.83 425.002 1243.35 423.512 1243.35 421.668Z" fill="#FF704D"/>
<path opacity="0.7361" d="M1346.88 481.952C1346.88 480.108 1348.35 478.618 1350.18 478.618C1352 478.618 1353.49 480.108 1353.49 481.952C1353.49 483.796 1352 485.292 1350.18 485.292C1348.35 485.292 1346.88 483.796 1346.88 481.952Z" fill="#FF704D"/>
<path opacity="0.5694" d="M1191.58 451.818C1191.58 449.974 1193.06 448.483 1194.88 448.483C1196.72 448.483 1198.2 449.974 1198.2 451.818C1198.2 453.651 1196.71 455.142 1194.88 455.142C1193.06 455.137 1191.58 453.646 1191.58 451.818Z" fill="#FF704D"/>
<path opacity="0.7041" d="M1295.12 512.087C1295.12 510.253 1296.6 508.762 1298.42 508.762C1300.24 508.762 1301.72 510.253 1301.72 512.087C1301.72 513.93 1300.24 515.421 1298.42 515.421C1296.6 515.426 1295.12 513.935 1295.12 512.087Z" fill="#FF704D"/>
<path opacity="0.988" d="M1139.82 451.818C1139.82 449.974 1141.3 448.483 1143.12 448.483C1144.96 448.483 1146.43 449.974 1146.43 451.818C1146.43 453.651 1144.95 455.142 1143.12 455.142C1141.3 455.137 1139.82 453.646 1139.82 451.818Z" fill="#FF704D"/>
<path opacity="0.74" d="M1256.29 534.703C1256.29 532.859 1257.77 531.363 1259.59 531.363C1261.42 531.363 1262.89 532.859 1262.89 534.703C1262.89 536.536 1261.42 538.027 1259.59 538.027C1257.77 538.027 1256.29 536.536 1256.29 534.703Z" fill="#FF704D"/>
<path opacity="0.9974" d="M1243.35 527.169C1243.35 525.325 1244.83 523.834 1246.65 523.834C1248.47 523.834 1249.95 525.325 1249.95 527.169C1249.95 528.998 1248.47 530.493 1246.65 530.493C1244.83 530.493 1243.35 529.003 1243.35 527.169Z" fill="#FF704D"/>
<path opacity="0.9965" d="M1230.41 549.775C1230.41 547.931 1231.89 546.435 1233.71 546.435C1235.53 546.435 1237.01 547.931 1237.01 549.775C1237.01 551.619 1235.53 553.109 1233.71 553.109C1231.89 553.109 1230.41 551.619 1230.41 549.775Z" fill="#FF704D"/>
<path opacity="0.8656" d="M1036.3 436.735C1036.3 434.902 1037.76 433.411 1039.6 433.411C1041.42 433.411 1042.9 434.902 1042.9 436.735C1042.9 438.579 1041.42 440.07 1039.6 440.07C1037.76 440.07 1036.3 438.579 1036.3 436.735Z" fill="#FF704D"/>
<path opacity="0.85" d="M984.529 512.087C984.529 510.253 986.011 508.762 987.83 508.762C989.65 508.762 991.132 510.253 991.132 512.087C991.132 513.93 989.65 515.421 987.83 515.421C986.011 515.426 984.529 513.935 984.529 512.087Z" fill="#FF704D"/>
<path opacity="0.9308" d="M1191.58 451.818C1191.58 449.974 1193.06 448.483 1194.88 448.483C1196.72 448.483 1198.19 449.974 1198.19 451.818C1198.19 453.651 1196.72 455.142 1194.88 455.142C1193.06 455.137 1191.58 453.646 1191.58 451.818Z" fill="#FF704D"/>
<path opacity="0.9474" d="M984.529 451.818C984.529 449.974 986.011 448.483 987.83 448.483C989.65 448.483 991.132 449.974 991.132 451.818C991.132 453.651 989.65 455.142 987.83 455.142C986.011 455.137 984.529 453.646 984.529 451.818Z" fill="#FF704D"/>
<path opacity="0.5903" d="M1036.3 542.236C1036.3 540.393 1037.76 538.902 1039.6 538.902C1041.42 538.902 1042.9 540.393 1042.9 542.236C1042.9 544.07 1041.42 545.576 1039.6 545.576C1037.76 545.576 1036.3 544.07 1036.3 542.236Z" fill="#FF704D"/>
</g>
<defs>
<clipPath id="clip0_134_4103">
<rect width="960" height="422" fill="white"/>
</clipPath>
<clipPath id="clip1_134_4103">
<rect width="960" height="139" fill="white" transform="matrix(1 0 0 -1 0 561)"/>
</clipPath>
<clipPath id="clip2_134_4103">
<rect width="960" height="422" fill="white" transform="matrix(-1 0 0 1 1920 0)"/>
</clipPath>
<clipPath id="clip3_134_4103">
<rect width="960" height="139" fill="white" transform="translate(1920 561) rotate(180)"/>
</clipPath>
</defs>
</svg>
