<svg width="237" height="64" viewBox="0 0 237 64" fill="none" xmlns="http://www.w3.org/2000/svg">
<g clip-path="url(#clip0_1_3)">
<path d="M37.6909 34.6311C35.6466 32.6132 32.6251 31.3108 28.6291 30.7214C32.0846 30.132 34.6832 28.9475 36.4224 27.168C38.1613 25.3885 39.032 23.0252 39.032 20.0781C39.032 17.7877 38.5058 15.7388 37.4555 13.9228C36.4056 12.1096 34.9185 10.6472 33.0005 9.53576C31.3734 8.67408 29.4495 8.05658 27.2233 7.68329C25.7392 7.43348 23.6753 7.26788 21.0375 7.18367V15.3206C23.9722 15.3627 26.0444 15.8033 27.2569 16.6426C28.5338 17.5267 29.1723 19.0115 29.1723 21.0969C29.1723 23.2273 28.5058 24.7458 27.1729 25.6523C25.9352 26.4944 23.8881 26.9435 21.0375 27.0052V35.2403H22.2948C24.8907 35.2403 26.8733 35.7962 28.2398 36.9075C29.6064 38.0191 30.2896 39.6273 30.2896 41.7353C30.2896 43.9806 29.6008 45.6843 28.223 46.852C26.8453 48.0197 24.8235 48.6035 22.1576 48.6035H21.0375V56.8163C23.9189 56.7178 26.1452 56.53 27.7162 56.2549C30.1776 55.8253 32.3226 55.1096 34.1539 54.1133C36.2094 53.0017 37.8253 51.4327 38.9985 49.4035C40.172 47.3742 40.7601 45.1371 40.7601 42.6868C40.7571 39.3354 39.7351 36.6465 37.6909 34.6311Z" fill="#333333"/>
<path fill-rule="evenodd" clip-rule="evenodd" d="M0 18.5386C0 12.2684 4.98325 7.18367 11.1283 7.18367H12.8197V15.3208L11.1761 15.3252C9.4885 15.3252 8.0709 16.8166 8.0709 18.5386V45.4616C8.0709 47.1834 9.44058 48.5811 11.1283 48.5811L12.8197 48.6041V56.8163H11.1283C4.98336 56.8163 0 51.7318 0 45.4616V18.5386Z" fill="#333333"/>
<path d="M21.0374 0H12.8197V7.18367H21.0374V0Z" fill="#FF3201"/>
<path d="M21.0374 56.8163H12.8197V64H21.0374V56.8163Z" fill="#FF3201"/>
<path d="M66.7051 18.6318C66.6854 18.3967 66.646 18.1192 66.5868 17.7959C66.5276 17.4727 66.3962 17.1559 66.1891 16.8425C65.982 16.529 65.6796 16.2645 65.2851 16.049C64.8907 15.8335 64.3384 15.7257 63.6284 15.7257C62.6226 15.7257 61.8534 16 61.3209 16.5486C60.7884 17.0971 60.5221 17.9494 60.5221 19.1053V27.3045C60.5221 28.4604 60.7916 29.3127 61.334 29.8612C61.8764 30.4098 62.6587 30.6841 63.6876 30.6841C64.3582 30.6841 64.8907 30.5763 65.2851 30.3608C65.6796 30.1453 65.9754 29.8808 66.1726 29.5674C66.3699 29.2539 66.5013 28.9176 66.5704 28.5551C66.6394 28.1927 66.6821 27.8563 66.7019 27.5429C66.7413 27.0922 66.9385 26.7788 67.2935 26.6025C67.6485 26.4261 68.0824 26.338 68.5952 26.338C69.2658 26.338 69.7589 26.4653 70.0744 26.72C70.39 26.9747 70.5478 27.4743 70.5478 28.2188C70.5478 29.1004 70.3735 29.9037 70.0284 30.6286C69.6833 31.3535 69.1935 31.9641 68.5656 32.4637C67.9345 32.9633 67.1851 33.3518 66.3173 33.6229C65.4495 33.8971 64.5028 34.0343 63.4772 34.0343C62.5502 34.0343 61.6726 33.9102 60.8442 33.6686C60.0159 33.4269 59.2894 33.0351 58.6715 32.5061C58.0502 31.9771 57.5604 31.2882 57.2054 30.4359C56.8504 29.5837 56.6729 28.5388 56.6729 27.3078V19.102C56.6729 17.8678 56.8537 16.8261 57.2219 15.9739C57.5867 15.1216 58.0798 14.4294 58.7011 13.9037C59.3223 13.3747 60.0455 12.9894 60.8738 12.7412C61.7022 12.4963 62.5798 12.3755 63.5068 12.3755C64.5324 12.3755 65.4791 12.5094 66.3468 12.7706C67.2146 13.0351 67.9575 13.4073 68.5788 13.8873C69.2001 14.3673 69.6833 14.9551 70.0284 15.6506C70.3735 16.3461 70.5478 17.1167 70.5478 17.9559C70.5478 18.72 70.39 19.2261 70.0744 19.4678C69.7589 19.7127 69.2757 19.8335 68.6248 19.8335C68.0726 19.8335 67.619 19.7453 67.264 19.569C66.9122 19.3959 66.7249 19.0825 66.7051 18.6318Z" fill="#333333"/>
<path d="M77.592 19.7192C78.7359 19.7192 79.7122 19.8825 80.5208 20.2025C81.3295 20.5257 81.9902 20.9535 82.5029 21.4825C83.0157 22.0114 83.3839 22.6188 83.614 23.3045C83.8408 23.9902 83.9558 24.7053 83.9558 25.4498V32.6498C83.9558 32.9829 83.7783 33.2669 83.4233 33.502C83.0683 33.7372 82.6246 33.8547 82.0921 33.8547C81.599 33.8547 81.1881 33.7372 80.866 33.502C80.5405 33.2669 80.3762 32.9829 80.3762 32.6498V31.7976C79.8437 32.4049 79.2158 32.9437 78.4993 33.4139C77.7794 33.8841 76.905 34.1192 75.8827 34.1192C75.3502 34.1192 74.8506 34.0408 74.3871 33.8841C73.9236 33.7274 73.5193 33.489 73.1742 33.1625C72.829 32.8392 72.5529 32.4343 72.3458 31.9445C72.1387 31.4547 72.0368 30.8767 72.0368 30.2106C72.0368 29.3682 72.2045 28.6694 72.5397 28.1078C72.875 27.5494 73.3418 27.1086 73.9466 26.7853C74.5482 26.462 75.2713 26.2335 76.1194 26.0963C76.9675 25.9592 77.9043 25.8906 78.9299 25.8906H80.1428V25.5086C80.1428 25.1951 80.0968 24.8751 80.008 24.5551C79.9193 24.2318 79.7714 23.9445 79.5643 23.6865C79.3572 23.4318 79.0909 23.2229 78.7655 23.0531C78.4401 22.8865 78.0292 22.8049 77.5394 22.8049C76.9675 22.8049 76.504 22.8539 76.149 22.9518C75.794 23.0498 75.4981 23.1543 75.2615 23.262C75.0248 23.3698 74.8276 23.4743 74.6698 23.569C74.512 23.6669 74.3444 23.7159 74.1669 23.7159C73.733 23.7159 73.4075 23.5102 73.1906 23.0988C72.9736 22.6874 72.8652 22.2661 72.8652 21.8351C72.8652 21.5412 73.0131 21.2637 73.3089 20.9992C73.6048 20.7347 73.9828 20.5094 74.4463 20.3233C74.9097 20.1372 75.416 19.9902 75.9715 19.8825C76.5171 19.7747 77.0595 19.7192 77.592 19.7192ZM80.1362 27.8596H79.6925C79.1994 27.8596 78.7195 27.8792 78.256 27.9184C77.7925 27.9576 77.3849 28.0425 77.0299 28.1698C76.6749 28.2972 76.3889 28.4833 76.172 28.7282C75.955 28.9731 75.8466 29.2996 75.8466 29.7143C75.8466 30.2629 75.9945 30.6645 76.2903 30.9192C76.5862 31.1739 76.9609 31.3012 77.4145 31.3012C77.7104 31.3012 78.0226 31.2229 78.3448 31.0661C78.6702 30.9094 78.966 30.7004 79.2323 30.4327C79.4985 30.1649 79.7155 29.8645 79.8831 29.5216C80.0508 29.1788 80.1362 28.8294 80.1362 28.4767V27.8596Z" fill="#333333"/>
<path d="M94.0111 23.04C93.5772 23.04 93.1564 23.1412 92.7521 23.3502C92.3478 23.5559 91.9862 23.8465 91.674 24.2155C91.3584 24.5878 91.102 25.0449 90.9048 25.5837C90.7075 26.1224 90.6089 26.7265 90.6089 27.3927V32.6531C90.6089 32.9469 90.4183 33.2212 90.0337 33.4759C89.6491 33.7306 89.1922 33.858 88.6564 33.858C88.1042 33.858 87.6538 33.7306 87.312 33.4759C86.9668 33.2212 86.7926 32.9469 86.7926 32.6531V21.0743C86.7926 20.7216 86.9635 20.4376 87.312 20.222C87.6571 20.0065 88.1042 19.8988 88.6564 19.8988C89.1297 19.8988 89.534 20.0065 89.8693 20.222C90.2046 20.4376 90.3723 20.7216 90.3723 21.0743V22.2792C90.5103 21.9657 90.701 21.6588 90.9475 21.3551C91.194 21.0514 91.4734 20.7771 91.789 20.5322C92.1046 20.2873 92.4497 20.0914 92.8244 19.9445C93.1992 19.7976 93.5936 19.7257 94.0078 19.7257H94.9249C95.2799 19.7257 95.5988 19.889 95.8847 20.209C96.1707 20.5322 96.3153 20.9208 96.3153 21.3714C96.3153 21.822 96.1707 22.2139 95.8847 22.5469C95.5988 22.88 95.2799 23.0465 94.9249 23.0465H94.0111V23.04Z" fill="#333333"/>
<path d="M101.732 29.0939C101.732 29.662 101.851 30.0637 102.088 30.2988C102.324 30.5339 102.758 30.6514 103.389 30.6514H104.543C105.095 30.6514 105.506 30.818 105.772 31.151C106.039 31.4841 106.17 31.8465 106.17 32.2384C106.17 32.6498 106.039 33.022 105.772 33.3551C105.506 33.6882 105.095 33.8547 104.543 33.8547H103.389C101.594 33.8547 100.234 33.4792 99.3066 32.7249C98.3796 31.9706 97.9162 30.7624 97.9162 29.0939V14.8408C97.9162 14.4882 98.1167 14.2041 98.521 13.9886C98.9253 13.7731 99.3526 13.6653 99.8095 13.6653C100.303 13.6653 100.746 13.7731 101.141 13.9886C101.535 14.2041 101.732 14.4882 101.732 14.8408V19.8955H105.223C105.539 19.8955 105.779 20.0424 105.95 20.3363C106.117 20.6302 106.2 20.9437 106.2 21.2767C106.2 21.6294 106.114 21.9494 105.95 22.2302C105.782 22.5143 105.539 22.658 105.223 22.658H101.732V29.0939Z" fill="#333333"/>
<path d="M113.951 19.7192C114.799 19.7192 115.611 19.8759 116.39 20.1894C117.169 20.5029 117.856 20.9339 118.444 21.4824C119.036 22.031 119.503 22.6645 119.851 23.3796C120.196 24.0947 120.367 24.862 120.367 25.6849V28.0947C120.367 28.8784 120.193 29.6327 119.851 30.3575C119.506 31.0824 119.036 31.7257 118.444 32.2841C117.852 32.8424 117.165 33.2898 116.39 33.6196C115.611 33.9527 114.795 34.1192 113.951 34.1192C113.083 34.1192 112.258 33.9527 111.479 33.6196C110.7 33.2865 110.019 32.8457 109.437 32.2971C108.856 31.7486 108.392 31.1118 108.047 30.3869C107.702 29.662 107.528 28.898 107.528 28.0947V25.6849C107.528 24.9012 107.695 24.1469 108.031 23.422C108.366 22.6971 108.823 22.0604 109.408 21.5118C109.99 20.9633 110.67 20.5257 111.449 20.2024C112.228 19.8824 113.063 19.7192 113.951 19.7192ZM112.649 17.0449C112.57 17.0841 112.501 17.1135 112.442 17.1331C112.383 17.1527 112.314 17.1624 112.235 17.1624C111.9 17.1624 111.617 17.0057 111.393 16.6922C111.166 16.3788 111.051 16.0555 111.051 15.7224C111.051 15.2914 111.219 14.9878 111.554 14.8114L115.459 12.9306C115.538 12.911 115.607 12.898 115.667 12.8882C115.726 12.8784 115.785 12.8751 115.844 12.8751C116.179 12.8751 116.459 13.0318 116.686 13.3453C116.912 13.6588 117.027 13.982 117.027 14.3151C117.027 14.4914 116.988 14.658 116.909 14.8147C116.83 14.9714 116.692 15.0988 116.495 15.1967L112.649 17.0449ZM116.554 25.6849C116.554 25.3518 116.485 25.0286 116.347 24.7151C116.209 24.4016 116.022 24.1175 115.785 23.8629C115.548 23.6082 115.272 23.4057 114.957 23.262C114.641 23.1151 114.306 23.04 113.951 23.04C113.596 23.04 113.26 23.1151 112.945 23.262C112.629 23.409 112.353 23.6114 112.116 23.8629C111.88 24.1175 111.692 24.4016 111.554 24.7151C111.416 25.0286 111.347 25.3518 111.347 25.6849V28.0947C111.347 28.4473 111.416 28.7869 111.554 29.1069C111.692 29.4302 111.88 29.7143 112.116 29.9592C112.353 30.2041 112.629 30.4065 112.945 30.56C113.26 30.7167 113.596 30.7951 113.951 30.7951C114.306 30.7951 114.641 30.7167 114.957 30.56C115.272 30.4033 115.548 30.2041 115.785 29.9592C116.022 29.7143 116.209 29.4302 116.347 29.1069C116.485 28.7837 116.554 28.4473 116.554 28.0947V25.6849Z" fill="#333333"/>
<path d="M130.012 23.04C129.578 23.04 129.157 23.1412 128.753 23.3502C128.348 23.5559 127.987 23.8465 127.675 24.2155C127.359 24.5878 127.103 25.0449 126.905 25.5837C126.708 26.1224 126.61 26.7265 126.61 27.3927V32.6531C126.61 32.9469 126.419 33.2212 126.034 33.4759C125.65 33.7306 125.193 33.858 124.657 33.858C124.105 33.858 123.654 33.7306 123.313 33.4759C122.967 33.2212 122.793 32.9469 122.793 32.6531V21.0743C122.793 20.7216 122.964 20.4376 123.313 20.222C123.658 20.0065 124.105 19.8988 124.657 19.8988C125.13 19.8988 125.535 20.0065 125.87 20.222C126.205 20.4376 126.373 20.7216 126.373 21.0743V22.2792C126.511 21.9657 126.702 21.6588 126.948 21.3551C127.195 21.0514 127.474 20.7771 127.79 20.5322C128.105 20.2873 128.45 20.0914 128.825 19.9445C129.2 19.7976 129.594 19.7257 130.008 19.7257H130.926C131.281 19.7257 131.599 19.889 131.885 20.209C132.171 20.5322 132.316 20.9208 132.316 21.3714C132.316 21.822 132.171 22.2139 131.885 22.5469C131.599 22.88 131.281 23.0465 130.926 23.0465H130.012V23.04Z" fill="#333333"/>
<path d="M135.839 13.0775C136.411 13.0775 136.898 13.2604 137.306 13.6229C137.71 13.9853 137.914 14.4229 137.914 14.929C137.914 15.4188 137.71 15.8498 137.306 16.222C136.901 16.5943 136.411 16.7804 135.839 16.7804C135.248 16.7804 134.748 16.5943 134.347 16.222C133.943 15.8498 133.742 15.4188 133.742 14.929C133.742 14.4196 133.943 13.9853 134.347 13.6229C134.751 13.2604 135.248 13.0775 135.839 13.0775ZM135.839 19.8955C136.372 19.8955 136.826 20.0033 137.2 20.2188C137.575 20.4343 137.762 20.7184 137.762 21.071V32.6498C137.762 32.9437 137.575 33.218 137.2 33.4726C136.826 33.7273 136.372 33.8547 135.839 33.8547C135.287 33.8547 134.834 33.7273 134.479 33.4726C134.124 33.218 133.946 32.9437 133.946 32.6498V21.071C133.946 20.7184 134.124 20.4343 134.479 20.2188C134.834 20.0033 135.287 19.8955 135.839 19.8955Z" fill="#333333"/>
<path d="M146.608 19.7192C147.456 19.7192 148.268 19.8759 149.047 20.1894C149.826 20.5029 150.513 20.9339 151.101 21.4825C151.693 22.031 152.16 22.6645 152.508 23.3796C152.853 24.0947 153.024 24.8621 153.024 25.6849V28.0947C153.024 28.8784 152.85 29.6327 152.508 30.3576C152.163 31.0825 151.693 31.7257 151.101 32.2841C150.51 32.8425 149.823 33.2898 149.047 33.6196C148.268 33.9527 147.453 34.1192 146.608 34.1192C145.74 34.1192 144.915 33.9527 144.136 33.6196C143.357 33.2865 142.677 32.8457 142.095 32.2972C141.513 31.7486 141.05 31.1118 140.704 30.3869C140.359 29.662 140.185 28.898 140.185 28.0947V25.6849C140.185 24.9012 140.353 24.1469 140.688 23.4221C141.023 22.6972 141.48 22.0604 142.065 21.5118C142.647 20.9633 143.327 20.5257 144.107 20.2025C144.889 19.8825 145.72 19.7192 146.608 19.7192ZM149.211 25.6849C149.211 25.3518 149.142 25.0286 149.004 24.7151C148.866 24.4016 148.679 24.1176 148.442 23.8629C148.206 23.6082 147.929 23.4057 147.614 23.262C147.298 23.1151 146.963 23.04 146.608 23.04C146.253 23.04 145.918 23.1151 145.602 23.262C145.287 23.409 145.01 23.6114 144.774 23.8629C144.537 24.1176 144.35 24.4016 144.212 24.7151C144.074 25.0286 144.005 25.3518 144.005 25.6849V28.0947C144.005 28.4474 144.074 28.7869 144.212 29.1069C144.35 29.4302 144.537 29.7143 144.774 29.9592C145.01 30.2041 145.287 30.4065 145.602 30.56C145.918 30.7167 146.253 30.7951 146.608 30.7951C146.963 30.7951 147.298 30.7167 147.614 30.56C147.929 30.4033 148.206 30.2041 148.442 29.9592C148.679 29.7143 148.866 29.4302 149.004 29.1069C149.142 28.7837 149.211 28.4474 149.211 28.0947V25.6849Z" fill="#333333"/>
<path d="M161.666 13.5772C161.666 13.1853 161.837 12.8882 162.186 12.6792C162.531 12.4735 162.919 12.3723 163.353 12.3723H169.062C169.831 12.3723 170.574 12.4474 171.294 12.591C172.014 12.738 172.645 13.0025 173.188 13.3845C173.73 13.7665 174.167 14.2955 174.502 14.9714C174.838 15.6474 175.005 16.5061 175.005 17.5445C175.005 18.7592 174.782 19.7584 174.338 20.5421C173.894 21.3257 173.276 21.8841 172.491 22.2172C172.944 22.3935 173.358 22.6057 173.733 22.8506C174.108 23.0955 174.427 23.4057 174.693 23.7747C174.959 24.1469 175.166 24.5976 175.314 25.1265C175.462 25.6555 175.535 26.2825 175.535 27.0074V27.6245C175.535 28.7804 175.38 29.7502 175.074 30.5339C174.769 31.3176 174.348 31.9576 173.819 32.4604C173.286 32.96 172.658 33.3192 171.938 33.5314C171.219 33.747 170.446 33.8547 169.618 33.8547H163.346C162.833 33.8547 162.422 33.7372 162.12 33.5021C161.814 33.2669 161.66 32.9927 161.66 32.6792V13.5772H161.666ZM165.483 20.7184H168.796C169.605 20.7184 170.203 20.4833 170.587 20.0131C170.972 19.5429 171.163 18.9355 171.163 18.191C171.163 17.4269 170.949 16.8261 170.525 16.3853C170.101 15.9445 169.513 15.7257 168.766 15.7257H165.483V20.7184ZM168.826 30.5045C169.733 30.5045 170.436 30.2498 170.942 29.7404C171.445 29.231 171.695 28.418 171.695 27.3012V26.831C171.695 25.6751 171.442 24.8686 170.942 24.4049C170.439 23.9445 169.733 23.7159 168.826 23.7159H165.483V30.5045H168.826Z" fill="#333333"/>
<path d="M180.156 11.7551C180.669 11.7551 181.12 11.8629 181.504 12.0784C181.889 12.2939 182.079 12.578 182.079 12.9306V32.6498C182.079 32.9437 181.889 33.218 181.504 33.4727C181.12 33.7273 180.669 33.8547 180.156 33.8547C179.585 33.8547 179.124 33.7273 178.779 33.4727C178.434 33.218 178.263 32.9437 178.263 32.6498V12.9306C178.263 12.578 178.434 12.2939 178.779 12.0784C179.128 11.8629 179.585 11.7551 180.156 11.7551Z" fill="#333333"/>
<path d="M190.037 19.7192C191.181 19.7192 192.157 19.8825 192.966 20.2025C193.775 20.5257 194.435 20.9535 194.948 21.4825C195.461 22.0114 195.829 22.6188 196.059 23.3045C196.286 23.9902 196.401 24.7053 196.401 25.4498V32.6498C196.401 32.9829 196.224 33.2669 195.869 33.502C195.513 33.7372 195.07 33.8547 194.537 33.8547C194.044 33.8547 193.634 33.7372 193.311 33.502C192.986 33.2669 192.821 32.9829 192.821 32.6498V31.7976C192.289 32.4049 191.661 32.9437 190.945 33.4139C190.225 33.8841 189.35 34.1192 188.328 34.1192C187.795 34.1192 187.296 34.0408 186.832 33.8841C186.369 33.7274 185.964 33.489 185.619 33.1625C185.274 32.8392 184.998 32.4343 184.791 31.9445C184.584 31.4547 184.482 30.8767 184.482 30.2106C184.482 29.3682 184.65 28.6694 184.985 28.1078C185.32 27.5494 185.787 27.1086 186.392 26.7853C186.993 26.462 187.717 26.2335 188.565 26.0963C189.413 25.9592 190.35 25.8906 191.375 25.8906H192.588V25.5086C192.588 25.1951 192.542 24.8751 192.453 24.5551C192.364 24.2318 192.217 23.9445 192.009 23.6865C191.802 23.4318 191.536 23.2229 191.211 23.0531C190.886 22.8865 190.474 22.8049 189.985 22.8049C189.413 22.8049 188.949 22.8539 188.594 22.9518C188.239 23.0498 187.943 23.1543 187.707 23.262C187.47 23.3698 187.273 23.4743 187.115 23.569C186.957 23.6669 186.79 23.7159 186.612 23.7159C186.178 23.7159 185.853 23.5102 185.636 23.0988C185.419 22.6874 185.31 22.2661 185.31 21.8351C185.31 21.5412 185.458 21.2637 185.754 20.9992C186.05 20.7347 186.428 20.5094 186.891 20.3233C187.355 20.1372 187.861 19.9902 188.417 19.8825C188.963 19.7747 189.505 19.7192 190.037 19.7192ZM192.581 27.8596H192.138C191.645 27.8596 191.165 27.8792 190.702 27.9184C190.238 27.9576 189.83 28.0425 189.475 28.1698C189.12 28.2972 188.834 28.4833 188.617 28.7282C188.4 28.9731 188.292 29.2996 188.292 29.7143C188.292 30.2629 188.44 30.6645 188.735 30.9192C189.031 31.1739 189.406 31.3012 189.86 31.3012C190.156 31.3012 190.468 31.2229 190.79 31.0661C191.115 30.9094 191.411 30.7004 191.677 30.4327C191.944 30.1649 192.161 29.8645 192.328 29.5216C192.496 29.1788 192.581 28.8294 192.581 28.4767V27.8596Z" fill="#333333"/>
<path d="M203.705 31.2392C204.573 31.2392 205.148 31.102 205.437 30.8278C205.723 30.5535 205.868 30.2694 205.868 29.9755C205.868 29.5445 205.694 29.2114 205.349 28.9763C205.003 28.7412 204.569 28.5453 204.047 28.3886C203.524 28.2318 202.962 28.0718 202.361 27.9053C201.759 27.7388 201.197 27.5135 200.674 27.2294C200.152 26.9453 199.718 26.56 199.373 26.0669C199.027 25.5771 198.856 24.9208 198.856 24.098C198.856 23.569 198.945 23.0465 199.123 22.5273C199.3 22.0082 199.596 21.5412 200.01 21.1298C200.424 20.7184 200.973 20.382 201.654 20.1176C202.334 19.8531 203.166 19.7225 204.152 19.7225C204.744 19.7225 205.325 19.7714 205.897 19.8694C206.469 19.9673 206.972 20.1012 207.406 20.2645C207.84 20.431 208.192 20.6302 208.458 20.8686C208.724 21.1037 208.856 21.3584 208.856 21.6327C208.856 21.7698 208.826 21.9396 208.767 22.1453C208.708 22.351 208.619 22.5535 208.501 22.7494C208.382 22.9453 208.235 23.1118 208.057 23.249C207.88 23.3861 207.682 23.4547 207.465 23.4547C207.288 23.4547 207.097 23.409 206.89 23.3208C206.683 23.2327 206.446 23.1347 206.18 23.0269C205.914 22.9192 205.621 22.8212 205.309 22.7331C204.994 22.6449 204.629 22.5992 204.214 22.5992C203.465 22.5992 202.932 22.7461 202.617 23.04C202.301 23.3339 202.144 23.6278 202.144 23.9216C202.144 24.2743 202.321 24.5486 202.676 24.7445C203.031 24.9404 203.468 25.1102 203.991 25.2571C204.514 25.4041 205.079 25.5608 205.694 25.7273C206.305 25.8939 206.87 26.1355 207.393 26.4457C207.916 26.7592 208.356 27.1869 208.708 27.7257C209.063 28.2645 209.24 28.9665 209.24 29.8286C209.24 31.1412 208.77 32.1861 207.837 32.9567C206.9 33.7306 205.552 34.1192 203.797 34.1192C203.048 34.1192 202.347 34.0506 201.697 33.9135C201.046 33.7763 200.477 33.5902 199.994 33.3551C199.511 33.12 199.129 32.8522 198.856 32.5453C198.58 32.2416 198.442 31.9249 198.442 31.5886C198.442 31.4318 198.472 31.2555 198.531 31.0596C198.59 30.8637 198.679 30.6841 198.797 30.5143C198.916 30.3478 199.054 30.2041 199.211 30.0865C199.369 29.969 199.537 29.9102 199.714 29.9102C199.931 29.9102 200.145 29.9788 200.352 30.1159C200.559 30.2531 200.812 30.4065 201.105 30.5731C201.401 30.7396 201.749 30.8931 202.157 31.0302C202.554 31.1706 203.074 31.2392 203.705 31.2392Z" fill="#333333"/>
<path d="M217.432 34.1192C216.308 34.1192 215.341 33.9657 214.533 33.662C213.724 33.3584 213.057 32.9371 212.534 32.3984C212.011 31.8596 211.627 31.2229 211.38 30.4882C211.134 29.7535 211.012 28.9567 211.012 28.0947V25.7437C211.012 24.9012 211.134 24.111 211.38 23.3763C211.627 22.6416 212.011 22.0049 212.534 21.4661C213.057 20.9273 213.717 20.5029 214.516 20.1861C215.315 19.8727 216.275 19.7159 217.399 19.7159C218.089 19.7159 218.727 19.7812 219.309 19.9053C219.891 20.0327 220.387 20.2057 220.801 20.4212C221.215 20.6367 221.541 20.8816 221.777 21.1559C222.014 21.4302 222.132 21.7143 222.132 22.0082C222.132 22.1845 222.096 22.3804 222.027 22.5959C221.958 22.8114 221.853 23.0139 221.718 23.2C221.58 23.3861 221.422 23.5429 221.245 23.6702C221.067 23.7976 220.86 23.8596 220.624 23.8596C220.466 23.8596 220.302 23.8171 220.134 23.729C219.966 23.6408 219.772 23.5494 219.559 23.4514C219.342 23.3535 219.085 23.262 218.789 23.1739C218.494 23.0857 218.129 23.04 217.695 23.04C216.689 23.04 215.959 23.2751 215.506 23.7453C215.052 24.2155 214.825 24.8816 214.825 25.7437V28.0947C214.825 28.9567 215.052 29.6229 215.506 30.0931C215.959 30.5633 216.699 30.7984 217.724 30.7984C218.158 30.7984 218.523 30.7527 218.819 30.6645C219.115 30.5763 219.371 30.4751 219.588 30.3576C219.805 30.24 219.996 30.1388 220.163 30.0506C220.331 29.9624 220.505 29.9167 220.683 29.9167C220.939 29.9167 221.173 29.9755 221.38 30.0931C221.587 30.2106 221.758 30.3576 221.899 30.5339C222.037 30.7102 222.139 30.9061 222.208 31.1216C222.277 31.3371 222.313 31.5331 222.313 31.7094C222.313 32.0033 222.188 32.2939 221.945 32.5747C221.699 32.8588 221.357 33.12 220.923 33.3551C220.489 33.5902 219.97 33.7763 219.371 33.9135C218.766 34.0506 218.122 34.1192 217.432 34.1192Z" fill="#333333"/>
<path d="M230.094 19.7192C230.942 19.7192 231.754 19.8759 232.533 20.1894C233.312 20.5029 233.999 20.9339 234.587 21.4825C235.179 22.031 235.646 22.6645 235.994 23.3796C236.339 24.0947 236.514 24.8621 236.514 25.6849V28.0947C236.514 28.8784 236.339 29.6327 235.994 30.3576C235.649 31.0825 235.182 31.7257 234.587 32.2841C233.996 32.8425 233.312 33.2898 232.533 33.6196C231.754 33.9527 230.939 34.1192 230.094 34.1192C229.226 34.1192 228.401 33.9527 227.625 33.6196C226.846 33.2865 226.166 32.8457 225.584 32.2972C225.002 31.7486 224.539 31.1118 224.193 30.3869C223.848 29.662 223.674 28.898 223.674 28.0947V25.6849C223.674 24.9012 223.842 24.1469 224.177 23.4221C224.512 22.6972 224.972 22.0604 225.554 21.5118C226.136 20.9633 226.817 20.5257 227.596 20.2025C228.371 19.8825 229.206 19.7192 230.094 19.7192ZM232.697 25.6849C232.697 25.3518 232.628 25.0286 232.49 24.7151C232.352 24.4016 232.165 24.1176 231.928 23.8629C231.691 23.6082 231.415 23.4057 231.1 23.262C230.784 23.1151 230.449 23.04 230.094 23.04C229.739 23.04 229.404 23.1151 229.088 23.262C228.772 23.409 228.496 23.6114 228.26 23.8629C228.023 24.1176 227.836 24.4016 227.698 24.7151C227.559 25.0286 227.49 25.3518 227.49 25.6849V28.0947C227.49 28.4474 227.559 28.7869 227.698 29.1069C227.836 29.4302 228.023 29.7143 228.26 29.9592C228.496 30.2041 228.772 30.4065 229.088 30.56C229.404 30.7167 229.739 30.7951 230.094 30.7951C230.449 30.7951 230.784 30.7167 231.1 30.56C231.415 30.4033 231.691 30.2041 231.928 29.9592C232.165 29.7143 232.352 29.4302 232.49 29.1069C232.628 28.7837 232.697 28.4474 232.697 28.0947V25.6849Z" fill="#333333"/>
<path d="M58.9972 51.5233C59.5757 51.5233 60.0172 51.3773 60.3213 51.0815C60.6256 50.786 60.7795 50.321 60.7795 49.68V49.4475C60.7795 48.883 60.6191 48.4676 60.3048 48.2051C59.987 47.9429 59.559 47.8132 59.0242 47.8132C58.9071 47.8132 58.8269 47.7799 58.7766 47.7104C58.7264 47.6405 58.703 47.5608 58.703 47.471C58.703 47.3816 58.7264 47.2986 58.7701 47.2255C58.8167 47.1523 58.897 47.1158 59.0107 47.1158C59.5057 47.1158 59.8867 47.0061 60.1543 46.7837C60.4218 46.561 60.5553 46.1492 60.5553 45.5416C60.5553 45.0002 60.435 44.6015 60.1977 44.3425C59.957 44.0833 59.579 43.954 59.061 43.954C58.7398 43.954 58.4759 43.9971 58.2685 44.0833C58.061 44.1698 57.9006 44.2792 57.7803 44.4088C57.66 44.5417 57.5798 44.6844 57.5394 44.8372C57.4993 44.9933 57.4759 45.1363 57.4759 45.2656C57.4759 45.5282 57.3422 45.6578 57.0815 45.6578C56.9178 45.6578 56.8041 45.6245 56.7472 45.5582C56.6903 45.4916 56.6601 45.3688 56.6601 45.1892C56.6601 45.0168 56.6936 44.8173 56.764 44.595C56.834 44.369 56.9579 44.1532 57.1351 43.9504C57.3122 43.7447 57.5561 43.5719 57.8704 43.4289C58.185 43.2862 58.5893 43.2131 59.0843 43.2131C59.4153 43.2131 59.7197 43.2529 60.0004 43.3293C60.2812 43.4057 60.5188 43.5321 60.7193 43.7048C60.9166 43.8776 61.0704 44.0999 61.1841 44.3755C61.2942 44.6514 61.3511 44.9835 61.3511 45.3786C61.3511 45.9432 61.2541 46.3984 61.0602 46.7373C60.8663 47.0759 60.6256 47.3185 60.338 47.4547C60.7091 47.6007 61.0135 47.8332 61.2476 48.1489C61.4816 48.4643 61.5986 48.896 61.5986 49.4443V49.6767C61.5986 50.145 61.5319 50.5434 61.3948 50.8758C61.2578 51.2079 61.0737 51.4769 60.8429 51.6794C60.6122 51.8854 60.338 52.035 60.0205 52.1277C59.703 52.2207 59.365 52.2707 59.0107 52.2707C58.5728 52.2707 58.1948 52.2074 57.874 52.0813C57.5529 51.9549 57.2853 51.7923 57.0749 51.5964C56.8642 51.4005 56.7071 51.1811 56.6032 50.9453C56.4997 50.7063 56.4494 50.4738 56.4494 50.2446C56.4494 50.0718 56.4796 49.9589 56.5365 49.8991C56.5934 49.8426 56.6936 49.8129 56.834 49.8129C56.998 49.8129 57.1114 49.8426 57.1683 49.9056C57.2251 49.969 57.2554 50.0519 57.2554 50.1581C57.2554 50.2909 57.282 50.434 57.3356 50.5933C57.3892 50.7527 57.4828 50.9022 57.613 51.0351C57.7435 51.1713 57.924 51.2843 58.1514 51.3806C58.3789 51.4769 58.6596 51.5233 58.9972 51.5233Z" fill="#FF3201"/>
<path d="M65.4172 52.274C65.0527 52.274 64.7151 52.2273 64.4042 52.1313C64.0896 52.0382 63.8187 51.8854 63.5883 51.6761C63.3576 51.4668 63.1768 51.1977 63.0433 50.8656C62.9095 50.5336 62.8458 50.1251 62.8458 49.6434V45.8338C62.8458 45.3587 62.9128 44.9535 63.0433 44.6247C63.1735 44.2958 63.3576 44.0235 63.5883 43.8142C63.8187 43.6049 64.0896 43.4557 64.4042 43.3594C64.7184 43.2663 65.056 43.2163 65.4172 43.2163C65.7782 43.2163 66.1194 43.263 66.4303 43.3594C66.7446 43.4524 67.0154 43.6049 67.2462 43.8142C67.4766 44.0235 67.6574 44.2926 67.7912 44.6247C67.9247 44.9567 67.9884 45.3587 67.9884 45.8338V49.6434C67.9884 50.1283 67.9214 50.5336 67.7912 50.8656C67.6607 51.1977 67.4766 51.4668 67.2462 51.6761C67.0154 51.8854 66.7446 52.0382 66.4303 52.1313C66.1194 52.224 65.7815 52.274 65.4172 52.274ZM67.1759 45.8338C67.1759 45.1961 67.022 44.7243 66.7111 44.4222C66.4001 44.1198 65.9721 43.967 65.4172 43.967C64.8653 43.967 64.4341 44.1198 64.1231 44.4222C63.8122 44.7243 63.6583 45.1961 63.6583 45.8338V49.6434C63.6583 50.291 63.8122 50.7661 64.1231 51.0684C64.4308 51.3705 64.8621 51.5233 65.4172 51.5233C65.9688 51.5233 66.4001 51.3705 66.7111 51.0684C67.022 50.7661 67.1759 50.291 67.1759 49.6434V45.8338ZM65.4304 47.3084C65.5543 47.3084 65.6579 47.3483 65.7446 47.4312C65.8318 47.5145 65.8751 47.6206 65.8751 47.7502C65.8751 47.873 65.8318 47.9794 65.7446 48.0689C65.6579 48.1587 65.5543 48.2051 65.4304 48.2051C65.29 48.2051 65.1796 48.1587 65.0961 48.0689C65.0126 47.9794 64.9725 47.873 64.9725 47.7502C64.9725 47.6206 65.0126 47.5112 65.0961 47.4312C65.1796 47.3483 65.29 47.3084 65.4304 47.3084Z" fill="#FF3201"/>
<path d="M70.7364 43.1037C70.9439 43.1037 71.1378 43.1435 71.3248 43.2199C71.5089 43.2963 71.6759 43.4025 71.8199 43.5386C71.9635 43.6748 72.0773 43.8309 72.1607 44.0105C72.2442 44.1897 72.2843 44.3824 72.2843 44.5881V45.3855C72.2843 45.5814 72.2442 45.7741 72.1607 45.9566C72.0773 46.1394 71.9635 46.3021 71.8199 46.4415C71.6759 46.5812 71.5089 46.6906 71.3248 46.7736C71.1378 46.8568 70.9439 46.8967 70.7364 46.8967C70.529 46.8967 70.3351 46.8568 70.1481 46.7736C69.9607 46.6906 69.797 46.5812 69.653 46.4415C69.5094 46.3021 69.3956 46.1394 69.3121 45.9566C69.2283 45.7708 69.1882 45.5814 69.1882 45.3855V44.5881C69.1882 44.3922 69.2283 44.2031 69.3121 44.0235C69.3956 43.8443 69.5061 43.6849 69.6464 43.552C69.7868 43.4159 69.9508 43.3094 70.1346 43.2265C70.3183 43.1435 70.5225 43.1037 70.7364 43.1037ZM71.6424 44.5917C71.6424 44.3625 71.5556 44.1532 71.3817 43.9638C71.2078 43.7744 70.9938 43.6816 70.7397 43.6816C70.4856 43.6816 70.2684 43.7744 70.0978 43.9638C69.9239 44.1532 69.8371 44.3625 69.8371 44.5917V45.3888C69.8371 45.5115 69.8604 45.6278 69.9038 45.7375C69.9508 45.8472 70.0143 45.9468 70.0945 46.033C70.178 46.1195 70.2749 46.1891 70.3854 46.2423C70.4958 46.2955 70.6128 46.322 70.7364 46.322C70.86 46.322 70.9771 46.2955 71.0875 46.2423C71.198 46.1891 71.2949 46.1195 71.3718 46.033C71.4488 45.9468 71.5155 45.8505 71.5622 45.7375C71.6092 45.6245 71.6358 45.5115 71.6358 45.3888V44.5917H71.6424Z" fill="#FF3201"/>
<path d="M80.6973 43.2163C80.8042 43.2163 80.8844 43.2562 80.9314 43.3326C80.9781 43.409 81.0047 43.4955 81.0047 43.585C81.0047 43.6849 80.9814 43.7744 80.9314 43.8541C80.8811 43.9373 80.8042 43.9772 80.6973 43.9772H78.6307V51.8785C78.6307 51.985 78.5874 52.0647 78.5006 52.1179C78.4135 52.1711 78.3198 52.1976 78.2228 52.1976C78.116 52.1976 78.0223 52.1711 77.9388 52.1179C77.8553 52.0647 77.8152 51.985 77.8152 51.8785V43.9772H75.7355C75.6349 43.9772 75.5616 43.9373 75.508 43.8609C75.4544 43.7845 75.4278 43.6947 75.4278 43.5951C75.4278 43.5053 75.4511 43.4191 75.5014 43.3362C75.5514 43.2529 75.6283 43.2131 75.7355 43.2131H80.6973V43.2163Z" fill="#FF3201"/>
<path d="M82.6029 46.3122C83.0141 46.3122 83.3652 46.3785 83.6495 46.5081C83.9338 46.6374 84.1643 46.8137 84.3418 47.0361C84.5189 47.2588 84.6458 47.5112 84.726 47.7966C84.8029 48.0823 84.843 48.3778 84.843 48.6802V51.8753C84.843 51.9651 84.8062 52.0415 84.7329 52.1012C84.6593 52.161 84.5623 52.1943 84.4486 52.1943C84.3418 52.1943 84.2514 52.1643 84.181 52.1012C84.111 52.0382 84.0775 51.9651 84.0775 51.8753V51.3339C83.8635 51.5798 83.6028 51.7989 83.2984 51.9915C82.994 52.1842 82.6298 52.2805 82.2084 52.2805C81.9678 52.2805 81.7469 52.2475 81.5464 52.1809C81.3459 52.1146 81.1687 52.015 81.0149 51.8789C80.861 51.7424 80.744 51.5765 80.6569 51.3737C80.5701 51.1745 80.5267 50.9323 80.5267 50.6563C80.5267 50.321 80.5968 50.0454 80.7371 49.826C80.8778 49.6101 81.0717 49.4374 81.3258 49.3114C81.5766 49.185 81.8807 49.0955 82.235 49.0456C82.5897 48.9956 82.9809 48.9724 83.4122 48.9724H84.0439V48.6769C84.0439 48.481 84.0173 48.2851 83.9637 48.0856C83.9102 47.8896 83.8267 47.7104 83.7096 47.551C83.5926 47.3914 83.4421 47.2588 83.2583 47.1589C83.071 47.056 82.8471 47.006 82.5828 47.006C82.3757 47.006 82.2018 47.0263 82.0579 47.0625C81.9142 47.0991 81.7903 47.1389 81.6868 47.1856C81.5832 47.232 81.4997 47.2718 81.4327 47.3084C81.3659 47.345 81.3091 47.3649 81.2588 47.3649C81.1519 47.3649 81.0717 47.3149 81.0182 47.2186C80.9646 47.119 80.938 47.0263 80.938 46.9365C80.938 46.8536 80.9879 46.7772 81.0849 46.704C81.1819 46.6309 81.3124 46.5646 81.4761 46.5081C81.6368 46.4516 81.8173 46.4049 82.0145 46.3651C82.2051 46.3321 82.4024 46.3122 82.6029 46.3122ZM84.0374 49.5305H83.519C83.2317 49.5305 82.9572 49.5406 82.6966 49.5605C82.4359 49.5804 82.2051 49.6268 81.9977 49.7032C81.7906 49.7763 81.6299 49.8825 81.5096 50.0219C81.3893 50.1616 81.3291 50.3507 81.3291 50.5868C81.3291 50.9486 81.4327 51.2078 81.6368 51.3672C81.8439 51.5265 82.098 51.6062 82.4024 51.6062C82.5996 51.6062 82.7968 51.5664 82.9908 51.4834C83.1847 51.4005 83.3586 51.2973 83.5157 51.1713C83.6728 51.0449 83.7968 50.9055 83.8937 50.7527C83.9871 50.5998 84.0374 50.4572 84.0374 50.3177V49.5305Z" fill="#FF3201"/>
<path d="M86.7456 42.8212C86.8626 42.8212 86.956 42.8477 87.0362 42.9009C87.1131 42.9541 87.1535 43.0273 87.1535 43.1168V47.2454C87.2939 47.0097 87.501 46.7935 87.7719 46.6012C88.0427 46.4085 88.3872 46.3122 88.7984 46.3122C89.1028 46.3122 89.3901 46.3719 89.6577 46.4914C89.9252 46.611 90.1593 46.7736 90.3631 46.9829C90.5639 47.1922 90.7243 47.4348 90.8381 47.7137C90.9518 47.9928 91.0119 48.2916 91.0119 48.6103V49.9491C91.0119 50.2511 90.9518 50.5434 90.8315 50.8291C90.7108 51.1115 90.5504 51.3607 90.3499 51.5732C90.1491 51.7858 89.915 51.9585 89.6511 52.0879C89.3868 52.2175 89.1094 52.2841 88.8218 52.2841C88.4339 52.2841 88.0861 52.191 87.782 52.0017C87.4777 51.8123 87.2571 51.5932 87.1266 51.3375V51.8789C87.1266 51.9618 87.0898 52.035 87.0161 52.1012C86.9428 52.1675 86.8524 52.2008 86.7456 52.2008C86.6286 52.2008 86.5349 52.1675 86.4613 52.1012C86.3877 52.035 86.3508 51.9618 86.3508 51.8789V43.1168C86.3508 43.0273 86.3877 42.9541 86.4613 42.9009C86.5349 42.8477 86.6319 42.8212 86.7456 42.8212ZM90.2096 48.6103C90.2096 48.4144 90.1691 48.2217 90.0856 48.0327C90.0022 47.8433 89.8917 47.6771 89.7513 47.5344C89.611 47.3914 89.447 47.2751 89.2632 47.1857C89.0758 47.0959 88.8786 47.0495 88.6646 47.0495C88.474 47.0495 88.2902 47.0825 88.1131 47.1523C87.9359 47.2222 87.7751 47.3251 87.6315 47.458C87.4878 47.5941 87.3708 47.7568 87.2837 47.9494C87.1969 48.1421 87.1535 48.3615 87.1535 48.607V50.3275C87.1535 50.4173 87.1936 50.5336 87.2706 50.673C87.3472 50.8124 87.4576 50.9486 87.5914 51.0782C87.7285 51.2111 87.8889 51.3208 88.0729 51.4103C88.2567 51.5001 88.4575 51.5465 88.6715 51.5465C88.8786 51.5465 89.0726 51.5001 89.2599 51.4103C89.447 51.3208 89.6077 51.2013 89.7481 51.055C89.8884 50.9088 89.9989 50.736 90.0824 50.5434C90.1658 50.351 90.206 50.1515 90.206 49.9491V48.6103H90.2096Z" fill="#FF3201"/>
<path d="M94.4795 46.3122C94.7839 46.3122 95.0781 46.3683 95.3588 46.4781C95.6399 46.5878 95.8838 46.7438 96.0945 46.9398C96.3052 47.1357 96.4725 47.3714 96.6026 47.6474C96.7299 47.9229 96.7933 48.2217 96.7933 48.5505C96.7933 48.7899 96.7634 48.9724 96.6996 49.1021C96.6362 49.2349 96.556 49.3313 96.459 49.3976C96.3587 49.4642 96.245 49.5007 96.1112 49.5138C95.9774 49.5272 95.8473 49.5337 95.7168 49.5337H92.9214V49.9889C92.9214 50.4803 93.0986 50.8689 93.4533 51.1579C93.8076 51.4436 94.2557 51.5863 94.8007 51.5863C95.0478 51.5863 95.2487 51.5631 95.4058 51.5135C95.5629 51.4635 95.6934 51.4103 95.8003 51.3473C95.9074 51.2843 95.9975 51.2278 96.0711 51.1745C96.1448 51.1213 96.2148 51.0949 96.2818 51.0949C96.3821 51.0949 96.4623 51.1412 96.5293 51.231C96.5961 51.3208 96.6296 51.4038 96.6296 51.4769C96.6296 51.5501 96.5862 51.6363 96.4991 51.7293C96.4123 51.8224 96.2884 51.9118 96.128 51.9951C95.9676 52.0781 95.7736 52.1476 95.5462 52.2041C95.3187 52.2606 95.0613 52.2906 94.7737 52.2906C94.3858 52.2906 94.0282 52.2341 93.7038 52.1244C93.3796 52.015 93.0986 51.8554 92.8613 51.6529C92.6272 51.4469 92.4435 51.201 92.3097 50.9156C92.1759 50.6299 92.1125 50.3076 92.1125 49.9556V48.5806C92.1125 48.2782 92.1759 47.9892 92.2995 47.7136C92.4234 47.4381 92.5937 47.1987 92.8077 46.9897C93.0217 46.7804 93.2725 46.6175 93.5634 46.498C93.851 46.3719 94.1554 46.3122 94.4795 46.3122ZM95.3923 48.9427C95.6399 48.9427 95.8036 48.9159 95.8874 48.863C95.9709 48.8098 96.011 48.6968 96.011 48.5241C96.011 48.3282 95.9741 48.1355 95.9005 47.9527C95.8272 47.7701 95.7201 47.6039 95.5863 47.4547C95.4492 47.3084 95.2888 47.1889 95.0981 47.106C94.9075 47.0194 94.6968 46.9763 94.4664 46.9763C94.2524 46.9763 94.0515 47.0162 93.8678 47.0926C93.6837 47.169 93.52 47.2787 93.3796 47.4113C93.2393 47.5474 93.1288 47.7071 93.0453 47.8896C92.9615 48.0725 92.9214 48.2684 92.9214 48.4741V48.9427H95.3923Z" fill="#FF3201"/>
<path d="M98.4983 42.8212C98.6153 42.8212 98.709 42.8477 98.7892 42.9009C98.8661 42.9541 98.9062 43.0273 98.9062 43.1168V51.8789C98.9062 51.9618 98.8661 52.035 98.7892 52.1012C98.7123 52.1675 98.6153 52.2008 98.4983 52.2008C98.3813 52.2008 98.2879 52.1675 98.2143 52.1012C98.1407 52.035 98.1039 51.9618 98.1039 51.8789V43.1168C98.1039 43.0273 98.1407 42.9541 98.2143 42.9009C98.2879 42.8477 98.3849 42.8212 98.4983 42.8212Z" fill="#FF3201"/>
<path d="M100.959 43.6451C101.106 43.6451 101.234 43.6947 101.337 43.791C101.441 43.8906 101.491 44.0069 101.491 44.1466C101.491 44.2861 101.441 44.4056 101.337 44.5084C101.234 44.6116 101.11 44.6612 100.959 44.6612C100.802 44.6612 100.672 44.6116 100.565 44.5084C100.458 44.4056 100.404 44.2861 100.404 44.1466C100.404 44.0069 100.458 43.8874 100.565 43.791C100.672 43.6947 100.802 43.6451 100.959 43.6451ZM100.959 46.385C101.076 46.385 101.17 46.4118 101.25 46.4647C101.327 46.5179 101.367 46.591 101.367 46.6808V51.8789C101.367 51.9618 101.327 52.035 101.25 52.1012C101.173 52.1675 101.076 52.2008 100.959 52.2008C100.842 52.2008 100.749 52.1675 100.675 52.1012C100.601 52.035 100.565 51.9618 100.565 51.8789V46.6808C100.565 46.591 100.601 46.5179 100.675 46.4647C100.749 46.4118 100.846 46.385 100.959 46.385Z" fill="#FF3201"/>
<path d="M105.031 46.3122C105.346 46.3122 105.643 46.3719 105.928 46.4914C106.212 46.611 106.463 46.7736 106.683 46.9829C106.9 47.1922 107.074 47.4348 107.202 47.7136C107.328 47.9928 107.392 48.2916 107.392 48.6103V49.9491C107.392 50.2511 107.328 50.5434 107.202 50.8291C107.074 51.1148 106.9 51.3607 106.683 51.5732C106.466 51.7858 106.212 51.9585 105.928 52.0878C105.643 52.2175 105.342 52.2838 105.031 52.2838C104.717 52.2838 104.42 52.2207 104.142 52.0947C103.861 51.9683 103.614 51.7956 103.4 51.5798C103.186 51.3639 103.015 51.1148 102.885 50.8359C102.758 50.5567 102.694 50.2612 102.694 49.9523V48.6139C102.694 48.3115 102.758 48.0193 102.882 47.7401C103.005 47.4612 103.173 47.2154 103.383 47.0028C103.594 46.7902 103.841 46.6211 104.126 46.498C104.41 46.3752 104.707 46.3122 105.031 46.3122ZM106.59 48.6103C106.59 48.4144 106.549 48.2217 106.466 48.0327C106.382 47.8433 106.272 47.6771 106.132 47.5344C105.991 47.3914 105.827 47.2751 105.637 47.1856C105.446 47.0958 105.245 47.0495 105.031 47.0495C104.817 47.0495 104.614 47.0958 104.426 47.1856C104.236 47.2751 104.075 47.3914 103.938 47.5344C103.801 47.6771 103.694 47.8433 103.617 48.0327C103.54 48.2217 103.5 48.4144 103.5 48.6103V49.9491C103.5 50.1548 103.54 50.3543 103.617 50.5434C103.694 50.736 103.804 50.9055 103.945 51.055C104.085 51.201 104.249 51.3208 104.433 51.4103C104.617 51.5001 104.817 51.5465 105.031 51.5465C105.245 51.5465 105.45 51.5001 105.637 51.4103C105.827 51.3208 105.991 51.201 106.132 51.055C106.272 50.9087 106.382 50.736 106.466 50.5434C106.549 50.351 106.59 50.1515 106.59 49.9491V48.6103Z" fill="#FF3201"/>
<path d="M109.522 51.8789C109.522 51.9618 109.482 52.0349 109.405 52.1012C109.328 52.1675 109.231 52.2008 109.114 52.2008C108.997 52.2008 108.904 52.1675 108.83 52.1012C108.756 52.0349 108.72 51.9618 108.72 51.8789V46.6808C108.72 46.591 108.756 46.5179 108.83 46.4647C108.904 46.4118 109.001 46.385 109.114 46.385C109.215 46.385 109.298 46.4118 109.375 46.4647C109.449 46.5179 109.485 46.591 109.485 46.6808V47.2454C109.616 47.0096 109.82 46.7935 110.097 46.6012C110.375 46.4085 110.722 46.3122 111.144 46.3122C111.441 46.3122 111.722 46.3719 111.99 46.4914C112.257 46.611 112.491 46.7736 112.688 46.9829C112.886 47.1922 113.046 47.4348 113.163 47.7136C113.284 47.9928 113.344 48.2916 113.344 48.6103V51.8789C113.344 51.985 113.3 52.0647 113.213 52.1179C113.127 52.1711 113.033 52.1976 112.936 52.1976C112.846 52.1976 112.755 52.1711 112.668 52.1179C112.582 52.0647 112.538 51.985 112.538 51.8789V48.6103C112.538 48.4144 112.498 48.2217 112.414 48.0327C112.331 47.8433 112.22 47.6771 112.08 47.5344C111.94 47.3914 111.776 47.2751 111.592 47.1856C111.404 47.0958 111.207 47.0495 110.993 47.0495C110.813 47.0495 110.632 47.0825 110.455 47.1523C110.278 47.2222 110.121 47.3251 109.983 47.458C109.846 47.5941 109.736 47.7567 109.649 47.9494C109.562 48.1421 109.519 48.3615 109.519 48.607V51.8789H109.522Z" fill="#FF3201"/>
<path d="M116.524 46.3122C116.935 46.3122 117.286 46.3785 117.57 46.5081C117.854 46.6374 118.085 46.8137 118.262 47.0361C118.44 47.2588 118.567 47.5112 118.647 47.7966C118.724 48.0823 118.764 48.3778 118.764 48.6802V51.8753C118.764 51.9651 118.727 52.0415 118.654 52.1012C118.58 52.161 118.483 52.1943 118.369 52.1943C118.262 52.1943 118.172 52.1643 118.102 52.1012C118.032 52.0382 117.998 51.9651 117.998 51.8753V51.3339C117.784 51.5798 117.523 51.7989 117.219 51.9915C116.915 52.1842 116.55 52.2805 116.129 52.2805C115.888 52.2805 115.668 52.2475 115.467 52.1809C115.266 52.1146 115.089 52.015 114.935 51.8789C114.782 51.7424 114.665 51.5765 114.578 51.3737C114.491 51.1745 114.447 50.9323 114.447 50.6563C114.447 50.321 114.518 50.0454 114.658 49.826C114.798 49.6101 114.992 49.4374 115.246 49.3114C115.497 49.185 115.801 49.0955 116.156 49.0456C116.51 48.9956 116.901 48.9724 117.333 48.9724H117.965V48.6769C117.965 48.481 117.938 48.2851 117.885 48.0856C117.831 47.8896 117.747 47.7104 117.63 47.551C117.513 47.3914 117.363 47.2588 117.179 47.1589C116.992 47.056 116.768 47.006 116.504 47.006C116.296 47.006 116.122 47.0263 115.979 47.0625C115.835 47.0991 115.711 47.1389 115.608 47.1856C115.504 47.232 115.42 47.2718 115.353 47.3084C115.287 47.345 115.23 47.3649 115.18 47.3649C115.073 47.3649 114.992 47.3149 114.939 47.2186C114.885 47.119 114.859 47.0263 114.859 46.9365C114.859 46.8536 114.909 46.7772 115.006 46.704C115.103 46.6309 115.233 46.5646 115.397 46.5081C115.557 46.4516 115.738 46.4049 115.935 46.3651C116.126 46.3321 116.326 46.3122 116.524 46.3122ZM117.958 49.5305H117.44C117.152 49.5305 116.878 49.5406 116.617 49.5605C116.356 49.5804 116.126 49.6268 115.918 49.7032C115.711 49.7763 115.551 49.8825 115.43 50.0219C115.31 50.1616 115.25 50.3507 115.25 50.5868C115.25 50.9486 115.353 51.2078 115.557 51.3672C115.765 51.5265 116.019 51.6062 116.323 51.6062C116.52 51.6062 116.718 51.5664 116.912 51.4834C117.105 51.4005 117.279 51.2973 117.437 51.1713C117.594 51.0449 117.717 50.9055 117.814 50.7527C117.908 50.5998 117.958 50.4572 117.958 50.3177V49.5305Z" fill="#FF3201"/>
<path d="M121.051 50.3909C121.051 50.7925 121.134 51.0717 121.305 51.231C121.475 51.3904 121.773 51.47 122.201 51.47H122.549C122.666 51.47 122.756 51.5066 122.82 51.5798C122.886 51.6529 122.92 51.7358 122.92 51.8256C122.92 51.9252 122.886 52.0082 122.82 52.0846C122.753 52.1577 122.662 52.1943 122.549 52.1943H122.201C121.559 52.1943 121.071 52.0513 120.74 51.7692C120.409 51.4867 120.245 51.025 120.245 50.3873V43.9105C120.245 43.8211 120.288 43.7479 120.375 43.6947C120.462 43.6415 120.549 43.615 120.643 43.615C120.743 43.615 120.834 43.6415 120.92 43.6947C121.007 43.7479 121.051 43.8211 121.051 43.9105V46.3817H122.646C122.729 46.3817 122.796 46.415 122.849 46.4813C122.903 46.5479 122.93 46.6243 122.93 46.7138C122.93 46.8036 122.903 46.8833 122.849 46.9463C122.796 47.0129 122.729 47.0462 122.646 47.0462H121.051V50.3909Z" fill="#FF3201"/>
<path d="M125.939 46.3122C126.254 46.3122 126.551 46.3719 126.835 46.4914C127.119 46.611 127.37 46.7736 127.591 46.9829C127.808 47.1922 127.982 47.4348 128.109 47.7136C128.236 47.9928 128.3 48.2916 128.3 48.6103V49.9491C128.3 50.2511 128.236 50.5434 128.109 50.8291C127.982 51.1148 127.808 51.3607 127.591 51.5732C127.374 51.7858 127.119 51.9585 126.835 52.0878C126.551 52.2175 126.25 52.2838 125.939 52.2838C125.625 52.2838 125.327 52.2207 125.05 52.0947C124.769 51.9683 124.522 51.7956 124.308 51.5798C124.094 51.3639 123.923 51.1148 123.793 50.8359C123.666 50.5567 123.602 50.2612 123.602 49.9523V48.6139C123.602 48.3115 123.666 48.0193 123.789 47.7401C123.913 47.4612 124.08 47.2154 124.291 47.0028C124.502 46.7902 124.749 46.6211 125.033 46.498C125.317 46.3752 125.615 46.3122 125.939 46.3122ZM127.497 48.6103C127.497 48.4144 127.457 48.2217 127.374 48.0327C127.29 47.8433 127.18 47.6771 127.039 47.5344C126.899 47.3914 126.735 47.2751 126.545 47.1856C126.354 47.0958 126.153 47.0495 125.939 47.0495C125.725 47.0495 125.521 47.0958 125.334 47.1856C125.144 47.2751 124.983 47.3914 124.846 47.5344C124.709 47.6771 124.602 47.8433 124.525 48.0327C124.448 48.2217 124.408 48.4144 124.408 48.6103V49.9491C124.408 50.1548 124.448 50.3543 124.525 50.5434C124.602 50.736 124.712 50.9055 124.853 51.055C124.993 51.201 125.157 51.3208 125.341 51.4103C125.525 51.5001 125.725 51.5465 125.939 51.5465C126.153 51.5465 126.357 51.5001 126.545 51.4103C126.735 51.3208 126.899 51.201 127.039 51.055C127.18 50.9087 127.29 50.736 127.374 50.5434C127.457 50.351 127.497 50.1515 127.497 49.9491V48.6103Z" fill="#FF3201"/>
<path d="M136.144 42.8212C136.257 42.8212 136.351 42.8477 136.421 42.9009C136.491 42.9541 136.525 43.0273 136.525 43.1168V51.8789C136.525 51.9618 136.488 52.035 136.421 52.1012C136.351 52.1675 136.257 52.2008 136.144 52.2008C136.037 52.2008 135.946 52.1675 135.873 52.1012C135.799 52.035 135.763 51.9618 135.763 51.8789V51.3375C135.622 51.5899 135.401 51.8123 135.101 52.0017C134.799 52.191 134.455 52.2841 134.067 52.2841C133.77 52.2841 133.489 52.2175 133.225 52.0879C132.961 51.9585 132.73 51.7858 132.533 51.5732C132.335 51.3607 132.175 51.1115 132.058 50.8291C131.937 50.547 131.877 50.2547 131.877 49.9491V48.6103C131.877 48.2916 131.934 47.9928 132.051 47.7137C132.168 47.4348 132.325 47.1922 132.526 46.9829C132.727 46.7736 132.964 46.611 133.231 46.4914C133.499 46.3719 133.786 46.3122 134.091 46.3122C134.502 46.3122 134.846 46.4085 135.117 46.6012C135.388 46.7935 135.592 47.0097 135.722 47.2454V43.1168C135.722 43.0273 135.763 42.9541 135.846 42.9009C135.93 42.8477 136.026 42.8212 136.144 42.8212ZM132.68 49.9491C132.68 50.1548 132.72 50.3543 132.804 50.5434C132.887 50.736 132.997 50.9055 133.138 51.055C133.278 51.2013 133.442 51.3208 133.626 51.4103C133.813 51.5001 134.007 51.5465 134.214 51.5465C134.428 51.5465 134.629 51.5001 134.813 51.4103C134.997 51.3208 135.161 51.2111 135.294 51.0782C135.432 50.9486 135.535 50.8124 135.609 50.673C135.682 50.5336 135.719 50.4206 135.719 50.3275V48.607C135.719 48.3615 135.675 48.1421 135.589 47.9494C135.502 47.7568 135.388 47.5941 135.247 47.458C135.107 47.3218 134.947 47.2222 134.766 47.1523C134.585 47.0825 134.402 47.0495 134.221 47.0495C134.007 47.0495 133.806 47.0959 133.623 47.1857C133.439 47.2751 133.275 47.3914 133.135 47.5344C132.994 47.6771 132.884 47.8433 132.8 48.0327C132.716 48.2217 132.676 48.4144 132.676 48.6103V49.9491H132.68Z" fill="#FF3201"/>
<path d="M140.226 46.3122C140.531 46.3122 140.825 46.3683 141.106 46.4781C141.387 46.5878 141.631 46.7438 141.841 46.9398C142.052 47.1357 142.219 47.3714 142.35 47.6474C142.477 47.9229 142.54 48.2217 142.54 48.5505C142.54 48.7899 142.51 48.9724 142.447 49.1021C142.383 49.2349 142.303 49.3313 142.206 49.3976C142.106 49.4642 141.992 49.5007 141.858 49.5138C141.724 49.5272 141.594 49.5337 141.464 49.5337H138.668V49.9889C138.668 50.4803 138.846 50.8689 139.2 51.1579C139.555 51.4436 140.003 51.5863 140.548 51.5863C140.795 51.5863 140.996 51.5631 141.153 51.5135C141.31 51.4635 141.44 51.4103 141.547 51.3473C141.654 51.2843 141.744 51.2278 141.818 51.1745C141.892 51.1213 141.962 51.0949 142.029 51.0949C142.129 51.0949 142.209 51.1412 142.276 51.231C142.343 51.3208 142.377 51.4038 142.377 51.4769C142.377 51.5501 142.333 51.6363 142.246 51.7293C142.159 51.8224 142.035 51.9118 141.875 51.9951C141.715 52.0781 141.521 52.1476 141.293 52.2041C141.066 52.2606 140.808 52.2906 140.521 52.2906C140.133 52.2906 139.775 52.2341 139.451 52.1244C139.127 52.015 138.846 51.8554 138.608 51.6529C138.374 51.4469 138.19 51.201 138.057 50.9156C137.923 50.6299 137.859 50.3076 137.859 49.9556V48.5806C137.859 48.2782 137.923 47.9892 138.046 47.7136C138.17 47.4381 138.341 47.1987 138.555 46.9897C138.769 46.7804 139.019 46.6175 139.31 46.498C139.598 46.3719 139.906 46.3122 140.226 46.3122ZM141.143 48.9427C141.39 48.9427 141.554 48.9159 141.638 48.863C141.721 48.8098 141.761 48.6968 141.761 48.5241C141.761 48.3282 141.724 48.1355 141.651 47.9527C141.577 47.7701 141.47 47.6039 141.336 47.4547C141.199 47.3084 141.039 47.1889 140.848 47.106C140.658 47.0194 140.447 46.9763 140.217 46.9763C140.003 46.9763 139.802 47.0162 139.618 47.0926C139.434 47.169 139.27 47.2787 139.13 47.4113C138.99 47.5474 138.879 47.7071 138.796 47.8896C138.712 48.0725 138.672 48.2684 138.672 48.4741V48.9427H141.143Z" fill="#FF3201"/>
<path d="M151.187 52.1976C151.07 52.1976 150.969 52.1512 150.879 52.0549C150.789 51.9618 150.709 51.8521 150.645 51.7293L147.205 45.0798V51.8753C147.205 51.9817 147.161 52.0614 147.074 52.1146C146.987 52.1675 146.894 52.1943 146.797 52.1943C146.69 52.1943 146.596 52.1675 146.512 52.1146C146.429 52.0614 146.389 51.9817 146.389 51.8753V43.522C146.389 43.4057 146.429 43.3261 146.512 43.2829C146.596 43.2363 146.69 43.2163 146.797 43.2163C146.944 43.2163 147.068 43.2728 147.168 43.3825C147.268 43.4923 147.358 43.6248 147.439 43.7812L150.779 50.3177V43.5086C150.779 43.4025 150.819 43.3261 150.903 43.2829C150.986 43.2398 151.08 43.2163 151.187 43.2163C151.287 43.2163 151.377 43.2398 151.464 43.2829C151.551 43.3261 151.595 43.4025 151.595 43.5086V51.8785C151.595 51.985 151.551 52.0647 151.464 52.1179C151.377 52.1711 151.287 52.1976 151.187 52.1976Z" fill="#FF3201"/>
<path d="M155.356 46.3122C155.671 46.3122 155.968 46.3719 156.252 46.4914C156.536 46.611 156.787 46.7736 157.008 46.9829C157.225 47.1922 157.399 47.4348 157.526 47.7136C157.653 47.9928 157.717 48.2916 157.717 48.6103V49.9491C157.717 50.2511 157.653 50.5434 157.526 50.8291C157.399 51.1148 157.225 51.3607 157.008 51.5732C156.791 51.7858 156.536 51.9585 156.252 52.0878C155.968 52.2175 155.667 52.2838 155.356 52.2838C155.042 52.2838 154.744 52.2207 154.467 52.0947C154.186 51.9683 153.939 51.7956 153.725 51.5798C153.511 51.3639 153.34 51.1148 153.21 50.8359C153.083 50.5567 153.019 50.2612 153.019 49.9523V48.6139C153.019 48.3115 153.083 48.0193 153.206 47.7401C153.33 47.4612 153.497 47.2154 153.708 47.0028C153.919 46.7902 154.166 46.6211 154.45 46.498C154.734 46.3752 155.035 46.3122 155.356 46.3122ZM156.914 48.6103C156.914 48.4144 156.874 48.2217 156.79 48.0327C156.707 47.8433 156.597 47.6771 156.456 47.5344C156.316 47.3914 156.152 47.2751 155.961 47.1856C155.771 47.0958 155.57 47.0495 155.356 47.0495C155.142 47.0495 154.938 47.0958 154.751 47.1856C154.561 47.2751 154.4 47.3914 154.263 47.5344C154.126 47.6771 154.019 47.8433 153.942 48.0327C153.865 48.2217 153.825 48.4144 153.825 48.6103V49.9491C153.825 50.1548 153.865 50.3543 153.942 50.5434C154.019 50.736 154.129 50.9055 154.27 51.055C154.41 51.201 154.574 51.3208 154.758 51.4103C154.941 51.5001 155.142 51.5465 155.356 51.5465C155.57 51.5465 155.774 51.5001 155.961 51.4103C156.152 51.3208 156.316 51.201 156.456 51.055C156.597 50.9087 156.707 50.736 156.79 50.5434C156.874 50.351 156.914 50.1515 156.914 49.9491V48.6103Z" fill="#FF3201"/>
<path d="M159.823 50.3909C159.823 50.7925 159.906 51.0717 160.077 51.231C160.247 51.3904 160.545 51.47 160.973 51.47H161.321C161.438 51.47 161.528 51.5066 161.592 51.5798C161.658 51.6529 161.692 51.7358 161.692 51.8256C161.692 51.9252 161.658 52.0082 161.592 52.0846C161.525 52.1577 161.434 52.1943 161.321 52.1943H160.973C160.331 52.1943 159.843 52.0513 159.512 51.7692C159.181 51.4867 159.017 51.025 159.017 50.3873V43.9105C159.017 43.8211 159.061 43.7479 159.147 43.6947C159.234 43.6415 159.321 43.615 159.415 43.615C159.515 43.615 159.606 43.6415 159.692 43.6947C159.779 43.7479 159.823 43.8211 159.823 43.9105V46.3817H161.418C161.501 46.3817 161.568 46.415 161.622 46.4813C161.675 46.5479 161.702 46.6243 161.702 46.7138C161.702 46.8036 161.675 46.8833 161.622 46.9463C161.568 47.0129 161.501 47.0462 161.418 47.0462H159.823V50.3909Z" fill="#FF3201"/>
<path d="M164.387 46.3122C164.798 46.3122 165.149 46.3785 165.434 46.5081C165.718 46.6374 165.948 46.8137 166.126 47.0361C166.303 47.2588 166.43 47.5112 166.51 47.7966C166.587 48.0823 166.627 48.3778 166.627 48.6802V51.8753C166.627 51.9651 166.59 52.0415 166.517 52.1012C166.443 52.161 166.346 52.1943 166.233 52.1943C166.126 52.1943 166.035 52.1643 165.965 52.1012C165.895 52.0382 165.862 51.9651 165.862 51.8753V51.3339C165.648 51.5798 165.387 51.7989 165.083 51.9915C164.778 52.1842 164.414 52.2805 163.993 52.2805C163.752 52.2805 163.531 52.2475 163.33 52.1809C163.13 52.1146 162.952 52.015 162.799 51.8789C162.645 51.7424 162.528 51.5765 162.441 51.3737C162.354 51.1745 162.311 50.9323 162.311 50.6563C162.311 50.321 162.381 50.0454 162.521 49.826C162.662 49.6101 162.856 49.4374 163.11 49.3114C163.36 49.185 163.665 49.0955 164.019 49.0456C164.373 48.9956 164.765 48.9724 165.196 48.9724H165.828V48.6769C165.828 48.481 165.801 48.2851 165.748 48.0856C165.694 47.8896 165.611 47.7104 165.494 47.551C165.377 47.3914 165.226 47.2588 165.042 47.1589C164.855 47.056 164.631 47.006 164.367 47.006C164.159 47.006 163.986 47.0263 163.842 47.0625C163.698 47.0991 163.574 47.1389 163.471 47.1856C163.367 47.232 163.283 47.2718 163.217 47.3084C163.15 47.345 163.093 47.3649 163.043 47.3649C162.936 47.3649 162.856 47.3149 162.802 47.2186C162.749 47.119 162.722 47.0263 162.722 46.9365C162.722 46.8536 162.772 46.7772 162.869 46.704C162.966 46.6309 163.096 46.5646 163.26 46.5081C163.421 46.4516 163.601 46.4049 163.799 46.3651C163.993 46.3321 164.19 46.3122 164.387 46.3122ZM165.821 49.5305H165.303C165.015 49.5305 164.741 49.5406 164.481 49.5605C164.22 49.5804 163.989 49.6268 163.782 49.7032C163.574 49.7763 163.414 49.8825 163.294 50.0219C163.173 50.1616 163.113 50.3507 163.113 50.5868C163.113 50.9486 163.217 51.2078 163.421 51.3672C163.628 51.5265 163.882 51.6062 164.186 51.6062C164.384 51.6062 164.581 51.5664 164.775 51.4834C164.969 51.4005 165.143 51.2973 165.3 51.1713C165.457 51.0449 165.581 50.9055 165.677 50.7527C165.771 50.5998 165.821 50.4572 165.821 50.3177V49.5305Z" fill="#FF3201"/>
<path d="M169.68 51.6098C170.151 51.6098 170.479 51.5233 170.67 51.3505C170.86 51.1778 170.954 50.9754 170.954 50.7363C170.954 50.4673 170.877 50.258 170.726 50.1084C170.573 49.9621 170.385 49.8426 170.165 49.7532C169.944 49.6634 169.697 49.5837 169.429 49.5138C169.161 49.4443 168.914 49.3512 168.693 49.2382C168.47 49.122 168.282 48.9724 168.132 48.783C167.978 48.594 167.904 48.3282 167.904 47.986C167.904 47.79 167.938 47.5941 168.008 47.3949C168.078 47.199 168.192 47.0194 168.349 46.8601C168.506 46.7007 168.707 46.5678 168.954 46.4683C169.202 46.3651 169.503 46.3154 169.857 46.3154C170.064 46.3154 170.265 46.3354 170.462 46.3719C170.659 46.4085 170.837 46.4549 170.994 46.5081C171.151 46.5613 171.275 46.6243 171.372 46.6975C171.465 46.7703 171.515 46.8434 171.515 46.9198C171.515 46.9865 171.485 47.0727 171.422 47.1788C171.362 47.2852 171.278 47.3385 171.181 47.3385C171.131 47.3385 171.071 47.3185 170.994 47.282C170.92 47.2454 170.83 47.2056 170.723 47.1657C170.616 47.1259 170.492 47.086 170.352 47.0495C170.211 47.0129 170.051 46.993 169.87 46.993C169.64 46.993 169.446 47.0227 169.289 47.086C169.132 47.1491 169.004 47.2255 168.904 47.3185C168.804 47.4116 168.733 47.5177 168.693 47.6307C168.653 47.7469 168.63 47.8531 168.63 47.9494C168.63 48.1887 168.707 48.368 168.857 48.4908C169.011 48.6139 169.198 48.7135 169.426 48.7932C169.653 48.8696 169.897 48.946 170.161 49.0158C170.425 49.0854 170.67 49.185 170.897 49.3114C171.124 49.4374 171.315 49.6101 171.465 49.826C171.619 50.0421 171.693 50.3376 171.693 50.7063C171.693 51.1977 171.519 51.5863 171.174 51.8687C170.83 52.1512 170.339 52.2939 169.703 52.2939C169.416 52.2939 169.152 52.2642 168.911 52.2077C168.67 52.1512 168.466 52.078 168.299 51.9915C168.128 51.9053 167.998 51.809 167.904 51.7029C167.811 51.5964 167.76 51.4968 167.76 51.407C167.76 51.3241 167.787 51.2444 167.841 51.1615C167.894 51.0782 167.961 51.0384 168.045 51.0384C168.112 51.0384 168.182 51.0684 168.256 51.1314C168.329 51.1912 168.426 51.2575 168.546 51.3274C168.667 51.3972 168.814 51.4635 168.991 51.5233C169.172 51.5798 169.402 51.6098 169.68 51.6098Z" fill="#FF3201"/>
<path d="M181.89 42.8212C182.004 42.8212 182.098 42.8477 182.168 42.9009C182.238 42.9541 182.272 43.0273 182.272 43.1168V51.8789C182.272 51.9618 182.235 52.035 182.168 52.1012C182.098 52.1675 182.004 52.2008 181.89 52.2008C181.784 52.2008 181.693 52.1675 181.62 52.1012C181.546 52.035 181.509 51.9618 181.509 51.8789V51.3375C181.369 51.5899 181.148 51.8123 180.847 52.0017C180.546 52.191 180.202 52.2841 179.814 52.2841C179.516 52.2841 179.236 52.2175 178.971 52.0879C178.708 51.9585 178.477 51.7858 178.28 51.5732C178.082 51.3607 177.922 51.1115 177.805 50.8291C177.684 50.547 177.624 50.2547 177.624 49.9491V48.6103C177.624 48.2916 177.681 47.9928 177.798 47.7137C177.915 47.4348 178.072 47.1922 178.273 46.9829C178.473 46.7736 178.711 46.611 178.978 46.4914C179.246 46.3719 179.533 46.3122 179.838 46.3122C180.249 46.3122 180.593 46.4085 180.864 46.6012C181.135 46.7935 181.339 47.0097 181.469 47.2454V43.1168C181.469 43.0273 181.509 42.9541 181.593 42.9009C181.676 42.8477 181.777 42.8212 181.89 42.8212ZM178.426 49.9491C178.426 50.1548 178.467 50.3543 178.55 50.5434C178.634 50.736 178.744 50.9055 178.885 51.055C179.025 51.2013 179.189 51.3208 179.373 51.4103C179.56 51.5001 179.754 51.5465 179.961 51.5465C180.175 51.5465 180.376 51.5001 180.56 51.4103C180.744 51.3208 180.908 51.2111 181.041 51.0782C181.178 50.9486 181.282 50.8124 181.356 50.673C181.429 50.5336 181.466 50.4206 181.466 50.3275V48.607C181.466 48.3615 181.422 48.1421 181.336 47.9494C181.248 47.7568 181.135 47.5941 180.994 47.458C180.854 47.3218 180.694 47.2222 180.513 47.1523C180.332 47.0825 180.149 47.0495 179.968 47.0495C179.754 47.0495 179.553 47.0959 179.37 47.1857C179.185 47.2751 179.022 47.3914 178.881 47.5344C178.741 47.6771 178.631 47.8433 178.547 48.0327C178.463 48.2217 178.423 48.4144 178.423 48.6103V49.9491H178.426Z" fill="#FF3201"/>
<path d="M185.973 46.3122C186.277 46.3122 186.572 46.3683 186.852 46.4781C187.133 46.5878 187.377 46.7438 187.588 46.9398C187.799 47.1357 187.966 47.3714 188.096 47.6474C188.223 47.9229 188.287 48.2217 188.287 48.5505C188.287 48.7899 188.257 48.9724 188.193 49.1021C188.13 49.2349 188.049 49.3313 187.953 49.3976C187.852 49.4642 187.739 49.5007 187.605 49.5138C187.471 49.5272 187.34 49.5337 187.21 49.5337H184.415V49.9889C184.415 50.4803 184.592 50.8689 184.946 51.1579C185.301 51.4436 185.749 51.5863 186.294 51.5863C186.541 51.5863 186.742 51.5631 186.899 51.5135C187.056 51.4635 187.187 51.4103 187.294 51.3473C187.401 51.2843 187.491 51.2278 187.565 51.1745C187.638 51.1213 187.708 51.0949 187.775 51.0949C187.876 51.0949 187.956 51.1412 188.023 51.231C188.09 51.3208 188.123 51.4038 188.123 51.4769C188.123 51.5501 188.079 51.6363 187.993 51.7293C187.905 51.8224 187.782 51.9118 187.621 51.9951C187.461 52.0781 187.267 52.1476 187.04 52.2041C186.812 52.2606 186.555 52.2906 186.267 52.2906C185.879 52.2906 185.522 52.2341 185.197 52.1244C184.873 52.015 184.592 51.8554 184.355 51.6529C184.121 51.4469 183.937 51.201 183.803 50.9156C183.669 50.6299 183.606 50.3076 183.606 49.9556V48.5806C183.606 48.2782 183.669 47.9892 183.793 47.7136C183.917 47.4381 184.087 47.1987 184.301 46.9897C184.515 46.7804 184.766 46.6175 185.057 46.498C185.348 46.3719 185.652 46.3122 185.973 46.3122ZM186.889 48.9427C187.137 48.9427 187.3 48.9159 187.384 48.863C187.468 48.8098 187.508 48.6968 187.508 48.5241C187.508 48.3282 187.471 48.1355 187.397 47.9527C187.324 47.7701 187.217 47.6039 187.083 47.4547C186.946 47.3084 186.786 47.1889 186.595 47.106C186.404 47.0194 186.194 46.9763 185.963 46.9763C185.749 46.9763 185.548 47.0162 185.365 47.0926C185.18 47.169 185.017 47.2787 184.876 47.4113C184.736 47.5474 184.626 47.7071 184.542 47.8896C184.458 48.0725 184.418 48.2684 184.418 48.4741V48.9427H186.889Z" fill="#FF3201"/>
<path d="M194.128 51.5233C194.707 51.5233 195.158 51.3806 195.483 51.0981C195.807 50.816 195.971 50.3909 195.971 49.826C195.971 49.3744 195.87 49.0224 195.666 48.7631C195.466 48.5042 195.212 48.2949 194.904 48.1355C194.6 47.9762 194.269 47.84 193.914 47.7238C193.56 47.6075 193.229 47.4645 192.925 47.2918C192.621 47.119 192.366 46.8898 192.162 46.6044C191.962 46.3187 191.858 45.9233 191.858 45.4253C191.858 44.9734 191.942 44.6047 192.105 44.319C192.269 44.0336 192.48 43.8044 192.738 43.6382C192.992 43.4687 193.276 43.3525 193.583 43.2895C193.891 43.2232 194.192 43.1899 194.479 43.1899C194.71 43.1899 194.951 43.2098 195.198 43.2464C195.446 43.2829 195.67 43.3362 195.874 43.3992C196.074 43.4655 196.242 43.5451 196.368 43.6382C196.496 43.7313 196.559 43.8341 196.559 43.9406C196.559 44.0235 196.529 44.1198 196.465 44.2296C196.405 44.3389 196.315 44.3954 196.198 44.3954C196.141 44.3954 196.068 44.3723 195.981 44.3226C195.894 44.2727 195.783 44.2194 195.653 44.1629C195.519 44.1065 195.359 44.0536 195.165 44.0036C194.971 43.954 194.737 43.9305 194.466 43.9305C194.235 43.9305 194.011 43.954 193.797 43.9971C193.583 44.0434 193.389 44.1198 193.222 44.2296C193.052 44.3389 192.918 44.4885 192.821 44.6714C192.721 44.8571 192.674 45.0831 192.674 45.3522C192.674 45.7274 192.774 46.0232 192.978 46.2322C193.179 46.4415 193.433 46.6142 193.74 46.7536C194.045 46.8934 194.376 47.0194 194.73 47.1357C195.085 47.2519 195.416 47.408 195.72 47.6075C196.024 47.8067 196.278 48.0758 196.482 48.4046C196.686 48.7334 196.787 49.185 196.787 49.7496C196.787 50.1848 196.723 50.56 196.596 50.879C196.469 51.1977 196.288 51.4635 196.058 51.6728C195.827 51.8821 195.549 52.0349 195.229 52.1345C194.907 52.2341 194.556 52.2805 194.175 52.2805C193.781 52.2805 193.426 52.2309 193.112 52.1345C192.798 52.0382 192.533 51.9187 192.313 51.7858C192.096 51.6496 191.928 51.5066 191.811 51.3538C191.694 51.201 191.637 51.0684 191.637 50.9554C191.637 50.8558 191.677 50.7559 191.754 50.6531C191.831 50.5502 191.918 50.5002 192.008 50.5002C192.092 50.5002 192.172 50.5535 192.256 50.6596C192.339 50.766 192.453 50.8823 192.604 51.0083C192.751 51.1347 192.945 51.2509 193.186 51.3574C193.426 51.47 193.74 51.5233 194.128 51.5233Z" fill="#FF3201"/>
<path d="M199.755 46.3122C200.167 46.3122 200.518 46.3785 200.802 46.5081C201.086 46.6374 201.317 46.8137 201.494 47.0361C201.671 47.2588 201.798 47.5112 201.879 47.7966C201.956 48.0823 201.996 48.3778 201.996 48.6802V51.8753C201.996 51.9651 201.959 52.0415 201.885 52.1012C201.812 52.161 201.715 52.1943 201.601 52.1943C201.494 52.1943 201.404 52.1643 201.334 52.1012C201.263 52.0382 201.23 51.9651 201.23 51.8753V51.3339C201.016 51.5798 200.755 51.7989 200.451 51.9915C200.147 52.1842 199.782 52.2805 199.361 52.2805C199.12 52.2805 198.9 52.2475 198.699 52.1809C198.498 52.1146 198.321 52.015 198.167 51.8789C198.013 51.7424 197.896 51.5765 197.81 51.3737C197.722 51.1745 197.679 50.9323 197.679 50.6563C197.679 50.321 197.749 50.0454 197.89 49.826C198.03 49.6101 198.224 49.4374 198.478 49.3114C198.729 49.185 199.033 49.0955 199.388 49.0456C199.742 48.9956 200.133 48.9724 200.564 48.9724H201.197V48.6769C201.197 48.481 201.17 48.2851 201.116 48.0856C201.063 47.8896 200.979 47.7104 200.862 47.551C200.745 47.3914 200.595 47.2588 200.411 47.1589C200.224 47.056 199.999 47.0061 199.735 47.0061C199.528 47.0061 199.354 47.0263 199.21 47.0625C199.067 47.0991 198.943 47.139 198.839 47.1856C198.735 47.232 198.652 47.2719 198.585 47.3084C198.518 47.345 198.461 47.3649 198.411 47.3649C198.304 47.3649 198.224 47.315 198.17 47.2186C198.117 47.119 198.09 47.0263 198.09 46.9365C198.09 46.8536 198.141 46.7772 198.238 46.704C198.334 46.6309 198.465 46.5646 198.629 46.5081C198.789 46.4516 198.97 46.4049 199.167 46.3651C199.361 46.3321 199.558 46.3122 199.755 46.3122ZM199.073 44.2861C198.94 44.2861 198.829 44.306 198.732 44.3491C198.639 44.3889 198.558 44.4353 198.492 44.4852C198.425 44.5352 198.364 44.5783 198.311 44.6214C198.258 44.6612 198.207 44.6844 198.157 44.6844C198.073 44.6844 198.013 44.6514 197.977 44.5816C197.94 44.5117 197.92 44.4454 197.92 44.3791C197.92 44.2629 197.956 44.163 198.03 44.0767C198.104 43.9902 198.197 43.9174 198.308 43.8541C198.418 43.791 198.538 43.7479 198.665 43.7179C198.792 43.6882 198.906 43.6748 199.006 43.6748C199.163 43.6748 199.307 43.698 199.438 43.7414C199.568 43.7878 199.699 43.8341 199.822 43.8841C199.946 43.9341 200.073 43.9804 200.2 44.0268C200.327 44.0735 200.474 44.0934 200.638 44.0934C200.778 44.0934 200.892 44.0735 200.979 44.0369C201.066 44.0003 201.136 43.9605 201.197 43.9141C201.253 43.8674 201.307 43.8276 201.35 43.791C201.397 43.7545 201.447 43.7345 201.504 43.7345C201.588 43.7345 201.648 43.7679 201.688 43.8341C201.728 43.9008 201.751 43.9605 201.751 44.017C201.751 44.1398 201.715 44.2462 201.641 44.3357C201.568 44.4255 201.477 44.4986 201.37 44.5584C201.263 44.6149 201.15 44.658 201.029 44.6812C200.909 44.7043 200.805 44.7177 200.715 44.7177C200.551 44.7177 200.401 44.6945 200.27 44.6514C200.14 44.6047 200.013 44.5584 199.893 44.5052C199.772 44.4519 199.648 44.4023 199.515 44.3592C199.388 44.306 199.24 44.2861 199.073 44.2861ZM201.19 49.5305H200.672C200.384 49.5305 200.11 49.5406 199.849 49.5605C199.588 49.5804 199.357 49.6268 199.15 49.7032C198.943 49.7763 198.782 49.8825 198.662 50.0219C198.542 50.1616 198.481 50.3507 198.481 50.5868C198.481 50.9486 198.585 51.2078 198.789 51.3672C198.996 51.5265 199.251 51.6062 199.555 51.6062C199.752 51.6062 199.949 51.5664 200.143 51.4834C200.337 51.4005 200.511 51.2973 200.668 51.1713C200.825 51.0449 200.949 50.9055 201.046 50.7527C201.14 50.5998 201.19 50.4572 201.19 50.3177V49.5305Z" fill="#FF3201"/>
<path d="M205.607 46.3122C205.921 46.3122 206.219 46.3719 206.503 46.4914C206.787 46.611 207.038 46.7736 207.259 46.9829C207.476 47.1922 207.65 47.4348 207.777 47.7136C207.904 47.9928 207.967 48.2916 207.967 48.6103V49.9491C207.967 50.2511 207.904 50.5434 207.777 50.8291C207.65 51.1148 207.476 51.3607 207.259 51.5732C207.041 51.7858 206.787 51.9585 206.503 52.0878C206.219 52.2175 205.918 52.2838 205.607 52.2838C205.293 52.2838 204.995 52.2207 204.717 52.0947C204.437 51.9683 204.189 51.7956 203.975 51.5798C203.761 51.3639 203.591 51.1148 203.46 50.8359C203.333 50.5567 203.27 50.2612 203.27 49.9523V48.6139C203.27 48.3115 203.333 48.0193 203.457 47.7401C203.581 47.4612 203.748 47.2154 203.958 47.0028C204.169 46.7902 204.417 46.6211 204.701 46.498C204.985 46.3752 205.286 46.3122 205.607 46.3122ZM207.165 48.6103C207.165 48.4144 207.125 48.2217 207.041 48.0327C206.958 47.8433 206.847 47.6771 206.707 47.5344C206.566 47.3914 206.403 47.2751 206.212 47.1856C206.021 47.0958 205.821 47.0495 205.607 47.0495C205.393 47.0495 205.189 47.0958 205.002 47.1856C204.811 47.2751 204.651 47.3914 204.514 47.5344C204.377 47.6771 204.269 47.8433 204.192 48.0327C204.116 48.2217 204.075 48.4144 204.075 48.6103V49.9491C204.075 50.1548 204.116 50.3543 204.192 50.5434C204.269 50.736 204.38 50.9055 204.52 51.055C204.661 51.201 204.825 51.3208 205.008 51.4103C205.192 51.5001 205.393 51.5465 205.607 51.5465C205.821 51.5465 206.025 51.5001 206.212 51.4103C206.403 51.3208 206.566 51.201 206.707 51.055C206.847 50.9087 206.958 50.736 207.041 50.5434C207.125 50.351 207.165 50.1515 207.165 49.9491V48.6103Z" fill="#FF3201"/>
<path d="M211.929 43.5089C211.929 43.3293 212.046 43.2297 212.277 43.2131H214.554C214.908 43.2131 215.243 43.2598 215.557 43.3561C215.871 43.4488 216.142 43.5984 216.366 43.8044C216.593 44.0101 216.771 44.2759 216.904 44.608C217.035 44.9404 217.102 45.3421 217.102 45.8172V45.9399C217.102 46.415 217.035 46.8203 216.904 47.1491C216.771 47.4812 216.59 47.7502 216.359 47.9595C216.129 48.1688 215.858 48.3213 215.543 48.4144C215.229 48.5074 214.892 48.5574 214.53 48.5574H212.748V51.8753C212.748 51.9817 212.705 52.0614 212.618 52.1146C212.531 52.1675 212.437 52.1943 212.341 52.1943C212.233 52.1943 212.14 52.1675 212.056 52.1146C211.973 52.0614 211.933 51.9817 211.933 51.8753V43.5089H211.929ZM212.745 43.9638V47.8599H214.527C215.079 47.8599 215.51 47.7071 215.821 47.3982C216.129 47.0926 216.286 46.6175 216.286 45.9798V45.8338C216.286 45.1961 216.132 44.7243 215.821 44.4222C215.51 44.1199 215.082 43.967 214.527 43.967H212.745V43.9638Z" fill="#FF3201"/>
<path d="M219.784 46.3122C220.195 46.3122 220.546 46.3785 220.83 46.5081C221.114 46.6374 221.345 46.8137 221.522 47.0361C221.699 47.2588 221.826 47.5112 221.907 47.7966C221.984 48.0823 222.024 48.3778 222.024 48.6802V51.8753C222.024 51.9651 221.987 52.0415 221.913 52.1012C221.84 52.1643 221.743 52.1943 221.629 52.1943C221.522 52.1943 221.432 52.1643 221.365 52.1012C221.295 52.0382 221.261 51.9651 221.261 51.8753V51.3339C221.047 51.5798 220.786 51.7989 220.482 51.9915C220.178 52.1842 219.813 52.2805 219.392 52.2805C219.151 52.2805 218.931 52.2475 218.73 52.1809C218.526 52.1146 218.352 52.015 218.198 51.8789C218.045 51.7424 217.928 51.5765 217.841 51.3737C217.754 51.1745 217.71 50.9323 217.71 50.6563C217.71 50.321 217.781 50.0454 217.921 49.826C218.061 49.6101 218.255 49.4374 218.509 49.3114C218.76 49.185 219.065 49.0955 219.419 49.0456C219.773 48.9956 220.164 48.9724 220.596 48.9724H221.228V48.6769C221.228 48.481 221.201 48.2851 221.148 48.0856C221.094 47.8896 221.011 47.7104 220.894 47.551C220.777 47.3914 220.629 47.2588 220.442 47.1589C220.258 47.056 220.031 47.006 219.767 47.006C219.559 47.006 219.385 47.0263 219.242 47.0625C219.098 47.0991 218.974 47.1389 218.871 47.1856C218.767 47.232 218.683 47.2718 218.617 47.3084C218.55 47.345 218.493 47.3649 218.443 47.3649C218.336 47.3649 218.255 47.3149 218.202 47.2186C218.148 47.1223 218.122 47.0263 218.122 46.9365C218.122 46.8536 218.172 46.7772 218.269 46.704C218.366 46.6309 218.496 46.5646 218.66 46.5081C218.82 46.4516 219.001 46.4049 219.198 46.3651C219.389 46.3321 219.586 46.3122 219.784 46.3122ZM221.218 49.5305H220.7C220.412 49.5305 220.138 49.5406 219.877 49.5605C219.616 49.5804 219.385 49.6268 219.178 49.7032C218.971 49.7763 218.811 49.8825 218.69 50.0219C218.57 50.1616 218.509 50.3507 218.509 50.5868C218.509 50.9486 218.613 51.2078 218.817 51.3672C219.025 51.5265 219.279 51.6062 219.583 51.6062C219.78 51.6062 219.977 51.5664 220.171 51.4834C220.365 51.4005 220.539 51.2973 220.696 51.1713C220.853 51.0449 220.977 50.9055 221.074 50.7527C221.168 50.5998 221.218 50.4572 221.218 50.3177V49.5305Z" fill="#FF3201"/>
<path d="M225.822 52.2838C225.501 52.2838 225.193 52.2207 224.906 52.0947C224.618 51.9683 224.367 51.7989 224.157 51.583C223.946 51.3705 223.779 51.1249 223.655 50.8457C223.531 50.5669 223.468 50.2779 223.468 49.9723V46.6906C223.468 46.6175 223.508 46.5479 223.585 46.4813C223.662 46.415 223.759 46.3817 223.876 46.3817C223.983 46.3817 224.076 46.415 224.153 46.4813C224.23 46.5479 224.27 46.6175 224.27 46.6906V49.9723C224.27 50.1682 224.311 50.3608 224.387 50.5502C224.464 50.7396 224.575 50.9055 224.715 51.055C224.856 51.201 225.02 51.3208 225.21 51.4103C225.401 51.5001 225.601 51.5465 225.815 51.5465C226.029 51.5465 226.23 51.5034 226.414 51.4172C226.598 51.3306 226.761 51.2144 226.902 51.0684C227.042 50.9221 227.153 50.7527 227.236 50.5636C227.32 50.3742 227.36 50.1783 227.36 49.9723V46.6772C227.36 46.5943 227.4 46.5247 227.477 46.4683C227.554 46.4118 227.651 46.3817 227.768 46.3817C227.885 46.3817 227.979 46.4118 228.052 46.4683C228.126 46.5247 228.162 46.5943 228.162 46.6772V49.9723C228.162 50.2844 228.099 50.5799 227.975 50.8559C227.851 51.1347 227.681 51.3773 227.467 51.5863C227.253 51.7956 227.002 51.9618 226.718 52.0914C226.447 52.2207 226.143 52.2838 225.822 52.2838Z" fill="#FF3201"/>
<path d="M230.162 42.8212C230.279 42.8212 230.373 42.8477 230.453 42.9009C230.53 42.9541 230.57 43.0273 230.57 43.1168V51.8789C230.57 51.9618 230.53 52.035 230.453 52.1012C230.373 52.1675 230.279 52.2008 230.162 52.2008C230.045 52.2008 229.951 52.1675 229.878 52.1012C229.804 52.035 229.767 51.9618 229.767 51.8789V43.1168C229.767 43.0273 229.804 42.9541 229.878 42.9009C229.951 42.8477 230.048 42.8212 230.162 42.8212Z" fill="#FF3201"/>
<path d="M234.331 46.3122C234.645 46.3122 234.943 46.3719 235.227 46.4914C235.511 46.611 235.762 46.7736 235.983 46.9829C236.204 47.1922 236.374 47.4348 236.501 47.7136C236.628 47.9928 236.692 48.2916 236.692 48.6103V49.9491C236.692 50.2511 236.628 50.5434 236.501 50.8291C236.374 51.1115 236.2 51.3607 235.983 51.5732C235.765 51.7858 235.511 51.9585 235.227 52.0878C234.943 52.2175 234.642 52.2838 234.331 52.2838C234.02 52.2838 233.719 52.2207 233.442 52.0947C233.164 51.9683 232.913 51.7956 232.699 51.5798C232.485 51.3639 232.315 51.1148 232.184 50.8359C232.058 50.5567 231.994 50.2612 231.994 49.9523V48.6139C231.994 48.3115 232.058 48.0193 232.181 47.7401C232.305 47.4612 232.472 47.2154 232.683 47.0028C232.893 46.7902 233.141 46.6211 233.425 46.498C233.706 46.3752 234.01 46.3122 234.331 46.3122ZM235.889 48.6103C235.889 48.4144 235.849 48.2217 235.765 48.0327C235.682 47.8433 235.571 47.6771 235.431 47.5344C235.291 47.3914 235.127 47.2751 234.936 47.1856C234.746 47.0958 234.545 47.0495 234.331 47.0495C234.117 47.0495 233.913 47.0958 233.726 47.1856C233.535 47.2751 233.375 47.3914 233.238 47.5344C233.101 47.6771 232.994 47.8433 232.917 48.0327C232.84 48.2217 232.8 48.4144 232.8 48.6103V49.9491C232.8 50.1548 232.84 50.3543 232.917 50.5434C232.994 50.736 233.104 50.9055 233.244 51.055C233.385 51.201 233.549 51.3208 233.733 51.4103C233.916 51.5001 234.117 51.5465 234.331 51.5465C234.545 51.5465 234.749 51.5001 234.936 51.4103C235.127 51.3208 235.291 51.201 235.431 51.055C235.571 50.9087 235.682 50.736 235.765 50.5434C235.849 50.351 235.889 50.1515 235.889 49.9491V48.6103Z" fill="#FF3201"/>
</g>
<defs>
<clipPath id="clip0_1_3">
<rect width="237" height="64" fill="white"/>
</clipPath>
</defs>
</svg>
