<svg width="120" height="120" viewBox="0 0 120 120" fill="none" xmlns="http://www.w3.org/2000/svg">
<g clip-path="url(#clip0_122_42)">
<path d="M71.5227 119.864C97.4676 119.864 118.5 98.8312 118.5 72.8863C118.5 46.9415 97.4676 25.9091 71.5227 25.9091C45.5779 25.9091 24.5455 46.9415 24.5455 72.8863C24.5455 98.8312 45.5779 119.864 71.5227 119.864Z" fill="#FFF5F2"/>
<path d="M12.3273 6.88635H67.1386V75.7909L71.8364 78.9204L72.6205 83.6182H67.1386H12.3273V6.88635Z" fill="white"/>
<path d="M11.5432 7.67041V50.734" stroke="#333333" stroke-width="2" stroke-linecap="round"/>
<path d="M56.9591 7.67042H8.72728C8.55682 7.67042 8.41364 7.52723 8.41364 7.35678V2.50224C8.41364 2.33178 8.55682 2.1886 8.72728 2.1886H59.3114" stroke="#333333" stroke-width="2" stroke-linecap="round"/>
<path d="M67.1386 20.2023V33.5114" stroke="#333333" stroke-width="2" stroke-linecap="round"/>
<path d="M67.1386 61.6976V75.7908" stroke="#333333" stroke-width="2" stroke-linecap="round"/>
<path d="M1.36364 83.625H75.75" stroke="#333333" stroke-width="2" stroke-linecap="round"/>
<path d="M17.8091 79.7045C15.4568 73.4386 4.5 75.7909 5.28409 83.6182H21.7295C21.7227 79.7045 17.8091 79.7045 17.8091 79.7045Z" stroke="#333333" stroke-width="2" stroke-linecap="round"/>
<path d="M60.0886 79.7045C62.4409 73.4386 73.3977 75.7909 72.6136 83.6182H56.175C56.175 79.7045 60.0886 79.7045 60.0886 79.7045Z" stroke="#333333" stroke-width="2" stroke-linecap="round"/>
<path d="M11.5432 59.3522V75.7976" stroke="#333333" stroke-width="2" stroke-linecap="round"/>
<path d="M17.8091 12.3682H25.6364C26.0659 12.3682 26.4205 12.7159 26.4205 13.1523V22.5477C26.4205 22.9773 26.0727 23.3318 25.6364 23.3318H17.8091C17.3795 23.3318 17.025 22.9841 17.025 22.5477V13.1523C17.025 12.7227 17.3727 12.3682 17.8091 12.3682Z" stroke="#333333" stroke-width="3"/>
<path d="M17.8091 29.5977H25.6364C26.0659 29.5977 26.4205 29.9454 26.4205 30.3817V39.7772C26.4205 40.2067 26.0727 40.5613 25.6364 40.5613H17.8091C17.3795 40.5613 17.025 40.2136 17.025 39.7772V30.3817C17.025 29.9454 17.3727 29.5977 17.8091 29.5977Z" stroke="#333333" stroke-width="3"/>
<path d="M17.8091 46.8204H25.6364C26.0659 46.8204 26.4205 47.1682 26.4205 47.6045V57C26.4205 57.4295 26.0727 57.7841 25.6364 57.7841H17.8091C17.3795 57.7841 17.025 57.4363 17.025 57V47.6045C17.025 47.175 17.3727 46.8204 17.8091 46.8204Z" stroke="#333333" stroke-width="3"/>
<path d="M17.8091 64.0499H25.6364C26.0659 64.0499 26.4205 64.3977 26.4205 64.834V74.2295C26.4205 74.659 26.0727 75.0136 25.6364 75.0136H17.8091C17.3795 75.0136 17.025 74.6658 17.025 74.2295V64.834C17.025 64.3977 17.3727 64.0499 17.8091 64.0499Z" stroke="#333333" stroke-width="3"/>
<path d="M35.0318 46.8204H42.8591C43.2886 46.8204 43.6432 47.1682 43.6432 47.6045V57C43.6432 57.4295 43.2955 57.7841 42.8591 57.7841H35.0318C34.6023 57.7841 34.2477 57.4363 34.2477 57V47.6045C34.2477 47.175 34.6023 46.8204 35.0318 46.8204Z" stroke="#333333" stroke-width="3"/>
<path d="M35.0318 64.0499H42.8591C43.2886 64.0499 43.6432 64.3977 43.6432 64.834V74.2295C43.6432 74.659 43.2955 75.0136 42.8591 75.0136H35.0318C34.6023 75.0136 34.2477 74.6658 34.2477 74.2295V64.834C34.2477 64.3977 34.6023 64.0499 35.0318 64.0499Z" stroke="#333333" stroke-width="3"/>
<path d="M52.2614 46.8204H60.0886C60.5182 46.8204 60.8727 47.1682 60.8727 47.6045V57C60.8727 57.4295 60.525 57.7841 60.0886 57.7841H52.2614C51.8318 57.7841 51.4773 57.4363 51.4773 57V47.6045C51.4773 47.175 51.825 46.8204 52.2614 46.8204Z" stroke="#333333" stroke-width="3"/>
<path d="M52.2614 64.0499H60.0886C60.5182 64.0499 60.8727 64.3977 60.8727 64.834V74.2295C60.8727 74.659 60.525 75.0136 60.0886 75.0136H52.2614C51.8318 75.0136 51.4773 74.6658 51.4773 74.2295V64.834C51.4773 64.3977 51.825 64.0499 52.2614 64.0499Z" stroke="#333333" stroke-width="3"/>
<path d="M68.7 17.5909C73.3693 17.5909 77.1545 13.8056 77.1545 9.13631C77.1545 4.46699 73.3693 0.681763 68.7 0.681763C64.0307 0.681763 60.2455 4.46699 60.2455 9.13631C60.2455 13.8056 64.0307 17.5909 68.7 17.5909Z" fill="#FF704D" stroke="#333333" stroke-width="2"/>
<path d="M68.7 14.4613C71.6409 14.4613 74.025 12.0772 74.025 9.13628C74.025 6.19536 71.6409 3.81128 68.7 3.81128C65.7591 3.81128 63.375 6.19536 63.375 9.13628C63.375 12.0772 65.7591 14.4613 68.7 14.4613Z" fill="#FFAD99" stroke="#333333" stroke-width="2"/>
<path d="M68.7 57.6272C74.2354 57.6272 78.7227 53.1399 78.7227 47.6045C78.7227 42.0691 74.2354 37.5818 68.7 37.5818C63.1646 37.5818 58.6773 42.0691 58.6773 47.6045C58.6773 53.1399 63.1646 57.6272 68.7 57.6272Z" fill="#FF704D" stroke="#333333" stroke-width="2"/>
<path d="M68.7 54.4977C72.507 54.4977 75.5932 51.4115 75.5932 47.6045C75.5932 43.7975 72.507 40.7113 68.7 40.7113C64.893 40.7113 61.8068 43.7975 61.8068 47.6045C61.8068 51.4115 64.893 54.4977 68.7 54.4977Z" fill="#FFAD99" stroke="#333333" stroke-width="2"/>
<path d="M45.2114 40.5545C52.5618 40.5545 58.5205 34.5958 58.5205 27.2454C58.5205 19.895 52.5618 13.9363 45.2114 13.9363C37.861 13.9363 31.9023 19.895 31.9023 27.2454C31.9023 34.5958 37.861 40.5545 45.2114 40.5545Z" stroke="white"/>
<path d="M45.2114 38.8364C51.6128 38.8364 56.8023 33.6469 56.8023 27.2454C56.8023 20.844 51.6128 15.6545 45.2114 15.6545C38.8099 15.6545 33.6205 20.844 33.6205 27.2454C33.6205 33.6469 38.8099 38.8364 45.2114 38.8364Z" fill="#FF704D" stroke="#333333" stroke-width="2"/>
<path d="M45.2114 35.2567C49.6359 35.2567 53.2227 31.6699 53.2227 27.2454C53.2227 22.8208 49.6359 19.234 45.2114 19.234C40.7868 19.234 37.2 22.8208 37.2 27.2454C37.2 31.6699 40.7868 35.2567 45.2114 35.2567Z" fill="#FFAD99" stroke="#333333" stroke-width="2"/>
<path d="M69.8253 10.4329C70.5812 10.0647 71.0981 9.2958 71.0981 8.39772C71.0981 7.15074 70.0902 6.13635 68.8432 6.13635C67.5962 6.13635 66.5818 7.15074 66.5818 8.39772C66.5818 9.28934 67.0987 10.0647 67.8547 10.4329C67.3765 10.8723 66.0649 11.1824 64.7727 13.0884L68.8432 15.0267L72.9136 13.0884C71.615 11.1824 70.3034 10.8723 69.8253 10.4329Z" fill="#333333"/>
<path d="M46.7182 29.1545C47.8841 28.5886 48.6886 27.3886 48.6886 26.0045C48.6886 24.0682 47.1204 22.5 45.1841 22.5C43.2477 22.5 41.6795 24.0682 41.6795 26.0045C41.6795 27.3886 42.4841 28.5886 43.65 29.1545C42.2659 29.8364 40.2273 30.2727 38.8636 33.2386L45.2182 35.6455L51.4909 33.2386C50.1409 30.2727 48.1023 29.8364 46.7182 29.1545Z" fill="#333333"/>
<path d="M70.1885 49.0013C71.1994 48.545 71.8932 47.5768 71.8932 46.4607C71.8932 44.9005 70.5387 43.6364 68.8669 43.6364C67.1952 43.6364 65.8407 44.9005 65.8407 46.4607C65.8407 47.5768 66.5345 48.545 67.5454 49.0013C66.4948 49.5501 64.7306 50.321 63.4091 52.7074L68.8636 54.5574L74.3182 52.7074C72.9967 50.321 71.2391 49.5501 70.1885 49.0013Z" fill="#333333"/>
</g>
<defs>
<clipPath id="clip0_122_42">
<rect width="120" height="120" fill="white"/>
</clipPath>
</defs>
</svg>
